<?xml version="1.0" encoding="UTF-8" standalone="no"?>
<!DOCTYPE svg PUBLIC "-//W3C//DTD SVG 1.1//EN"
 "http://www.w3.org/Graphics/SVG/1.1/DTD/svg11.dtd">
<!-- Generated by graphviz version 2.38.0 (20140413.2041)
 -->
<!-- Title: bitmap.h Pages: 1 -->
<svg width="210pt" height="140pt"
 viewBox="0.00 0.00 209.50 140.00" xmlns="http://www.w3.org/2000/svg" xmlns:xlink="http://www.w3.org/1999/xlink">
<g id="graph0" class="graph" transform="scale(1 1) rotate(0) translate(4 136)">
<title>bitmap.h</title>
<polygon fill="white" stroke="none" points="-4,4 -4,-136 205.5,-136 205.5,4 -4,4"/>
<!-- Node1 -->
<g id="node1" class="node"><title>Node1</title>
<polygon fill="#bfbfbf" stroke="black" points="99.5,-112.5 99.5,-131.5 153.5,-131.5 153.5,-112.5 99.5,-112.5"/>
<text text-anchor="middle" x="126.5" y="-119.5" font-family="Helvetica,sans-Serif" font-size="10.00">bitmap.h</text>
</g>
<!-- Node2 -->
<g id="node2" class="node"><title>Node2</title>
<g id="a_node2"><a xlink:href="$orange_8h.html" xlink:title="orange.h">
<polygon fill="white" stroke="black" points="60.5,-56.5 60.5,-75.5 114.5,-75.5 114.5,-56.5 60.5,-56.5"/>
<text text-anchor="middle" x="87.5" y="-63.5" font-family="Helvetica,sans-Serif" font-size="10.00">orange.h</text>
</a>
</g>
</g>
<!-- Node1&#45;&gt;Node2 -->
<g id="edge1" class="edge"><title>Node1&#45;&gt;Node2</title>
<path fill="none" stroke="midnightblue" d="M114.118,-103.855C107.365,-94.5048 99.2914,-83.3265 93.8202,-75.7511"/>
<polygon fill="midnightblue" stroke="midnightblue" points="111.368,-106.025 120.06,-112.083 117.042,-101.927 111.368,-106.025"/>
</g>
<!-- Node5 -->
<g id="node5" class="node"><title>Node5</title>
<g id="a_node5"><a xlink:href="$bitmap_8cpp.html" xlink:title="bitmap.cpp">
<polygon fill="white" stroke="black" points="133,-56.5 133,-75.5 198,-75.5 198,-56.5 133,-56.5"/>
<text text-anchor="middle" x="165.5" y="-63.5" font-family="Helvetica,sans-Serif" font-size="10.00">bitmap.cpp</text>
</a>
</g>
</g>
<!-- Node1&#45;&gt;Node5 -->
<g id="edge4" class="edge"><title>Node1&#45;&gt;Node5</title>
<path fill="none" stroke="midnightblue" d="M138.882,-103.855C145.635,-94.5048 153.709,-83.3265 159.18,-75.7511"/>
<polygon fill="midnightblue" stroke="midnightblue" points="135.958,-101.927 132.94,-112.083 141.632,-106.025 135.958,-101.927"/>
</g>
<!-- Node3 -->
<g id="node3" class="node"><title>Node3</title>
<g id="a_node3"><a xlink:href="$orange_8cpp.html" xlink:title="orange.cpp">
<polygon fill="white" stroke="black" points="0,-0.5 0,-19.5 65,-19.5 65,-0.5 0,-0.5"/>
<text text-anchor="middle" x="32.5" y="-7.5" font-family="Helvetica,sans-Serif" font-size="10.00">orange.cpp</text>
</a>
</g>
</g>
<!-- Node2&#45;&gt;Node3 -->
<g id="edge2" class="edge"><title>Node2&#45;&gt;Node3</title>
<path fill="none" stroke="midnightblue" d="M71.2062,-49.0024C61.4594,-39.4329 49.447,-27.6389 41.4131,-19.7511"/>
<polygon fill="midnightblue" stroke="midnightblue" points="68.8301,-51.5746 78.4179,-56.083 73.7343,-46.5796 68.8301,-51.5746"/>
</g>
<!-- Node4 -->
<g id="node4" class="node"><title>Node4</title>
<g id="a_node4"><a xlink:href="$orange__instantiator_8cpp.html" xlink:title="orange_instantiator.cpp">
<polygon fill="white" stroke="black" points="83.5,-0.5 83.5,-19.5 201.5,-19.5 201.5,-0.5 83.5,-0.5"/>
<text text-anchor="middle" x="142.5" y="-7.5" font-family="Helvetica,sans-Serif" font-size="10.00">orange_instantiator.cpp</text>
</a>
</g>
</g>
<!-- Node2&#45;&gt;Node4 -->
<g id="edge3" class="edge"><title>Node2&#45;&gt;Node4</title>
<path fill="none" stroke="midnightblue" d="M103.794,-49.0024C113.541,-39.4329 125.553,-27.6389 133.587,-19.7511"/>
<polygon fill="midnightblue" stroke="midnightblue" points="101.266,-46.5796 96.5821,-56.083 106.17,-51.5746 101.266,-46.5796"/>
</g>
</g>
</svg>
