<?xml version="1.0" encoding="UTF-8" standalone="no"?>
<!DOCTYPE svg PUBLIC "-//W3C//DTD SVG 1.1//EN"
 "http://www.w3.org/Graphics/SVG/1.1/DTD/svg11.dtd">
<!-- Generated by graphviz version 2.38.0 (20140413.2041)
 -->
<!-- Title: code Pages: 1 -->
<svg width="166pt" height="148pt"
 viewBox="0.00 0.00 166.00 148.00" xmlns="http://www.w3.org/2000/svg" xmlns:xlink="http://www.w3.org/1999/xlink">
<g id="graph0" class="graph" transform="scale(1 1) rotate(0) translate(4 144)">
<title>code</title>
<polygon fill="white" stroke="none" points="-4,4 -4,-144 162,-144 162,4 -4,4"/>
<g id="clust1" class="cluster"><title>clusterdir_050edd66366d13764f98250ef6db77f6</title>
<g id="a_clust1"><a xlink:href="dir_050edd66366d13764f98250ef6db77f6.html">
<polygon fill="#eeeeff" stroke="black" points="8,-8 8,-132 150,-132 150,-8 8,-8"/>
</a>
</g>
</g>
<!-- dir_050edd66366d13764f98250ef6db77f6 -->
<g id="node1" class="node"><title>dir_050edd66366d13764f98250ef6db77f6</title>
<text text-anchor="middle" x="115" y="-103.5" font-family="Helvetica,sans-Serif" font-size="10.00">code</text>
</g>
<!-- dir_0738ad253578b95ec63fca032667c09c -->
<g id="node2" class="node"><title>dir_0738ad253578b95ec63fca032667c09c</title>
<g id="a_node2"><a xlink:href="dir_0738ad253578b95ec63fca032667c09c.html" xlink:title="headers">
<polygon fill="white" stroke="black" points="70,-52 16,-52 16,-16 70,-16 70,-52"/>
<text text-anchor="middle" x="43" y="-31.5" font-family="Helvetica,sans-Serif" font-size="10.00">headers</text>
</a>
</g>
</g>
<!-- dir_a55a43e3701336a786915d81b81be99b -->
<g id="node3" class="node"><title>dir_a55a43e3701336a786915d81b81be99b</title>
<g id="a_node3"><a xlink:href="dir_a55a43e3701336a786915d81b81be99b.html" xlink:title="source">
<polygon fill="white" stroke="black" points="70,-124 16,-124 16,-88 70,-88 70,-124"/>
<text text-anchor="middle" x="43" y="-103.5" font-family="Helvetica,sans-Serif" font-size="10.00">source</text>
</a>
</g>
</g>
<!-- dir_a55a43e3701336a786915d81b81be99b&#45;&gt;dir_0738ad253578b95ec63fca032667c09c -->
<g id="edge1" class="edge"><title>dir_a55a43e3701336a786915d81b81be99b&#45;&gt;dir_0738ad253578b95ec63fca032667c09c</title>
<path fill="none" stroke="black" d="M43,-87.6966C43,-79.9827 43,-70.7125 43,-62.1124"/>
<polygon fill="black" stroke="black" points="46.5001,-62.1043 43,-52.1043 39.5001,-62.1044 46.5001,-62.1043"/>
<g id="a_edge1&#45;headlabel"><a xlink:href="dir_000001_000002.html" xlink:title="8">
<text text-anchor="middle" x="49.3393" y="-63.199" font-family="Helvetica,sans-Serif" font-size="10.00">8</text>
</a>
</g>
</g>
</g>
</svg>
