<?xml version="1.0" encoding="UTF-8" standalone="no"?>
<!DOCTYPE svg PUBLIC "-//W3C//DTD SVG 1.1//EN"
 "http://www.w3.org/Graphics/SVG/1.1/DTD/svg11.dtd">
<!-- Generated by graphviz version 2.38.0 (20140413.2041)
 -->
<!-- Title: orange.h Pages: 1 -->
<svg width="210pt" height="84pt"
 viewBox="0.00 0.00 209.50 84.00" xmlns="http://www.w3.org/2000/svg" xmlns:xlink="http://www.w3.org/1999/xlink">
<g id="graph0" class="graph" transform="scale(1 1) rotate(0) translate(4 80)">
<title>orange.h</title>
<polygon fill="white" stroke="none" points="-4,4 -4,-80 205.5,-80 205.5,4 -4,4"/>
<!-- Node1 -->
<g id="node1" class="node"><title>Node1</title>
<polygon fill="#bfbfbf" stroke="black" points="60.5,-56.5 60.5,-75.5 114.5,-75.5 114.5,-56.5 60.5,-56.5"/>
<text text-anchor="middle" x="87.5" y="-63.5" font-family="Helvetica,sans-Serif" font-size="10.00">orange.h</text>
</g>
<!-- Node2 -->
<g id="node2" class="node"><title>Node2</title>
<g id="a_node2"><a xlink:href="$orange_8cpp.html" xlink:title="orange.cpp">
<polygon fill="white" stroke="black" points="0,-0.5 0,-19.5 65,-19.5 65,-0.5 0,-0.5"/>
<text text-anchor="middle" x="32.5" y="-7.5" font-family="Helvetica,sans-Serif" font-size="10.00">orange.cpp</text>
</a>
</g>
</g>
<!-- Node1&#45;&gt;Node2 -->
<g id="edge1" class="edge"><title>Node1&#45;&gt;Node2</title>
<path fill="none" stroke="midnightblue" d="M71.2062,-49.0024C61.4594,-39.4329 49.447,-27.6389 41.4131,-19.7511"/>
<polygon fill="midnightblue" stroke="midnightblue" points="68.8301,-51.5746 78.4179,-56.083 73.7343,-46.5796 68.8301,-51.5746"/>
</g>
<!-- Node3 -->
<g id="node3" class="node"><title>Node3</title>
<g id="a_node3"><a xlink:href="$orange__instantiator_8cpp.html" xlink:title="orange_instantiator.cpp">
<polygon fill="white" stroke="black" points="83.5,-0.5 83.5,-19.5 201.5,-19.5 201.5,-0.5 83.5,-0.5"/>
<text text-anchor="middle" x="142.5" y="-7.5" font-family="Helvetica,sans-Serif" font-size="10.00">orange_instantiator.cpp</text>
</a>
</g>
</g>
<!-- Node1&#45;&gt;Node3 -->
<g id="edge2" class="edge"><title>Node1&#45;&gt;Node3</title>
<path fill="none" stroke="midnightblue" d="M103.794,-49.0024C113.541,-39.4329 125.553,-27.6389 133.587,-19.7511"/>
<polygon fill="midnightblue" stroke="midnightblue" points="101.266,-46.5796 96.5821,-56.083 106.17,-51.5746 101.266,-46.5796"/>
</g>
</g>
</svg>
