<?xml version="1.0" encoding="UTF-8" standalone="no"?>
<!DOCTYPE svg PUBLIC "-//W3C//DTD SVG 1.1//EN"
 "http://www.w3.org/Graphics/SVG/1.1/DTD/svg11.dtd">
<!-- Generated by graphviz version 2.38.0 (20140413.2041)
 -->
<!-- Title: orange_udp.h Pages: 1 -->
<svg width="227pt" height="140pt"
 viewBox="0.00 0.00 226.50 140.00" xmlns="http://www.w3.org/2000/svg" xmlns:xlink="http://www.w3.org/1999/xlink">
<g id="graph0" class="graph" transform="scale(1 1) rotate(0) translate(4 136)">
<title>orange_udp.h</title>
<polygon fill="white" stroke="none" points="-4,4 -4,-136 222.5,-136 222.5,4 -4,4"/>
<!-- Node1 -->
<g id="node1" class="node"><title>Node1</title>
<polygon fill="#bfbfbf" stroke="black" points="94,-112.5 94,-131.5 169,-131.5 169,-112.5 94,-112.5"/>
<text text-anchor="middle" x="131.5" y="-119.5" font-family="Helvetica,sans-Serif" font-size="10.00">orange_udp.h</text>
</g>
<!-- Node2 -->
<g id="node2" class="node"><title>Node2</title>
<g id="a_node2"><a xlink:href="$orange_8h.html" xlink:title="orange.h">
<polygon fill="white" stroke="black" points="60.5,-56.5 60.5,-75.5 114.5,-75.5 114.5,-56.5 60.5,-56.5"/>
<text text-anchor="middle" x="87.5" y="-63.5" font-family="Helvetica,sans-Serif" font-size="10.00">orange.h</text>
</a>
</g>
</g>
<!-- Node1&#45;&gt;Node2 -->
<g id="edge1" class="edge"><title>Node1&#45;&gt;Node2</title>
<path fill="none" stroke="midnightblue" d="M117.765,-104.144C110.099,-94.7357 100.867,-83.4046 94.6305,-75.7511"/>
<polygon fill="midnightblue" stroke="midnightblue" points="115.204,-106.541 124.234,-112.083 120.631,-102.12 115.204,-106.541"/>
</g>
<!-- Node5 -->
<g id="node5" class="node"><title>Node5</title>
<g id="a_node5"><a xlink:href="$orange__udp_8cpp.html" xlink:title="orange_udp.cpp">
<polygon fill="white" stroke="black" points="132.5,-56.5 132.5,-75.5 218.5,-75.5 218.5,-56.5 132.5,-56.5"/>
<text text-anchor="middle" x="175.5" y="-63.5" font-family="Helvetica,sans-Serif" font-size="10.00">orange_udp.cpp</text>
</a>
</g>
</g>
<!-- Node1&#45;&gt;Node5 -->
<g id="edge4" class="edge"><title>Node1&#45;&gt;Node5</title>
<path fill="none" stroke="midnightblue" d="M145.235,-104.144C152.901,-94.7357 162.133,-83.4046 168.369,-75.7511"/>
<polygon fill="midnightblue" stroke="midnightblue" points="142.369,-102.12 138.766,-112.083 147.796,-106.541 142.369,-102.12"/>
</g>
<!-- Node3 -->
<g id="node3" class="node"><title>Node3</title>
<g id="a_node3"><a xlink:href="$orange_8cpp.html" xlink:title="orange.cpp">
<polygon fill="white" stroke="black" points="0,-0.5 0,-19.5 65,-19.5 65,-0.5 0,-0.5"/>
<text text-anchor="middle" x="32.5" y="-7.5" font-family="Helvetica,sans-Serif" font-size="10.00">orange.cpp</text>
</a>
</g>
</g>
<!-- Node2&#45;&gt;Node3 -->
<g id="edge2" class="edge"><title>Node2&#45;&gt;Node3</title>
<path fill="none" stroke="midnightblue" d="M71.2062,-49.0024C61.4594,-39.4329 49.447,-27.6389 41.4131,-19.7511"/>
<polygon fill="midnightblue" stroke="midnightblue" points="68.8301,-51.5746 78.4179,-56.083 73.7343,-46.5796 68.8301,-51.5746"/>
</g>
<!-- Node4 -->
<g id="node4" class="node"><title>Node4</title>
<g id="a_node4"><a xlink:href="$orange__instantiator_8cpp.html" xlink:title="orange_instantiator.cpp">
<polygon fill="white" stroke="black" points="83.5,-0.5 83.5,-19.5 201.5,-19.5 201.5,-0.5 83.5,-0.5"/>
<text text-anchor="middle" x="142.5" y="-7.5" font-family="Helvetica,sans-Serif" font-size="10.00">orange_instantiator.cpp</text>
</a>
</g>
</g>
<!-- Node2&#45;&gt;Node4 -->
<g id="edge3" class="edge"><title>Node2&#45;&gt;Node4</title>
<path fill="none" stroke="midnightblue" d="M103.794,-49.0024C113.541,-39.4329 125.553,-27.6389 133.587,-19.7511"/>
<polygon fill="midnightblue" stroke="midnightblue" points="101.266,-46.5796 96.5821,-56.083 106.17,-51.5746 101.266,-46.5796"/>
</g>
</g>
</svg>
