<?xml version="1.0" encoding="UTF-8" standalone="no"?>
<!DOCTYPE svg PUBLIC "-//W3C//DTD SVG 1.1//EN"
 "http://www.w3.org/Graphics/SVG/1.1/DTD/svg11.dtd">
<!-- Generated by graphviz version 2.38.0 (20140413.2041)
 -->
<!-- Title: f_chunk Pages: 1 -->
<svg width="76pt" height="193pt"
 viewBox="0.00 0.00 75.50 193.00" xmlns="http://www.w3.org/2000/svg" xmlns:xlink="http://www.w3.org/1999/xlink">
<g id="graph0" class="graph" transform="scale(1 1) rotate(0) translate(4 189)">
<title>f_chunk</title>
<polygon fill="white" stroke="none" points="-4,4 -4,-189 71.5,-189 71.5,4 -4,4"/>
<!-- Node1 -->
<g id="node1" class="node"><title>Node1</title>
<polygon fill="#bfbfbf" stroke="black" points="0,-0.5 0,-79.5 65,-79.5 65,-0.5 0,-0.5"/>
<text text-anchor="middle" x="32.5" y="-67.5" font-family="Helvetica,sans-Serif" font-size="10.00">f_chunk</text>
<polyline fill="none" stroke="black" points="0,-60.5 65,-60.5 "/>
<text text-anchor="start" x="8" y="-48.5" font-family="Helvetica,sans-Serif" font-size="10.00">+ type</text>
<text text-anchor="start" x="8" y="-37.5" font-family="Helvetica,sans-Serif" font-size="10.00">+ chunk_id</text>
<text text-anchor="start" x="8" y="-26.5" font-family="Helvetica,sans-Serif" font-size="10.00">+ payload</text>
<polyline fill="none" stroke="black" points="0,-19.5 65,-19.5 "/>
<text text-anchor="middle" x="32.5" y="-7.5" font-family="Helvetica,sans-Serif" font-size="10.00"> </text>
</g>
<!-- Node2 -->
<g id="node2" class="node"><title>Node2</title>
<g id="a_node2"><a xlink:href="$frames_8h.html#structuint24__t" xlink:title="This struct represents a 24bit unsigned integer. ">
<polygon fill="white" stroke="black" points="7,-127.5 7,-184.5 58,-184.5 58,-127.5 7,-127.5"/>
<text text-anchor="middle" x="32.5" y="-172.5" font-family="Helvetica,sans-Serif" font-size="10.00">uint24_t</text>
<polyline fill="none" stroke="black" points="7,-165.5 58,-165.5 "/>
<text text-anchor="start" x="15" y="-153.5" font-family="Helvetica,sans-Serif" font-size="10.00">+ data</text>
<polyline fill="none" stroke="black" points="7,-146.5 58,-146.5 "/>
<text text-anchor="middle" x="32.5" y="-134.5" font-family="Helvetica,sans-Serif" font-size="10.00"> </text>
</a>
</g>
</g>
<!-- Node2&#45;&gt;Node1 -->
<g id="edge1" class="edge"><title>Node2&#45;&gt;Node1</title>
<path fill="none" stroke="#404040" d="M32.5,-127.404C32.5,-116.63 32.5,-103.926 32.5,-91.6231"/>
<polygon fill="none" stroke="#404040" points="32.5001,-91.5406 28.5,-85.5406 32.5,-79.5406 36.5,-85.5405 32.5001,-91.5406"/>
<text text-anchor="middle" x="50" y="-101" font-family="Helvetica,sans-Serif" font-size="10.00"> +file_id</text>
</g>
</g>
</svg>
