<?xml version="1.0" encoding="UTF-8" standalone="no"?>
<!DOCTYPE svg PUBLIC "-//W3C//DTD SVG 1.1//EN"
 "http://www.w3.org/Graphics/SVG/1.1/DTD/svg11.dtd">
<!-- Generated by graphviz version 2.38.0 (20140413.2041)
 -->
<!-- Title: f_locate_ans Pages: 1 -->
<svg width="80pt" height="182pt"
 viewBox="0.00 0.00 80.00 182.00" xmlns="http://www.w3.org/2000/svg" xmlns:xlink="http://www.w3.org/1999/xlink">
<g id="graph0" class="graph" transform="scale(1 1) rotate(0) translate(4 178)">
<title>f_locate_ans</title>
<polygon fill="white" stroke="none" points="-4,4 -4,-178 76,-178 76,4 -4,4"/>
<!-- Node1 -->
<g id="node1" class="node"><title>Node1</title>
<polygon fill="#bfbfbf" stroke="black" points="0,-0.5 0,-68.5 72,-68.5 72,-0.5 0,-0.5"/>
<text text-anchor="middle" x="36" y="-56.5" font-family="Helvetica,sans-Serif" font-size="10.00">f_locate_ans</text>
<polyline fill="none" stroke="black" points="0,-49.5 72,-49.5 "/>
<text text-anchor="start" x="8" y="-37.5" font-family="Helvetica,sans-Serif" font-size="10.00">+ type</text>
<text text-anchor="start" x="8" y="-26.5" font-family="Helvetica,sans-Serif" font-size="10.00">+ node_id</text>
<polyline fill="none" stroke="black" points="0,-19.5 72,-19.5 "/>
<text text-anchor="middle" x="36" y="-7.5" font-family="Helvetica,sans-Serif" font-size="10.00"> </text>
</g>
<!-- Node2 -->
<g id="node2" class="node"><title>Node2</title>
<g id="a_node2"><a xlink:href="$frames_8h.html#structuint24__t" xlink:title="This struct represents a 24bit unsigned integer. ">
<polygon fill="white" stroke="black" points="10.5,-116.5 10.5,-173.5 61.5,-173.5 61.5,-116.5 10.5,-116.5"/>
<text text-anchor="middle" x="36" y="-161.5" font-family="Helvetica,sans-Serif" font-size="10.00">uint24_t</text>
<polyline fill="none" stroke="black" points="10.5,-154.5 61.5,-154.5 "/>
<text text-anchor="start" x="18.5" y="-142.5" font-family="Helvetica,sans-Serif" font-size="10.00">+ data</text>
<polyline fill="none" stroke="black" points="10.5,-135.5 61.5,-135.5 "/>
<text text-anchor="middle" x="36" y="-123.5" font-family="Helvetica,sans-Serif" font-size="10.00"> </text>
</a>
</g>
</g>
<!-- Node2&#45;&gt;Node1 -->
<g id="edge1" class="edge"><title>Node2&#45;&gt;Node1</title>
<path fill="none" stroke="#404040" d="M36,-116.34C36,-105.529 36,-92.847 36,-80.7745"/>
<polygon fill="none" stroke="#404040" points="36.0001,-80.5186 32,-74.5186 36,-68.5186 40,-74.5185 36.0001,-80.5186"/>
<text text-anchor="middle" x="53.5" y="-90" font-family="Helvetica,sans-Serif" font-size="10.00"> +file_id</text>
</g>
</g>
</svg>
