<?xml version="1.0" encoding="UTF-8" standalone="no"?>
<!DOCTYPE svg PUBLIC "-//W3C//DTD SVG 1.1//EN"
 "http://www.w3.org/Graphics/SVG/1.1/DTD/svg11.dtd">
<!-- Generated by graphviz version 2.38.0 (20140413.2041)
 -->
<!-- Title: azul_instantiator.cpp Pages: 1 -->
<svg width="1116pt" height="196pt"
 viewBox="0.00 0.00 1116.00 196.00" xmlns="http://www.w3.org/2000/svg" xmlns:xlink="http://www.w3.org/1999/xlink">
<g id="graph0" class="graph" transform="scale(1 1) rotate(0) translate(4 192)">
<title>azul_instantiator.cpp</title>
<polygon fill="white" stroke="none" points="-4,4 -4,-192 1112,-192 1112,4 -4,4"/>
<!-- Node1 -->
<g id="node1" class="node"><title>Node1</title>
<polygon fill="#bfbfbf" stroke="black" points="650.5,-168.5 650.5,-187.5 757.5,-187.5 757.5,-168.5 650.5,-168.5"/>
<text text-anchor="middle" x="704" y="-175.5" font-family="Helvetica,sans-Serif" font-size="10.00">azul_instantiator.cpp</text>
</g>
<!-- Node2 -->
<g id="node2" class="node"><title>Node2</title>
<polygon fill="white" stroke="#bfbfbf" points="200,-56.5 200,-75.5 254,-75.5 254,-56.5 200,-56.5"/>
<text text-anchor="middle" x="227" y="-63.5" font-family="Helvetica,sans-Serif" font-size="10.00">iostream</text>
</g>
<!-- Node1&#45;&gt;Node2 -->
<g id="edge1" class="edge"><title>Node1&#45;&gt;Node2</title>
<path fill="none" stroke="midnightblue" d="M650.439,-168.683C600.406,-160.565 523.772,-147.234 458,-132 388.759,-115.962 309.219,-92.434 263.854,-78.5207"/>
<polygon fill="midnightblue" stroke="midnightblue" points="264.755,-75.1357 254.167,-75.5362 262.694,-81.8254 264.755,-75.1357"/>
</g>
<!-- Node3 -->
<g id="node3" class="node"><title>Node3</title>
<polygon fill="white" stroke="#bfbfbf" points="272.5,-56.5 272.5,-75.5 313.5,-75.5 313.5,-56.5 272.5,-56.5"/>
<text text-anchor="middle" x="293" y="-63.5" font-family="Helvetica,sans-Serif" font-size="10.00">string</text>
</g>
<!-- Node1&#45;&gt;Node3 -->
<g id="edge2" class="edge"><title>Node1&#45;&gt;Node3</title>
<path fill="none" stroke="midnightblue" d="M672.092,-168.46C594.994,-147.826 399.363,-95.4671 323.613,-75.1933"/>
<polygon fill="midnightblue" stroke="midnightblue" points="324.31,-71.7567 313.745,-72.5522 322.5,-78.5187 324.31,-71.7567"/>
</g>
<!-- Node4 -->
<g id="node4" class="node"><title>Node4</title>
<polygon fill="white" stroke="#bfbfbf" points="996,-112.5 996,-131.5 1046,-131.5 1046,-112.5 996,-112.5"/>
<text text-anchor="middle" x="1021" y="-119.5" font-family="Helvetica,sans-Serif" font-size="10.00">fstream</text>
</g>
<!-- Node1&#45;&gt;Node4 -->
<g id="edge3" class="edge"><title>Node1&#45;&gt;Node4</title>
<path fill="none" stroke="midnightblue" d="M757.742,-169.381C813.875,-161.17 904.395,-147.218 982,-132 983.266,-131.752 984.553,-131.492 985.852,-131.224"/>
<polygon fill="midnightblue" stroke="midnightblue" points="986.843,-134.591 995.877,-129.055 985.363,-127.749 986.843,-134.591"/>
</g>
<!-- Node5 -->
<g id="node5" class="node"><title>Node5</title>
<polygon fill="white" stroke="#bfbfbf" points="0,-0.5 0,-19.5 68,-19.5 68,-0.5 0,-0.5"/>
<text text-anchor="middle" x="34" y="-7.5" font-family="Helvetica,sans-Serif" font-size="10.00">sys/types.h</text>
</g>
<!-- Node1&#45;&gt;Node5 -->
<g id="edge4" class="edge"><title>Node1&#45;&gt;Node5</title>
<path fill="none" stroke="midnightblue" d="M650.48,-172.162C585.527,-165.707 472.911,-152.633 378,-132 293.222,-113.569 272.741,-105.075 191,-76 145.354,-59.7635 93.6616,-37.609 62.4655,-23.8113"/>
<polygon fill="midnightblue" stroke="midnightblue" points="63.6503,-20.5077 53.0908,-19.6432 60.8064,-26.904 63.6503,-20.5077"/>
</g>
<!-- Node6 -->
<g id="node6" class="node"><title>Node6</title>
<polygon fill="white" stroke="#bfbfbf" points="842.5,-0.5 842.5,-19.5 893.5,-19.5 893.5,-0.5 842.5,-0.5"/>
<text text-anchor="middle" x="868" y="-7.5" font-family="Helvetica,sans-Serif" font-size="10.00">unistd.h</text>
</g>
<!-- Node1&#45;&gt;Node6 -->
<g id="edge5" class="edge"><title>Node1&#45;&gt;Node6</title>
<path fill="none" stroke="midnightblue" d="M757.663,-172.195C816.311,-163.722 907.45,-140.355 949,-76 964.091,-52.6261 931.561,-33.8141 903.334,-22.5568"/>
<polygon fill="midnightblue" stroke="midnightblue" points="904.207,-19.1454 893.615,-18.8949 901.739,-25.6959 904.207,-19.1454"/>
</g>
<!-- Node7 -->
<g id="node7" class="node"><title>Node7</title>
<polygon fill="white" stroke="#bfbfbf" points="1064,-112.5 1064,-131.5 1108,-131.5 1108,-112.5 1064,-112.5"/>
<text text-anchor="middle" x="1086" y="-119.5" font-family="Helvetica,sans-Serif" font-size="10.00">vector</text>
</g>
<!-- Node1&#45;&gt;Node7 -->
<g id="edge6" class="edge"><title>Node1&#45;&gt;Node7</title>
<path fill="none" stroke="midnightblue" d="M757.649,-172.727C824.844,-166.799 943.577,-154.424 1053.8,-131.967"/>
<polygon fill="midnightblue" stroke="midnightblue" points="1054.67,-135.361 1063.75,-129.907 1053.25,-128.507 1054.67,-135.361"/>
</g>
<!-- Node8 -->
<g id="node8" class="node"><title>Node8</title>
<g id="a_node8"><a xlink:href="azul_8h.html" target="_top" xlink:title="azul.h">
<polygon fill="white" stroke="black" points="594.5,-112.5 594.5,-131.5 637.5,-131.5 637.5,-112.5 594.5,-112.5"/>
<text text-anchor="middle" x="616" y="-119.5" font-family="Helvetica,sans-Serif" font-size="10.00">azul.h</text>
</a>
</g>
</g>
<!-- Node1&#45;&gt;Node8 -->
<g id="edge7" class="edge"><title>Node1&#45;&gt;Node8</title>
<path fill="none" stroke="midnightblue" d="M689.861,-168.324C676.134,-159.9 655.064,-146.971 638.936,-137.074"/>
<polygon fill="midnightblue" stroke="midnightblue" points="640.457,-133.902 630.104,-131.655 636.796,-139.868 640.457,-133.902"/>
</g>
<!-- Node9 -->
<g id="node9" class="node"><title>Node9</title>
<polygon fill="white" stroke="#bfbfbf" points="896,-56.5 896,-75.5 940,-75.5 940,-56.5 896,-56.5"/>
<text text-anchor="middle" x="918" y="-63.5" font-family="Helvetica,sans-Serif" font-size="10.00">thread</text>
</g>
<!-- Node1&#45;&gt;Node9 -->
<g id="edge34" class="edge"><title>Node1&#45;&gt;Node9</title>
<path fill="none" stroke="midnightblue" d="M720.792,-168.368C758.062,-149.211 847.895,-103.036 892.287,-80.2172"/>
<polygon fill="midnightblue" stroke="midnightblue" points="893.992,-83.2759 901.286,-75.5914 890.792,-77.0502 893.992,-83.2759"/>
</g>
<!-- Node8&#45;&gt;Node2 -->
<g id="edge16" class="edge"><title>Node8&#45;&gt;Node2</title>
<path fill="none" stroke="midnightblue" d="M594.372,-119.141C540.361,-114.309 395.099,-100.151 264.247,-76.0323"/>
<polygon fill="midnightblue" stroke="midnightblue" points="264.524,-72.5236 254.051,-74.127 263.238,-79.4045 264.524,-72.5236"/>
</g>
<!-- Node8&#45;&gt;Node3 -->
<g id="edge13" class="edge"><title>Node8&#45;&gt;Node3</title>
<path fill="none" stroke="midnightblue" d="M594.194,-118.325C545.95,-112.248 426.632,-96.3373 328,-76 326.541,-75.6991 325.051,-75.3765 323.549,-75.039"/>
<polygon fill="midnightblue" stroke="midnightblue" points="324.192,-71.594 313.651,-72.6632 322.558,-78.4006 324.192,-71.594"/>
</g>
<!-- Node8&#45;&gt;Node6 -->
<g id="edge17" class="edge"><title>Node8&#45;&gt;Node6</title>
<path fill="none" stroke="midnightblue" d="M637.591,-121.682C678.356,-121.909 767.864,-117.251 827,-76 843.378,-64.5751 854.62,-44.291 861.133,-29.4122"/>
<polygon fill="midnightblue" stroke="midnightblue" points="864.541,-30.3202 865.045,-19.7373 858.052,-27.6958 864.541,-30.3202"/>
</g>
<!-- Node8&#45;&gt;Node9 -->
<g id="edge8" class="edge"><title>Node8&#45;&gt;Node9</title>
<path fill="none" stroke="midnightblue" d="M637.83,-117.892C683.405,-111.276 791.917,-94.8507 882,-76 883.277,-75.7328 884.577,-75.4515 885.889,-75.1602"/>
<polygon fill="midnightblue" stroke="midnightblue" points="887.042,-78.4847 895.978,-72.7923 885.442,-71.6699 887.042,-78.4847"/>
</g>
<!-- Node10 -->
<g id="node10" class="node"><title>Node10</title>
<polygon fill="white" stroke="#bfbfbf" points="472,-56.5 472,-75.5 518,-75.5 518,-56.5 472,-56.5"/>
<text text-anchor="middle" x="495" y="-63.5" font-family="Helvetica,sans-Serif" font-size="10.00">chrono</text>
</g>
<!-- Node8&#45;&gt;Node10 -->
<g id="edge9" class="edge"><title>Node8&#45;&gt;Node10</title>
<path fill="none" stroke="midnightblue" d="M596.827,-112.444C577.091,-103.636 546.115,-89.8116 523.507,-79.722"/>
<polygon fill="midnightblue" stroke="midnightblue" points="524.641,-76.3957 514.083,-75.5164 521.789,-82.788 524.641,-76.3957"/>
</g>
<!-- Node11 -->
<g id="node11" class="node"><title>Node11</title>
<polygon fill="white" stroke="#bfbfbf" points="642,-0.5 642,-19.5 682,-19.5 682,-0.5 642,-0.5"/>
<text text-anchor="middle" x="662" y="-7.5" font-family="Helvetica,sans-Serif" font-size="10.00">utility</text>
</g>
<!-- Node8&#45;&gt;Node11 -->
<g id="edge10" class="edge"><title>Node8&#45;&gt;Node11</title>
<path fill="none" stroke="midnightblue" d="M617.787,-112.342C620.57,-99.6468 626.518,-75.3883 635,-56 639.199,-46.4009 645.075,-36.3451 650.272,-28.18"/>
<polygon fill="midnightblue" stroke="midnightblue" points="653.343,-29.8803 655.922,-19.604 647.498,-26.0294 653.343,-29.8803"/>
</g>
<!-- Node12 -->
<g id="node12" class="node"><title>Node12</title>
<polygon fill="white" stroke="#bfbfbf" points="536,-56.5 536,-75.5 588,-75.5 588,-56.5 536,-56.5"/>
<text text-anchor="middle" x="562" y="-63.5" font-family="Helvetica,sans-Serif" font-size="10.00">sstream</text>
</g>
<!-- Node8&#45;&gt;Node12 -->
<g id="edge11" class="edge"><title>Node8&#45;&gt;Node12</title>
<path fill="none" stroke="midnightblue" d="M607.083,-112.083C599.22,-104.22 587.569,-92.5688 578.081,-83.0813"/>
<polygon fill="midnightblue" stroke="midnightblue" points="580.297,-80.3473 570.751,-75.7511 575.347,-85.2971 580.297,-80.3473"/>
</g>
<!-- Node13 -->
<g id="node13" class="node"><title>Node13</title>
<polygon fill="white" stroke="#bfbfbf" points="644,-56.5 644,-75.5 690,-75.5 690,-56.5 644,-56.5"/>
<text text-anchor="middle" x="667" y="-63.5" font-family="Helvetica,sans-Serif" font-size="10.00">cstring</text>
</g>
<!-- Node8&#45;&gt;Node13 -->
<g id="edge12" class="edge"><title>Node8&#45;&gt;Node13</title>
<path fill="none" stroke="midnightblue" d="M624.422,-112.083C631.848,-104.22 642.852,-92.5688 651.812,-83.0813"/>
<polygon fill="midnightblue" stroke="midnightblue" points="654.413,-85.4244 658.735,-75.7511 649.324,-80.618 654.413,-85.4244"/>
</g>
<!-- Node14 -->
<g id="node14" class="node"><title>Node14</title>
<polygon fill="white" stroke="#bfbfbf" points="700.5,-0.5 700.5,-19.5 735.5,-19.5 735.5,-0.5 700.5,-0.5"/>
<text text-anchor="middle" x="718" y="-7.5" font-family="Helvetica,sans-Serif" font-size="10.00">map</text>
</g>
<!-- Node8&#45;&gt;Node14 -->
<g id="edge14" class="edge"><title>Node8&#45;&gt;Node14</title>
<path fill="none" stroke="midnightblue" d="M637.846,-114.484C656.676,-107.776 683.247,-95.5134 699,-76 709.722,-62.7184 714.394,-43.5948 716.429,-29.5276"/>
<polygon fill="midnightblue" stroke="midnightblue" points="719.913,-29.8689 717.561,-19.5383 712.957,-29.0805 719.913,-29.8689"/>
</g>
<!-- Node15 -->
<g id="node15" class="node"><title>Node15</title>
<polygon fill="white" stroke="#bfbfbf" points="767.5,-0.5 767.5,-19.5 810.5,-19.5 810.5,-0.5 767.5,-0.5"/>
<text text-anchor="middle" x="789" y="-7.5" font-family="Helvetica,sans-Serif" font-size="10.00">queue</text>
</g>
<!-- Node8&#45;&gt;Node15 -->
<g id="edge15" class="edge"><title>Node8&#45;&gt;Node15</title>
<path fill="none" stroke="midnightblue" d="M637.734,-119.275C683.771,-115.124 788.652,-102.867 810,-76 821.015,-62.1381 812.04,-42.3372 802.644,-28.239"/>
<polygon fill="midnightblue" stroke="midnightblue" points="805.317,-25.9623 796.615,-19.9178 799.648,-30.0693 805.317,-25.9623"/>
</g>
<!-- Node16 -->
<g id="node16" class="node"><title>Node16</title>
<polygon fill="white" stroke="#bfbfbf" points="86,-0.5 86,-19.5 130,-19.5 130,-0.5 86,-0.5"/>
<text text-anchor="middle" x="108" y="-7.5" font-family="Helvetica,sans-Serif" font-size="10.00">mutex</text>
</g>
<!-- Node8&#45;&gt;Node16 -->
<g id="edge18" class="edge"><title>Node8&#45;&gt;Node16</title>
<path fill="none" stroke="midnightblue" d="M594.307,-119.369C549.626,-115.537 444.52,-104.073 361,-76 342.536,-69.7936 340.403,-62.3868 322,-56 246.749,-29.8839 221.517,-38.7925 140.457,-20.1412"/>
<polygon fill="midnightblue" stroke="midnightblue" points="140.826,-16.6316 130.288,-17.7259 139.208,-23.4421 140.826,-16.6316"/>
</g>
<!-- Node17 -->
<g id="node17" class="node"><title>Node17</title>
<polygon fill="white" stroke="#bfbfbf" points="528.5,-0.5 528.5,-19.5 623.5,-19.5 623.5,-0.5 528.5,-0.5"/>
<text text-anchor="middle" x="576" y="-7.5" font-family="Helvetica,sans-Serif" font-size="10.00">condition_variable</text>
</g>
<!-- Node8&#45;&gt;Node17 -->
<g id="edge19" class="edge"><title>Node8&#45;&gt;Node17</title>
<path fill="none" stroke="midnightblue" d="M594.482,-117.865C556.213,-111.801 478.841,-97.1712 463,-76 443.21,-49.5511 482.719,-32.1324 520.341,-22.0444"/>
<polygon fill="midnightblue" stroke="midnightblue" points="521.503,-25.3609 530.339,-19.5144 519.786,-18.5748 521.503,-25.3609"/>
</g>
<!-- Node18 -->
<g id="node18" class="node"><title>Node18</title>
<g id="a_node18"><a xlink:href="frames_8h.html" target="_top" xlink:title="frames.h">
<polygon fill="white" stroke="black" points="746.5,-56.5 746.5,-75.5 801.5,-75.5 801.5,-56.5 746.5,-56.5"/>
<text text-anchor="middle" x="774" y="-63.5" font-family="Helvetica,sans-Serif" font-size="10.00">frames.h</text>
</a>
</g>
</g>
<!-- Node8&#45;&gt;Node18 -->
<g id="edge20" class="edge"><title>Node8&#45;&gt;Node18</title>
<path fill="none" stroke="midnightblue" d="M637.638,-113.605C663.872,-104.639 708.417,-89.4144 739.428,-78.8157"/>
<polygon fill="midnightblue" stroke="midnightblue" points="740.65,-82.0969 748.981,-75.5509 738.386,-75.4731 740.65,-82.0969"/>
</g>
<!-- Node19 -->
<g id="node19" class="node"><title>Node19</title>
<g id="a_node19"><a xlink:href="sudp_8h.html" target="_top" xlink:title="sudp.h">
<polygon fill="white" stroke="black" points="370,-56.5 370,-75.5 416,-75.5 416,-56.5 370,-56.5"/>
<text text-anchor="middle" x="393" y="-63.5" font-family="Helvetica,sans-Serif" font-size="10.00">sudp.h</text>
</a>
</g>
</g>
<!-- Node8&#45;&gt;Node19 -->
<g id="edge21" class="edge"><title>Node8&#45;&gt;Node19</title>
<path fill="none" stroke="midnightblue" d="M594.235,-115.744C559.505,-107.354 489.408,-90.4117 430,-76 428.735,-75.6932 427.446,-75.3803 426.144,-75.0641"/>
<polygon fill="midnightblue" stroke="midnightblue" points="426.635,-71.5817 416.092,-72.6215 424.982,-78.3838 426.635,-71.5817"/>
</g>
<!-- Node19&#45;&gt;Node5 -->
<g id="edge22" class="edge"><title>Node19&#45;&gt;Node5</title>
<path fill="none" stroke="midnightblue" d="M369.825,-61.8988C309.845,-53.8424 149.751,-32.1388 78.1313,-20.0796"/>
<polygon fill="midnightblue" stroke="midnightblue" points="78.678,-16.6223 68.2289,-18.3731 77.4892,-23.5206 78.678,-16.6223"/>
</g>
<!-- Node19&#45;&gt;Node6 -->
<g id="edge26" class="edge"><title>Node19&#45;&gt;Node6</title>
<path fill="none" stroke="midnightblue" d="M416.314,-61.8418C429.919,-60.0391 447.419,-57.7891 463,-56 620.991,-37.8585 661.554,-42.3827 819,-20 823.287,-19.3906 827.771,-18.6753 832.211,-17.9189"/>
<polygon fill="midnightblue" stroke="midnightblue" points="833.147,-21.3076 842.379,-16.1098 831.92,-14.4158 833.147,-21.3076"/>
</g>
<!-- Node19&#45;&gt;Node11 -->
<g id="edge30" class="edge"><title>Node19&#45;&gt;Node11</title>
<path fill="none" stroke="midnightblue" d="M416.245,-61.459C459.169,-54.7355 553.644,-39.0739 632,-20 632.099,-19.9759 632.198,-19.9516 632.298,-19.9273"/>
<polygon fill="midnightblue" stroke="midnightblue" points="632.995,-23.3641 641.746,-17.3916 631.181,-16.6033 632.995,-23.3641"/>
</g>
<!-- Node19&#45;&gt;Node14 -->
<g id="edge32" class="edge"><title>Node19&#45;&gt;Node14</title>
<path fill="none" stroke="midnightblue" d="M416.224,-62.019C473.83,-54.5448 622.924,-34.6924 690.645,-19.627"/>
<polygon fill="midnightblue" stroke="midnightblue" points="691.465,-23.0296 700.407,-17.347 689.873,-16.213 691.465,-23.0296"/>
</g>
<!-- Node19&#45;&gt;Node15 -->
<g id="edge33" class="edge"><title>Node19&#45;&gt;Node15</title>
<path fill="none" stroke="midnightblue" d="M416.015,-62.0383C429.67,-60.2817 447.322,-58.0121 463,-56 587.885,-39.9719 619.747,-40.3589 744,-20 748.246,-19.3043 752.702,-18.5017 757.092,-17.6682"/>
<polygon fill="midnightblue" stroke="midnightblue" points="757.947,-21.0673 767.083,-15.7031 756.596,-14.1989 757.947,-21.0673"/>
</g>
<!-- Node19&#45;&gt;Node16 -->
<g id="edge29" class="edge"><title>Node19&#45;&gt;Node16</title>
<path fill="none" stroke="midnightblue" d="M369.967,-59.1175C365.355,-58.0188 360.534,-56.9262 356,-56 263.302,-37.0639 236.072,-41.3549 140.091,-20.0244"/>
<polygon fill="midnightblue" stroke="midnightblue" points="140.794,-16.5952 130.269,-17.8065 139.252,-23.4232 140.794,-16.5952"/>
</g>
<!-- Node19&#45;&gt;Node17 -->
<g id="edge31" class="edge"><title>Node19&#45;&gt;Node17</title>
<path fill="none" stroke="midnightblue" d="M416.177,-58.1609C446.595,-49.1852 500.416,-33.3034 537.122,-22.4722"/>
<polygon fill="midnightblue" stroke="midnightblue" points="538.387,-25.7483 546.987,-19.5611 536.406,-19.0345 538.387,-25.7483"/>
</g>
<!-- Node20 -->
<g id="node20" class="node"><title>Node20</title>
<polygon fill="white" stroke="#bfbfbf" points="437.5,-0.5 437.5,-19.5 510.5,-19.5 510.5,-0.5 437.5,-0.5"/>
<text text-anchor="middle" x="474" y="-7.5" font-family="Helvetica,sans-Serif" font-size="10.00">sys/socket.h</text>
</g>
<!-- Node19&#45;&gt;Node20 -->
<g id="edge23" class="edge"><title>Node19&#45;&gt;Node20</title>
<path fill="none" stroke="midnightblue" d="M406.014,-56.324C418.532,-47.979 437.682,-35.2122 452.471,-25.3524"/>
<polygon fill="midnightblue" stroke="midnightblue" points="454.639,-28.1137 461.018,-19.6545 450.756,-22.2894 454.639,-28.1137"/>
</g>
<!-- Node21 -->
<g id="node21" class="node"><title>Node21</title>
<polygon fill="white" stroke="#bfbfbf" points="148,-0.5 148,-19.5 210,-19.5 210,-0.5 148,-0.5"/>
<text text-anchor="middle" x="179" y="-7.5" font-family="Helvetica,sans-Serif" font-size="10.00">arpa/inet.h</text>
</g>
<!-- Node19&#45;&gt;Node21 -->
<g id="edge24" class="edge"><title>Node19&#45;&gt;Node21</title>
<path fill="none" stroke="midnightblue" d="M369.691,-59.1183C333.812,-50.0648 264.557,-32.5892 220.12,-21.3761"/>
<polygon fill="midnightblue" stroke="midnightblue" points="220.767,-17.9298 210.215,-18.8767 219.055,-24.717 220.767,-17.9298"/>
</g>
<!-- Node22 -->
<g id="node22" class="node"><title>Node22</title>
<polygon fill="white" stroke="#bfbfbf" points="228.5,-0.5 228.5,-19.5 293.5,-19.5 293.5,-0.5 228.5,-0.5"/>
<text text-anchor="middle" x="261" y="-7.5" font-family="Helvetica,sans-Serif" font-size="10.00">netinet/in.h</text>
</g>
<!-- Node19&#45;&gt;Node22 -->
<g id="edge25" class="edge"><title>Node19&#45;&gt;Node22</title>
<path fill="none" stroke="midnightblue" d="M372.084,-56.4435C350.264,-47.5171 315.85,-33.4387 291.108,-23.3168"/>
<polygon fill="midnightblue" stroke="midnightblue" points="292.399,-20.0634 281.818,-19.5164 289.748,-26.5422 292.399,-20.0634"/>
</g>
<!-- Node23 -->
<g id="node23" class="node"><title>Node23</title>
<polygon fill="white" stroke="#bfbfbf" points="311.5,-0.5 311.5,-19.5 354.5,-19.5 354.5,-0.5 311.5,-0.5"/>
<text text-anchor="middle" x="333" y="-7.5" font-family="Helvetica,sans-Serif" font-size="10.00">cstdio</text>
</g>
<!-- Node19&#45;&gt;Node23 -->
<g id="edge27" class="edge"><title>Node19&#45;&gt;Node23</title>
<path fill="none" stroke="midnightblue" d="M383.36,-56.324C374.49,-48.3414 361.125,-36.3128 350.392,-26.6529"/>
<polygon fill="midnightblue" stroke="midnightblue" points="352.59,-23.922 342.815,-19.8339 347.907,-29.1251 352.59,-23.922"/>
</g>
<!-- Node24 -->
<g id="node24" class="node"><title>Node24</title>
<polygon fill="white" stroke="#bfbfbf" points="373,-0.5 373,-19.5 419,-19.5 419,-0.5 373,-0.5"/>
<text text-anchor="middle" x="396" y="-7.5" font-family="Helvetica,sans-Serif" font-size="10.00">stdio.h</text>
</g>
<!-- Node19&#45;&gt;Node24 -->
<g id="edge28" class="edge"><title>Node19&#45;&gt;Node24</title>
<path fill="none" stroke="midnightblue" d="M393.495,-56.083C393.889,-49.0059 394.452,-38.8611 394.945,-29.9865"/>
<polygon fill="midnightblue" stroke="midnightblue" points="398.454,-29.9299 395.514,-19.7511 391.464,-29.5415 398.454,-29.9299"/>
</g>
</g>
</svg>
