<?xml version="1.0" encoding="UTF-8" standalone="no"?>
<!DOCTYPE svg PUBLIC "-//W3C//DTD SVG 1.1//EN"
 "http://www.w3.org/Graphics/SVG/1.1/DTD/svg11.dtd">
<!-- Generated by graphviz version 2.38.0 (20140413.2041)
 -->
<!-- Title: azul.h Pages: 1 -->
<svg width="913pt" height="140pt"
 viewBox="0.00 0.00 913.00 140.00" xmlns="http://www.w3.org/2000/svg" xmlns:xlink="http://www.w3.org/1999/xlink">
<g id="graph0" class="graph" transform="scale(1 1) rotate(0) translate(4 136)">
<title>azul.h</title>
<polygon fill="white" stroke="none" points="-4,4 -4,-136 909,-136 909,4 -4,4"/>
<!-- Node1 -->
<g id="node1" class="node"><title>Node1</title>
<polygon fill="#bfbfbf" stroke="black" points="285.5,-112.5 285.5,-131.5 328.5,-131.5 328.5,-112.5 285.5,-112.5"/>
<text text-anchor="middle" x="307" y="-119.5" font-family="Helvetica,sans-Serif" font-size="10.00">azul.h</text>
</g>
<!-- Node2 -->
<g id="node2" class="node"><title>Node2</title>
<polygon fill="white" stroke="#bfbfbf" points="0,-56.5 0,-75.5 44,-75.5 44,-56.5 0,-56.5"/>
<text text-anchor="middle" x="22" y="-63.5" font-family="Helvetica,sans-Serif" font-size="10.00">thread</text>
</g>
<!-- Node1&#45;&gt;Node2 -->
<g id="edge1" class="edge"><title>Node1&#45;&gt;Node2</title>
<path fill="none" stroke="midnightblue" d="M285.434,-117.977C242.981,-111.859 145.449,-96.9674 54.22,-76.0835"/>
<polygon fill="midnightblue" stroke="midnightblue" points="54.808,-72.627 44.2757,-73.7769 53.2263,-79.446 54.808,-72.627"/>
</g>
<!-- Node3 -->
<g id="node3" class="node"><title>Node3</title>
<polygon fill="white" stroke="#bfbfbf" points="62,-56.5 62,-75.5 108,-75.5 108,-56.5 62,-56.5"/>
<text text-anchor="middle" x="85" y="-63.5" font-family="Helvetica,sans-Serif" font-size="10.00">chrono</text>
</g>
<!-- Node1&#45;&gt;Node3 -->
<g id="edge2" class="edge"><title>Node1&#45;&gt;Node3</title>
<path fill="none" stroke="midnightblue" d="M285.309,-115.724C246.258,-106.225 163.913,-86.195 117.89,-75.0004"/>
<polygon fill="midnightblue" stroke="midnightblue" points="118.65,-71.5831 108.106,-72.6204 116.995,-78.3848 118.65,-71.5831"/>
</g>
<!-- Node4 -->
<g id="node4" class="node"><title>Node4</title>
<polygon fill="white" stroke="#bfbfbf" points="38,-0.5 38,-19.5 78,-19.5 78,-0.5 38,-0.5"/>
<text text-anchor="middle" x="58" y="-7.5" font-family="Helvetica,sans-Serif" font-size="10.00">utility</text>
</g>
<!-- Node1&#45;&gt;Node4 -->
<g id="edge3" class="edge"><title>Node1&#45;&gt;Node4</title>
<path fill="none" stroke="midnightblue" d="M285.285,-113.762C260.838,-105.42 220.077,-90.9313 186,-76 149.159,-59.8579 107.899,-38.2364 82.4329,-24.4589"/>
<polygon fill="midnightblue" stroke="midnightblue" points="83.9445,-21.2969 73.488,-19.5904 80.5981,-27.4452 83.9445,-21.2969"/>
</g>
<!-- Node5 -->
<g id="node5" class="node"><title>Node5</title>
<polygon fill="white" stroke="#bfbfbf" points="418,-56.5 418,-75.5 470,-75.5 470,-56.5 418,-56.5"/>
<text text-anchor="middle" x="444" y="-63.5" font-family="Helvetica,sans-Serif" font-size="10.00">sstream</text>
</g>
<!-- Node1&#45;&gt;Node5 -->
<g id="edge4" class="edge"><title>Node1&#45;&gt;Node5</title>
<path fill="none" stroke="midnightblue" d="M328.708,-112.444C351.355,-103.517 387.072,-89.4387 412.752,-79.3168"/>
<polygon fill="midnightblue" stroke="midnightblue" points="414.374,-82.4397 422.394,-75.5164 411.807,-75.9273 414.374,-82.4397"/>
</g>
<!-- Node6 -->
<g id="node6" class="node"><title>Node6</title>
<polygon fill="white" stroke="#bfbfbf" points="488,-56.5 488,-75.5 534,-75.5 534,-56.5 488,-56.5"/>
<text text-anchor="middle" x="511" y="-63.5" font-family="Helvetica,sans-Serif" font-size="10.00">cstring</text>
</g>
<!-- Node1&#45;&gt;Node6 -->
<g id="edge5" class="edge"><title>Node1&#45;&gt;Node6</title>
<path fill="none" stroke="midnightblue" d="M328.755,-115.444C359.703,-107.511 418.455,-92.345 477.995,-76.2372"/>
<polygon fill="midnightblue" stroke="midnightblue" points="479.207,-79.5351 487.942,-73.5394 477.374,-72.7792 479.207,-79.5351"/>
</g>
<!-- Node7 -->
<g id="node7" class="node"><title>Node7</title>
<polygon fill="white" stroke="#bfbfbf" points="552.5,-56.5 552.5,-75.5 593.5,-75.5 593.5,-56.5 552.5,-56.5"/>
<text text-anchor="middle" x="573" y="-63.5" font-family="Helvetica,sans-Serif" font-size="10.00">string</text>
</g>
<!-- Node1&#45;&gt;Node7 -->
<g id="edge6" class="edge"><title>Node1&#45;&gt;Node7</title>
<path fill="none" stroke="midnightblue" d="M328.636,-117.641C368.828,-111.239 457.869,-96.2949 542.641,-75.8648"/>
<polygon fill="midnightblue" stroke="midnightblue" points="543.535,-79.2494 552.42,-73.4784 541.875,-72.4489 543.535,-79.2494"/>
</g>
<!-- Node8 -->
<g id="node8" class="node"><title>Node8</title>
<polygon fill="white" stroke="#bfbfbf" points="96.5,-0.5 96.5,-19.5 131.5,-19.5 131.5,-0.5 96.5,-0.5"/>
<text text-anchor="middle" x="114" y="-7.5" font-family="Helvetica,sans-Serif" font-size="10.00">map</text>
</g>
<!-- Node1&#45;&gt;Node8 -->
<g id="edge7" class="edge"><title>Node1&#45;&gt;Node8</title>
<path fill="none" stroke="midnightblue" d="M290.46,-112.426C273.431,-103.531 246.184,-89.1137 223,-76 192.795,-58.9153 158.499,-38.2494 136.578,-24.8757"/>
<polygon fill="midnightblue" stroke="midnightblue" points="138.346,-21.8544 127.989,-19.6222 134.693,-27.8259 138.346,-21.8544"/>
</g>
<!-- Node9 -->
<g id="node9" class="node"><title>Node9</title>
<polygon fill="white" stroke="#bfbfbf" points="149.5,-0.5 149.5,-19.5 192.5,-19.5 192.5,-0.5 149.5,-0.5"/>
<text text-anchor="middle" x="171" y="-7.5" font-family="Helvetica,sans-Serif" font-size="10.00">queue</text>
</g>
<!-- Node1&#45;&gt;Node9 -->
<g id="edge8" class="edge"><title>Node1&#45;&gt;Node9</title>
<path fill="none" stroke="midnightblue" d="M296.328,-112.368C273.289,-93.7334 218.64,-49.5324 189.711,-26.1338"/>
<polygon fill="midnightblue" stroke="midnightblue" points="191.598,-23.1589 181.622,-19.5914 187.196,-28.6014 191.598,-23.1589"/>
</g>
<!-- Node10 -->
<g id="node10" class="node"><title>Node10</title>
<polygon fill="white" stroke="#bfbfbf" points="612,-56.5 612,-75.5 666,-75.5 666,-56.5 612,-56.5"/>
<text text-anchor="middle" x="639" y="-63.5" font-family="Helvetica,sans-Serif" font-size="10.00">iostream</text>
</g>
<!-- Node1&#45;&gt;Node10 -->
<g id="edge9" class="edge"><title>Node1&#45;&gt;Node10</title>
<path fill="none" stroke="midnightblue" d="M328.663,-118.417C376.256,-112.591 493.672,-97.3996 601.834,-76.0716"/>
<polygon fill="midnightblue" stroke="midnightblue" points="602.813,-79.4454 611.935,-74.0563 601.443,-72.5807 602.813,-79.4454"/>
</g>
<!-- Node11 -->
<g id="node11" class="node"><title>Node11</title>
<polygon fill="white" stroke="#bfbfbf" points="210.5,-0.5 210.5,-19.5 261.5,-19.5 261.5,-0.5 210.5,-0.5"/>
<text text-anchor="middle" x="236" y="-7.5" font-family="Helvetica,sans-Serif" font-size="10.00">unistd.h</text>
</g>
<!-- Node1&#45;&gt;Node11 -->
<g id="edge10" class="edge"><title>Node1&#45;&gt;Node11</title>
<path fill="none" stroke="midnightblue" d="M301.429,-112.368C289.764,-94.2957 262.577,-52.1764 247.171,-28.3074"/>
<polygon fill="midnightblue" stroke="midnightblue" points="249.909,-26.0952 241.545,-19.5914 244.028,-29.8913 249.909,-26.0952"/>
</g>
<!-- Node12 -->
<g id="node12" class="node"><title>Node12</title>
<polygon fill="white" stroke="#bfbfbf" points="280,-0.5 280,-19.5 324,-19.5 324,-0.5 280,-0.5"/>
<text text-anchor="middle" x="302" y="-7.5" font-family="Helvetica,sans-Serif" font-size="10.00">mutex</text>
</g>
<!-- Node1&#45;&gt;Node12 -->
<g id="edge11" class="edge"><title>Node1&#45;&gt;Node12</title>
<path fill="none" stroke="midnightblue" d="M306.608,-112.368C305.801,-94.617 303.939,-53.6664 302.845,-29.5974"/>
<polygon fill="midnightblue" stroke="midnightblue" points="306.341,-29.4221 302.391,-19.5914 299.348,-29.7401 306.341,-29.4221"/>
</g>
<!-- Node13 -->
<g id="node13" class="node"><title>Node13</title>
<polygon fill="white" stroke="#bfbfbf" points="342.5,-0.5 342.5,-19.5 437.5,-19.5 437.5,-0.5 342.5,-0.5"/>
<text text-anchor="middle" x="390" y="-7.5" font-family="Helvetica,sans-Serif" font-size="10.00">condition_variable</text>
</g>
<!-- Node1&#45;&gt;Node13 -->
<g id="edge12" class="edge"><title>Node1&#45;&gt;Node13</title>
<path fill="none" stroke="midnightblue" d="M311.258,-112.14C317.679,-99.1953 330.626,-74.6278 345,-56 353.165,-45.4187 363.662,-34.7895 372.463,-26.5203"/>
<polygon fill="midnightblue" stroke="midnightblue" points="374.944,-28.9942 379.954,-19.6587 370.216,-23.8324 374.944,-28.9942"/>
</g>
<!-- Node14 -->
<g id="node14" class="node"><title>Node14</title>
<g id="a_node14"><a xlink:href="frames_8h.html" target="_top" xlink:title="frames.h">
<polygon fill="white" stroke="black" points="684.5,-56.5 684.5,-75.5 739.5,-75.5 739.5,-56.5 684.5,-56.5"/>
<text text-anchor="middle" x="712" y="-63.5" font-family="Helvetica,sans-Serif" font-size="10.00">frames.h</text>
</a>
</g>
</g>
<!-- Node1&#45;&gt;Node14 -->
<g id="edge13" class="edge"><title>Node1&#45;&gt;Node14</title>
<path fill="none" stroke="midnightblue" d="M328.702,-119.239C384.419,-114.531 537.166,-100.438 674.346,-75.9164"/>
<polygon fill="midnightblue" stroke="midnightblue" points="674.978,-79.3589 684.194,-74.1327 673.731,-72.4709 674.978,-79.3589"/>
</g>
<!-- Node15 -->
<g id="node15" class="node"><title>Node15</title>
<g id="a_node15"><a xlink:href="sudp_8h.html" target="_top" xlink:title="sudp.h">
<polygon fill="white" stroke="black" points="354,-56.5 354,-75.5 400,-75.5 400,-56.5 354,-56.5"/>
<text text-anchor="middle" x="377" y="-63.5" font-family="Helvetica,sans-Serif" font-size="10.00">sudp.h</text>
</a>
</g>
</g>
<!-- Node1&#45;&gt;Node15 -->
<g id="edge14" class="edge"><title>Node1&#45;&gt;Node15</title>
<path fill="none" stroke="midnightblue" d="M318.247,-112.324C328.797,-104.185 344.801,-91.8395 357.442,-82.0874"/>
<polygon fill="midnightblue" stroke="midnightblue" points="359.769,-84.7132 365.549,-75.8339 355.493,-79.1707 359.769,-84.7132"/>
</g>
<!-- Node15&#45;&gt;Node4 -->
<g id="edge23" class="edge"><title>Node15&#45;&gt;Node4</title>
<path fill="none" stroke="midnightblue" d="M353.848,-62.5787C305.954,-57.3225 192.427,-43.584 88.2298,-19.9916"/>
<polygon fill="midnightblue" stroke="midnightblue" points="88.7081,-16.5102 78.1778,-17.6776 87.1377,-23.3318 88.7081,-16.5102"/>
</g>
<!-- Node15&#45;&gt;Node8 -->
<g id="edge25" class="edge"><title>Node15&#45;&gt;Node8</title>
<path fill="none" stroke="midnightblue" d="M353.871,-61.7539C312.805,-55.7476 224.372,-41.722 141.348,-20.0597"/>
<polygon fill="midnightblue" stroke="midnightblue" points="142.078,-16.6324 131.515,-17.4508 140.283,-23.3983 142.078,-16.6324"/>
</g>
<!-- Node15&#45;&gt;Node9 -->
<g id="edge26" class="edge"><title>Node15&#45;&gt;Node9</title>
<path fill="none" stroke="midnightblue" d="M353.856,-59.4046C321.908,-51.6114 262.273,-36.8174 202.567,-20.3588"/>
<polygon fill="midnightblue" stroke="midnightblue" points="203.171,-16.8943 192.599,-17.5955 201.301,-23.6399 203.171,-16.8943"/>
</g>
<!-- Node15&#45;&gt;Node11 -->
<g id="edge19" class="edge"><title>Node15&#45;&gt;Node11</title>
<path fill="none" stroke="midnightblue" d="M354.658,-56.4435C331.247,-47.4776 294.264,-33.314 267.81,-23.1827"/>
<polygon fill="midnightblue" stroke="midnightblue" points="268.828,-19.8245 258.237,-19.5164 266.324,-26.3615 268.828,-19.8245"/>
</g>
<!-- Node15&#45;&gt;Node12 -->
<g id="edge22" class="edge"><title>Node15&#45;&gt;Node12</title>
<path fill="none" stroke="midnightblue" d="M364.95,-56.324C353.537,-48.1066 336.169,-35.6017 322.565,-25.8069"/>
<polygon fill="midnightblue" stroke="midnightblue" points="324.43,-22.8366 314.269,-19.8339 320.34,-28.5174 324.43,-22.8366"/>
</g>
<!-- Node15&#45;&gt;Node13 -->
<g id="edge24" class="edge"><title>Node15&#45;&gt;Node13</title>
<path fill="none" stroke="midnightblue" d="M379.147,-56.083C380.869,-48.9272 383.347,-38.6353 385.5,-29.6911"/>
<polygon fill="midnightblue" stroke="midnightblue" points="388.955,-30.2925 387.893,-19.7511 382.15,-28.6541 388.955,-30.2925"/>
</g>
<!-- Node16 -->
<g id="node16" class="node"><title>Node16</title>
<polygon fill="white" stroke="#bfbfbf" points="456,-0.5 456,-19.5 524,-19.5 524,-0.5 456,-0.5"/>
<text text-anchor="middle" x="490" y="-7.5" font-family="Helvetica,sans-Serif" font-size="10.00">sys/types.h</text>
</g>
<!-- Node15&#45;&gt;Node16 -->
<g id="edge15" class="edge"><title>Node15&#45;&gt;Node16</title>
<path fill="none" stroke="midnightblue" d="M394.905,-56.4435C413.254,-47.6751 442.005,-33.9355 463.094,-23.8579"/>
<polygon fill="midnightblue" stroke="midnightblue" points="464.665,-26.9862 472.179,-19.5164 461.647,-20.6703 464.665,-26.9862"/>
</g>
<!-- Node17 -->
<g id="node17" class="node"><title>Node17</title>
<polygon fill="white" stroke="#bfbfbf" points="542.5,-0.5 542.5,-19.5 615.5,-19.5 615.5,-0.5 542.5,-0.5"/>
<text text-anchor="middle" x="579" y="-7.5" font-family="Helvetica,sans-Serif" font-size="10.00">sys/socket.h</text>
</g>
<!-- Node15&#45;&gt;Node17 -->
<g id="edge16" class="edge"><title>Node15&#45;&gt;Node17</title>
<path fill="none" stroke="midnightblue" d="M400.06,-58.4686C403.066,-57.6308 406.105,-56.7902 409,-56 452.293,-44.1828 501.916,-31.1002 536.327,-22.1014"/>
<polygon fill="midnightblue" stroke="midnightblue" points="537.261,-25.4748 546.052,-19.561 535.492,-18.7021 537.261,-25.4748"/>
</g>
<!-- Node18 -->
<g id="node18" class="node"><title>Node18</title>
<polygon fill="white" stroke="#bfbfbf" points="634,-0.5 634,-19.5 696,-19.5 696,-0.5 634,-0.5"/>
<text text-anchor="middle" x="665" y="-7.5" font-family="Helvetica,sans-Serif" font-size="10.00">arpa/inet.h</text>
</g>
<!-- Node15&#45;&gt;Node18 -->
<g id="edge17" class="edge"><title>Node15&#45;&gt;Node18</title>
<path fill="none" stroke="midnightblue" d="M400.344,-58.1172C403.247,-57.3552 406.184,-56.6287 409,-56 500.925,-35.4769 527.771,-38.4643 623.767,-20.1444"/>
<polygon fill="midnightblue" stroke="midnightblue" points="624.44,-23.5793 633.592,-18.2418 623.109,-16.7069 624.44,-23.5793"/>
</g>
<!-- Node19 -->
<g id="node19" class="node"><title>Node19</title>
<polygon fill="white" stroke="#bfbfbf" points="714.5,-0.5 714.5,-19.5 779.5,-19.5 779.5,-0.5 714.5,-0.5"/>
<text text-anchor="middle" x="747" y="-7.5" font-family="Helvetica,sans-Serif" font-size="10.00">netinet/in.h</text>
</g>
<!-- Node15&#45;&gt;Node19 -->
<g id="edge18" class="edge"><title>Node15&#45;&gt;Node19</title>
<path fill="none" stroke="midnightblue" d="M400.318,-57.9963C403.226,-57.255 406.171,-56.5665 409,-56 535.774,-30.6187 572.516,-41.3466 704.412,-19.9362"/>
<polygon fill="midnightblue" stroke="midnightblue" points="705.202,-23.3533 714.496,-18.2674 704.059,-16.4472 705.202,-23.3533"/>
</g>
<!-- Node20 -->
<g id="node20" class="node"><title>Node20</title>
<polygon fill="white" stroke="#bfbfbf" points="797.5,-0.5 797.5,-19.5 840.5,-19.5 840.5,-0.5 797.5,-0.5"/>
<text text-anchor="middle" x="819" y="-7.5" font-family="Helvetica,sans-Serif" font-size="10.00">cstdio</text>
</g>
<!-- Node15&#45;&gt;Node20 -->
<g id="edge20" class="edge"><title>Node15&#45;&gt;Node20</title>
<path fill="none" stroke="midnightblue" d="M400.304,-57.9232C403.214,-57.1944 406.163,-56.5288 409,-56 572.515,-25.5165 620.632,-51.4747 787.389,-19.9568"/>
<polygon fill="midnightblue" stroke="midnightblue" points="788.343,-23.3372 797.497,-18.0039 787.015,-16.4643 788.343,-23.3372"/>
</g>
<!-- Node21 -->
<g id="node21" class="node"><title>Node21</title>
<polygon fill="white" stroke="#bfbfbf" points="859,-0.5 859,-19.5 905,-19.5 905,-0.5 859,-0.5"/>
<text text-anchor="middle" x="882" y="-7.5" font-family="Helvetica,sans-Serif" font-size="10.00">stdio.h</text>
</g>
<!-- Node15&#45;&gt;Node21 -->
<g id="edge21" class="edge"><title>Node15&#45;&gt;Node21</title>
<path fill="none" stroke="midnightblue" d="M400.298,-57.8873C403.209,-57.1647 406.16,-56.5104 409,-56 599.338,-21.7948 654.621,-53.687 848.75,-19.8816"/>
<polygon fill="midnightblue" stroke="midnightblue" points="849.469,-23.3088 858.702,-18.1127 848.244,-16.4168 849.469,-23.3088"/>
</g>
</g>
</svg>
