<?xml version="1.0" encoding="UTF-8" standalone="no"?>
<!DOCTYPE svg PUBLIC "-//W3C//DTD SVG 1.1//EN"
 "http://www.w3.org/Graphics/SVG/1.1/DTD/svg11.dtd">
<!-- Generated by graphviz version 2.38.0 (20140413.2041)
 -->
<!-- Title: azul.h Pages: 1 -->
<svg width="186pt" height="84pt"
 viewBox="0.00 0.00 186.00 84.00" xmlns="http://www.w3.org/2000/svg" xmlns:xlink="http://www.w3.org/1999/xlink">
<g id="graph0" class="graph" transform="scale(1 1) rotate(0) translate(4 80)">
<title>azul.h</title>
<polygon fill="white" stroke="none" points="-4,4 -4,-80 182,-80 182,4 -4,4"/>
<!-- Node1 -->
<g id="node1" class="node"><title>Node1</title>
<polygon fill="#bfbfbf" stroke="black" points="54,-56.5 54,-75.5 97,-75.5 97,-56.5 54,-56.5"/>
<text text-anchor="middle" x="75.5" y="-63.5" font-family="Helvetica,sans-Serif" font-size="10.00">azul.h</text>
</g>
<!-- Node2 -->
<g id="node2" class="node"><title>Node2</title>
<g id="a_node2"><a xlink:href="azul_8cpp.html" target="_top" xlink:title="azul.cpp">
<polygon fill="white" stroke="black" points="0,-0.5 0,-19.5 53,-19.5 53,-0.5 0,-0.5"/>
<text text-anchor="middle" x="26.5" y="-7.5" font-family="Helvetica,sans-Serif" font-size="10.00">azul.cpp</text>
</a>
</g>
</g>
<!-- Node1&#45;&gt;Node2 -->
<g id="edge1" class="edge"><title>Node1&#45;&gt;Node2</title>
<path fill="none" stroke="midnightblue" d="M60.4655,-48.4314C51.8778,-38.9673 41.4565,-27.4827 34.4408,-19.7511"/>
<polygon fill="midnightblue" stroke="midnightblue" points="58.0967,-51.0293 67.4086,-56.083 63.2807,-46.3254 58.0967,-51.0293"/>
</g>
<!-- Node3 -->
<g id="node3" class="node"><title>Node3</title>
<g id="a_node3"><a xlink:href="azul__instantiator_8cpp.html" target="_top" xlink:title="azul_instantiator.cpp">
<polygon fill="white" stroke="black" points="71,-0.5 71,-19.5 178,-19.5 178,-0.5 71,-0.5"/>
<text text-anchor="middle" x="124.5" y="-7.5" font-family="Helvetica,sans-Serif" font-size="10.00">azul_instantiator.cpp</text>
</a>
</g>
</g>
<!-- Node1&#45;&gt;Node3 -->
<g id="edge2" class="edge"><title>Node1&#45;&gt;Node3</title>
<path fill="none" stroke="midnightblue" d="M90.5345,-48.4314C99.1222,-38.9673 109.543,-27.4827 116.559,-19.7511"/>
<polygon fill="midnightblue" stroke="midnightblue" points="87.7193,-46.3254 83.5914,-56.083 92.9033,-51.0293 87.7193,-46.3254"/>
</g>
</g>
</svg>
