<?xml version="1.0" encoding="UTF-8" standalone="no"?>
<!DOCTYPE svg PUBLIC "-//W3C//DTD SVG 1.1//EN"
 "http://www.w3.org/Graphics/SVG/1.1/DTD/svg11.dtd">
<!-- Generated by graphviz version 2.38.0 (20140413.2041)
 -->
<!-- Title: frames.h Pages: 1 -->
<svg width="406pt" height="140pt"
 viewBox="0.00 0.00 405.50 140.00" xmlns="http://www.w3.org/2000/svg" xmlns:xlink="http://www.w3.org/1999/xlink">
<g id="graph0" class="graph" transform="scale(1 1) rotate(0) translate(4 136)">
<title>frames.h</title>
<polygon fill="white" stroke="none" points="-4,4 -4,-136 401.5,-136 401.5,4 -4,4"/>
<!-- Node1 -->
<g id="node1" class="node"><title>Node1</title>
<polygon fill="#bfbfbf" stroke="black" points="149,-112.5 149,-131.5 204,-131.5 204,-112.5 149,-112.5"/>
<text text-anchor="middle" x="176.5" y="-119.5" font-family="Helvetica,sans-Serif" font-size="10.00">frames.h</text>
</g>
<!-- Node2 -->
<g id="node2" class="node"><title>Node2</title>
<g id="a_node2"><a xlink:href="azul_8h.html" target="_top" xlink:title="azul.h">
<polygon fill="white" stroke="black" points="103,-56.5 103,-75.5 146,-75.5 146,-56.5 103,-56.5"/>
<text text-anchor="middle" x="124.5" y="-63.5" font-family="Helvetica,sans-Serif" font-size="10.00">azul.h</text>
</a>
</g>
</g>
<!-- Node1&#45;&gt;Node2 -->
<g id="edge1" class="edge"><title>Node1&#45;&gt;Node2</title>
<path fill="none" stroke="midnightblue" d="M160.821,-104.718C151.655,-95.1997 140.447,-83.5608 132.927,-75.7511"/>
<polygon fill="midnightblue" stroke="midnightblue" points="158.456,-107.308 167.913,-112.083 163.498,-102.452 158.456,-107.308"/>
</g>
<!-- Node5 -->
<g id="node5" class="node"><title>Node5</title>
<g id="a_node5"><a xlink:href="orange_8h.html" target="_top" xlink:title="orange.h">
<polygon fill="white" stroke="black" points="201.5,-56.5 201.5,-75.5 255.5,-75.5 255.5,-56.5 201.5,-56.5"/>
<text text-anchor="middle" x="228.5" y="-63.5" font-family="Helvetica,sans-Serif" font-size="10.00">orange.h</text>
</a>
</g>
</g>
<!-- Node1&#45;&gt;Node5 -->
<g id="edge4" class="edge"><title>Node1&#45;&gt;Node5</title>
<path fill="none" stroke="midnightblue" d="M192.179,-104.718C201.345,-95.1997 212.553,-83.5608 220.073,-75.7511"/>
<polygon fill="midnightblue" stroke="midnightblue" points="189.502,-102.452 185.087,-112.083 194.544,-107.308 189.502,-102.452"/>
</g>
<!-- Node3 -->
<g id="node3" class="node"><title>Node3</title>
<g id="a_node3"><a xlink:href="azul_8cpp.html" target="_top" xlink:title="azul.cpp">
<polygon fill="white" stroke="black" points="0,-0.5 0,-19.5 53,-19.5 53,-0.5 0,-0.5"/>
<text text-anchor="middle" x="26.5" y="-7.5" font-family="Helvetica,sans-Serif" font-size="10.00">azul.cpp</text>
</a>
</g>
</g>
<!-- Node2&#45;&gt;Node3 -->
<g id="edge2" class="edge"><title>Node2&#45;&gt;Node3</title>
<path fill="none" stroke="midnightblue" d="M99.9139,-51.4526C81.8219,-41.4835 57.7654,-28.2279 42.2063,-19.6545"/>
<polygon fill="midnightblue" stroke="midnightblue" points="98.3071,-54.5633 108.755,-56.324 101.685,-48.4324 98.3071,-54.5633"/>
</g>
<!-- Node4 -->
<g id="node4" class="node"><title>Node4</title>
<g id="a_node4"><a xlink:href="azul__instantiator_8cpp.html" target="_top" xlink:title="azul_instantiator.cpp">
<polygon fill="white" stroke="black" points="71,-0.5 71,-19.5 178,-19.5 178,-0.5 71,-0.5"/>
<text text-anchor="middle" x="124.5" y="-7.5" font-family="Helvetica,sans-Serif" font-size="10.00">azul_instantiator.cpp</text>
</a>
</g>
</g>
<!-- Node2&#45;&gt;Node4 -->
<g id="edge3" class="edge"><title>Node2&#45;&gt;Node4</title>
<path fill="none" stroke="midnightblue" d="M124.5,-45.8045C124.5,-36.9102 124.5,-26.7798 124.5,-19.7511"/>
<polygon fill="midnightblue" stroke="midnightblue" points="121,-46.083 124.5,-56.083 128,-46.083 121,-46.083"/>
</g>
<!-- Node6 -->
<g id="node6" class="node"><title>Node6</title>
<g id="a_node6"><a xlink:href="orange_8cpp.html" target="_top" xlink:title="orange.cpp">
<polygon fill="white" stroke="black" points="196,-0.5 196,-19.5 261,-19.5 261,-0.5 196,-0.5"/>
<text text-anchor="middle" x="228.5" y="-7.5" font-family="Helvetica,sans-Serif" font-size="10.00">orange.cpp</text>
</a>
</g>
</g>
<!-- Node5&#45;&gt;Node6 -->
<g id="edge5" class="edge"><title>Node5&#45;&gt;Node6</title>
<path fill="none" stroke="midnightblue" d="M228.5,-45.8045C228.5,-36.9102 228.5,-26.7798 228.5,-19.7511"/>
<polygon fill="midnightblue" stroke="midnightblue" points="225,-46.083 228.5,-56.083 232,-46.083 225,-46.083"/>
</g>
<!-- Node7 -->
<g id="node7" class="node"><title>Node7</title>
<g id="a_node7"><a xlink:href="orange__instantiator_8cpp.html" target="_top" xlink:title="orange_instantiator.cpp">
<polygon fill="white" stroke="black" points="279.5,-0.5 279.5,-19.5 397.5,-19.5 397.5,-0.5 279.5,-0.5"/>
<text text-anchor="middle" x="338.5" y="-7.5" font-family="Helvetica,sans-Serif" font-size="10.00">orange_instantiator.cpp</text>
</a>
</g>
</g>
<!-- Node5&#45;&gt;Node7 -->
<g id="edge6" class="edge"><title>Node5&#45;&gt;Node7</title>
<path fill="none" stroke="midnightblue" d="M255.262,-51.8622C275.659,-41.8492 303.166,-28.3458 320.87,-19.6545"/>
<polygon fill="midnightblue" stroke="midnightblue" points="253.608,-48.7753 246.173,-56.324 256.692,-55.059 253.608,-48.7753"/>
</g>
</g>
</svg>
