<?xml version="1.0" encoding="UTF-8" standalone="no"?>
<!DOCTYPE svg PUBLIC "-//W3C//DTD SVG 1.1//EN"
 "http://www.w3.org/Graphics/SVG/1.1/DTD/svg11.dtd">
<!-- Generated by graphviz version 2.38.0 (20140413.2041)
 -->
<!-- Title: ip_converter.h Pages: 1 -->
<svg width="230pt" height="140pt"
 viewBox="0.00 0.00 230.00 140.00" xmlns="http://www.w3.org/2000/svg" xmlns:xlink="http://www.w3.org/1999/xlink">
<g id="graph0" class="graph" transform="scale(1 1) rotate(0) translate(4 136)">
<title>ip_converter.h</title>
<polygon fill="white" stroke="none" points="-4,4 -4,-136 226,-136 226,4 -4,4"/>
<!-- Node1 -->
<g id="node1" class="node"><title>Node1</title>
<polygon fill="#bfbfbf" stroke="black" points="93.5,-112.5 93.5,-131.5 171.5,-131.5 171.5,-112.5 93.5,-112.5"/>
<text text-anchor="middle" x="132.5" y="-119.5" font-family="Helvetica,sans-Serif" font-size="10.00">ip_converter.h</text>
</g>
<!-- Node2 -->
<g id="node2" class="node"><title>Node2</title>
<g id="a_node2"><a xlink:href="orange_8h.html" target="_top" xlink:title="orange.h">
<polygon fill="white" stroke="black" points="60.5,-56.5 60.5,-75.5 114.5,-75.5 114.5,-56.5 60.5,-56.5"/>
<text text-anchor="middle" x="87.5" y="-63.5" font-family="Helvetica,sans-Serif" font-size="10.00">orange.h</text>
</a>
</g>
</g>
<!-- Node1&#45;&gt;Node2 -->
<g id="edge1" class="edge"><title>Node1&#45;&gt;Node2</title>
<path fill="none" stroke="midnightblue" d="M118.453,-104.144C110.613,-94.7357 101.171,-83.4046 94.7926,-75.7511"/>
<polygon fill="midnightblue" stroke="midnightblue" points="115.979,-106.641 125.069,-112.083 121.356,-102.16 115.979,-106.641"/>
</g>
<!-- Node5 -->
<g id="node5" class="node"><title>Node5</title>
<g id="a_node5"><a xlink:href="ip__converter_8cpp.html" target="_top" xlink:title="ip_converter.cpp">
<polygon fill="white" stroke="black" points="133,-56.5 133,-75.5 222,-75.5 222,-56.5 133,-56.5"/>
<text text-anchor="middle" x="177.5" y="-63.5" font-family="Helvetica,sans-Serif" font-size="10.00">ip_converter.cpp</text>
</a>
</g>
</g>
<!-- Node1&#45;&gt;Node5 -->
<g id="edge4" class="edge"><title>Node1&#45;&gt;Node5</title>
<path fill="none" stroke="midnightblue" d="M146.547,-104.144C154.387,-94.7357 163.829,-83.4046 170.207,-75.7511"/>
<polygon fill="midnightblue" stroke="midnightblue" points="143.644,-102.16 139.931,-112.083 149.021,-106.641 143.644,-102.16"/>
</g>
<!-- Node3 -->
<g id="node3" class="node"><title>Node3</title>
<g id="a_node3"><a xlink:href="orange_8cpp.html" target="_top" xlink:title="orange.cpp">
<polygon fill="white" stroke="black" points="0,-0.5 0,-19.5 65,-19.5 65,-0.5 0,-0.5"/>
<text text-anchor="middle" x="32.5" y="-7.5" font-family="Helvetica,sans-Serif" font-size="10.00">orange.cpp</text>
</a>
</g>
</g>
<!-- Node2&#45;&gt;Node3 -->
<g id="edge2" class="edge"><title>Node2&#45;&gt;Node3</title>
<path fill="none" stroke="midnightblue" d="M71.2062,-49.0024C61.4594,-39.4329 49.447,-27.6389 41.4131,-19.7511"/>
<polygon fill="midnightblue" stroke="midnightblue" points="68.8301,-51.5746 78.4179,-56.083 73.7343,-46.5796 68.8301,-51.5746"/>
</g>
<!-- Node4 -->
<g id="node4" class="node"><title>Node4</title>
<g id="a_node4"><a xlink:href="orange__instantiator_8cpp.html" target="_top" xlink:title="orange_instantiator.cpp">
<polygon fill="white" stroke="black" points="83.5,-0.5 83.5,-19.5 201.5,-19.5 201.5,-0.5 83.5,-0.5"/>
<text text-anchor="middle" x="142.5" y="-7.5" font-family="Helvetica,sans-Serif" font-size="10.00">orange_instantiator.cpp</text>
</a>
</g>
</g>
<!-- Node2&#45;&gt;Node4 -->
<g id="edge3" class="edge"><title>Node2&#45;&gt;Node4</title>
<path fill="none" stroke="midnightblue" d="M103.794,-49.0024C113.541,-39.4329 125.553,-27.6389 133.587,-19.7511"/>
<polygon fill="midnightblue" stroke="midnightblue" points="101.266,-46.5796 96.5821,-56.083 106.17,-51.5746 101.266,-46.5796"/>
</g>
</g>
</svg>
