<?xml version="1.0" encoding="UTF-8" standalone="no"?>
<!DOCTYPE svg PUBLIC "-//W3C//DTD SVG 1.1//EN"
 "http://www.w3.org/Graphics/SVG/1.1/DTD/svg11.dtd">
<!-- Generated by graphviz version 2.38.0 (20140413.2041)
 -->
<!-- Title: orange_udp.h Pages: 1 -->
<svg width="661pt" height="84pt"
 viewBox="0.00 0.00 660.50 84.00" xmlns="http://www.w3.org/2000/svg" xmlns:xlink="http://www.w3.org/1999/xlink">
<g id="graph0" class="graph" transform="scale(1 1) rotate(0) translate(4 80)">
<title>orange_udp.h</title>
<polygon fill="white" stroke="none" points="-4,4 -4,-80 656.5,-80 656.5,4 -4,4"/>
<!-- Node1 -->
<g id="node1" class="node"><title>Node1</title>
<polygon fill="#bfbfbf" stroke="black" points="303.5,-56.5 303.5,-75.5 378.5,-75.5 378.5,-56.5 303.5,-56.5"/>
<text text-anchor="middle" x="341" y="-63.5" font-family="Helvetica,sans-Serif" font-size="10.00">orange_udp.h</text>
</g>
<!-- Node2 -->
<g id="node2" class="node"><title>Node2</title>
<polygon fill="white" stroke="#bfbfbf" points="0,-0.5 0,-19.5 54,-19.5 54,-0.5 0,-0.5"/>
<text text-anchor="middle" x="27" y="-7.5" font-family="Helvetica,sans-Serif" font-size="10.00">iostream</text>
</g>
<!-- Node1&#45;&gt;Node2 -->
<g id="edge1" class="edge"><title>Node1&#45;&gt;Node2</title>
<path fill="none" stroke="midnightblue" d="M303.495,-59.9558C251.8,-52.7787 155.558,-38.6132 64.0521,-20.0722"/>
<polygon fill="midnightblue" stroke="midnightblue" points="64.5696,-16.6056 54.0707,-18.0281 63.1652,-23.4633 64.5696,-16.6056"/>
</g>
<!-- Node3 -->
<g id="node3" class="node"><title>Node3</title>
<polygon fill="white" stroke="#bfbfbf" points="72.5,-0.5 72.5,-19.5 113.5,-19.5 113.5,-0.5 72.5,-0.5"/>
<text text-anchor="middle" x="93" y="-7.5" font-family="Helvetica,sans-Serif" font-size="10.00">string</text>
</g>
<!-- Node1&#45;&gt;Node3 -->
<g id="edge2" class="edge"><title>Node1&#45;&gt;Node3</title>
<path fill="none" stroke="midnightblue" d="M303.354,-58.2702C261.678,-50.5905 192.342,-37.1367 123.324,-19.8946"/>
<polygon fill="midnightblue" stroke="midnightblue" points="124.143,-16.4917 113.591,-17.4368 122.429,-23.2786 124.143,-16.4917"/>
</g>
<!-- Node4 -->
<g id="node4" class="node"><title>Node4</title>
<polygon fill="white" stroke="#bfbfbf" points="132,-0.5 132,-19.5 200,-19.5 200,-0.5 132,-0.5"/>
<text text-anchor="middle" x="166" y="-7.5" font-family="Helvetica,sans-Serif" font-size="10.00">sys/types.h</text>
</g>
<!-- Node1&#45;&gt;Node4 -->
<g id="edge3" class="edge"><title>Node1&#45;&gt;Node4</title>
<path fill="none" stroke="midnightblue" d="M313.271,-56.4435C283.574,-47.2801 236.284,-32.6876 203.331,-22.5192"/>
<polygon fill="midnightblue" stroke="midnightblue" points="204.187,-19.1206 193.6,-19.5164 202.123,-25.8094 204.187,-19.1206"/>
</g>
<!-- Node5 -->
<g id="node5" class="node"><title>Node5</title>
<polygon fill="white" stroke="#bfbfbf" points="218.5,-0.5 218.5,-19.5 291.5,-19.5 291.5,-0.5 218.5,-0.5"/>
<text text-anchor="middle" x="255" y="-7.5" font-family="Helvetica,sans-Serif" font-size="10.00">sys/socket.h</text>
</g>
<!-- Node1&#45;&gt;Node5 -->
<g id="edge4" class="edge"><title>Node1&#45;&gt;Node5</title>
<path fill="none" stroke="midnightblue" d="M327.183,-56.324C313.767,-47.9002 293.176,-34.9709 277.414,-25.0741"/>
<polygon fill="midnightblue" stroke="midnightblue" points="279.113,-22.0081 268.783,-19.6545 275.391,-27.9364 279.113,-22.0081"/>
</g>
<!-- Node6 -->
<g id="node6" class="node"><title>Node6</title>
<polygon fill="white" stroke="#bfbfbf" points="310,-0.5 310,-19.5 372,-19.5 372,-0.5 310,-0.5"/>
<text text-anchor="middle" x="341" y="-7.5" font-family="Helvetica,sans-Serif" font-size="10.00">arpa/inet.h</text>
</g>
<!-- Node1&#45;&gt;Node6 -->
<g id="edge5" class="edge"><title>Node1&#45;&gt;Node6</title>
<path fill="none" stroke="midnightblue" d="M341,-56.083C341,-49.0059 341,-38.8611 341,-29.9865"/>
<polygon fill="midnightblue" stroke="midnightblue" points="344.5,-29.751 341,-19.7511 337.5,-29.7511 344.5,-29.751"/>
</g>
<!-- Node7 -->
<g id="node7" class="node"><title>Node7</title>
<polygon fill="white" stroke="#bfbfbf" points="390.5,-0.5 390.5,-19.5 455.5,-19.5 455.5,-0.5 390.5,-0.5"/>
<text text-anchor="middle" x="423" y="-7.5" font-family="Helvetica,sans-Serif" font-size="10.00">netinet/in.h</text>
</g>
<!-- Node1&#45;&gt;Node7 -->
<g id="edge6" class="edge"><title>Node1&#45;&gt;Node7</title>
<path fill="none" stroke="midnightblue" d="M354.175,-56.324C366.847,-47.979 386.233,-35.2122 401.206,-25.3524"/>
<polygon fill="midnightblue" stroke="midnightblue" points="403.431,-28.0776 409.858,-19.6545 399.581,-22.2313 403.431,-28.0776"/>
</g>
<!-- Node8 -->
<g id="node8" class="node"><title>Node8</title>
<polygon fill="white" stroke="#bfbfbf" points="473.5,-0.5 473.5,-19.5 524.5,-19.5 524.5,-0.5 473.5,-0.5"/>
<text text-anchor="middle" x="499" y="-7.5" font-family="Helvetica,sans-Serif" font-size="10.00">unistd.h</text>
</g>
<!-- Node1&#45;&gt;Node8 -->
<g id="edge7" class="edge"><title>Node1&#45;&gt;Node8</title>
<path fill="none" stroke="midnightblue" d="M366.036,-56.4435C392.616,-47.3591 434.809,-32.9388 464.523,-22.7831"/>
<polygon fill="midnightblue" stroke="midnightblue" points="465.751,-26.0625 474.082,-19.5164 463.487,-19.4386 465.751,-26.0625"/>
</g>
<!-- Node9 -->
<g id="node9" class="node"><title>Node9</title>
<polygon fill="white" stroke="#bfbfbf" points="542.5,-0.5 542.5,-19.5 585.5,-19.5 585.5,-0.5 542.5,-0.5"/>
<text text-anchor="middle" x="564" y="-7.5" font-family="Helvetica,sans-Serif" font-size="10.00">cstdio</text>
</g>
<!-- Node1&#45;&gt;Node9 -->
<g id="edge8" class="edge"><title>Node1&#45;&gt;Node9</title>
<path fill="none" stroke="midnightblue" d="M378.531,-56.9766C415.49,-48.9146 473.753,-35.7773 532.588,-20.2633"/>
<polygon fill="midnightblue" stroke="midnightblue" points="533.651,-23.6024 542.416,-17.6507 531.852,-16.8374 533.651,-23.6024"/>
</g>
<!-- Node10 -->
<g id="node10" class="node"><title>Node10</title>
<polygon fill="white" stroke="#bfbfbf" points="603.5,-0.5 603.5,-19.5 652.5,-19.5 652.5,-0.5 603.5,-0.5"/>
<text text-anchor="middle" x="628" y="-7.5" font-family="Helvetica,sans-Serif" font-size="10.00">string.h</text>
</g>
<!-- Node1&#45;&gt;Node10 -->
<g id="edge9" class="edge"><title>Node1&#45;&gt;Node10</title>
<path fill="none" stroke="midnightblue" d="M378.655,-59.4254C426.488,-52.1037 511.755,-38.2521 593.274,-20.2418"/>
<polygon fill="midnightblue" stroke="midnightblue" points="594.198,-23.6217 603.194,-18.0249 592.672,-16.7902 594.198,-23.6217"/>
</g>
</g>
</svg>
