<?xml version="1.0" encoding="UTF-8" standalone="no"?>
<!DOCTYPE svg PUBLIC "-//W3C//DTD SVG 1.1//EN"
 "http://www.w3.org/Graphics/SVG/1.1/DTD/svg11.dtd">
<!-- Generated by graphviz version 2.38.0 (20140413.2041)
 -->
<!-- Title: orange_instantiator.cpp Pages: 1 -->
<!--zoomable 196 -->
<svg id="main" version="1.1" xmlns="http://www.w3.org/2000/svg" xmlns:xlink="http://www.w3.org/1999/xlink" xml:space="preserve" onload="init(evt)">
<style type="text/css"><![CDATA[
.edge:hover path { stroke: red; }
.edge:hover polygon { stroke: red; fill: red; }
]]></style>
<script type="text/javascript"><![CDATA[
var edges = document.getElementsByTagName('g');
if (edges && edges.length) {
  for (var i=0;i<edges.length;i++) {
    if (edges[i].id.substr(0,4)=='edge') {
      edges[i].setAttribute('class','edge');
    }
  }
}
]]></script>
        <defs>
                <circle id="rim" cx="0" cy="0" r="7"/>
                <circle id="rim2" cx="0" cy="0" r="3.5"/>
                <g id="zoomPlus">
                        <use xlink:href="#rim" fill="#404040">
                                <set attributeName="fill" to="#808080" begin="zoomplus.mouseover" end="zoomplus.mouseout"/>
                        </use>
                        <path d="M-4,0h8M0,-4v8" fill="none" stroke="white" stroke-width="1.5" pointer-events="none"/>
                </g>
                <g id="zoomMin">
                        <use xlink:href="#rim" fill="#404040">
                                <set attributeName="fill" to="#808080" begin="zoomminus.mouseover" end="zoomminus.mouseout"/>
                        </use>
                        <path d="M-4,0h8" fill="none" stroke="white" stroke-width="1.5" pointer-events="none"/>
                </g>
                <g id="dirArrow">
                        <path fill="none" stroke="white" stroke-width="1.5" d="M0,-3.0v7 M-2.5,-0.5L0,-3.0L2.5,-0.5"/>
                </g>
               <g id="resetDef">
                       <use xlink:href="#rim2" fill="#404040">
                               <set attributeName="fill" to="#808080" begin="reset.mouseover" end="reset.mouseout"/>
                       </use>
               </g>
        </defs>

<script type="text/javascript">
var viewWidth = 1386;
var viewHeight = 196;
var sectionId = 'dynsection-0';
</script>
<script xlink:href="svgpan.js"/>
<svg id="graph" class="graph">
<g id="viewport">
<title>orange_instantiator.cpp</title>
<polygon fill="white" stroke="none" points="-4,4 -4,-192 1381.5,-192 1381.5,4 -4,4"/>
<!-- Node1 -->
<g id="node1" class="node"><title>Node1</title>
<polygon fill="#bfbfbf" stroke="black" points="1259.5,-168.5 1259.5,-187.5 1377.5,-187.5 1377.5,-168.5 1259.5,-168.5"/>
<text text-anchor="middle" x="1318.5" y="-175.5" font-family="Helvetica,sans-Serif" font-size="10.00">orange_instantiator.cpp</text>
</g>
<!-- Node2 -->
<g id="node2" class="node"><title>Node2</title>
<g id="a_node2"><a xlink:href="orange_8h.html" target="_top" xlink:title="orange.h">
<polygon fill="white" stroke="black" points="570.5,-112.5 570.5,-131.5 624.5,-131.5 624.5,-112.5 570.5,-112.5"/>
<text text-anchor="middle" x="597.5" y="-119.5" font-family="Helvetica,sans-Serif" font-size="10.00">orange.h</text>
</a>
</g>
</g>
<!-- Node1&#45;&gt;Node2 -->
<g id="edge1" class="edge"><title>Node1&#45;&gt;Node2</title>
<path fill="none" stroke="midnightblue" d="M1259.5,-172.581C1116.16,-161.846 752.75,-134.628 634.969,-125.806"/>
<polygon fill="midnightblue" stroke="midnightblue" points="634.904,-122.292 624.671,-125.035 634.381,-129.272 634.904,-122.292"/>
</g>
<!-- Node11 -->
<g id="node11" class="node"><title>Node11</title>
<polygon fill="white" stroke="#bfbfbf" points="1135.5,-0.5 1135.5,-19.5 1189.5,-19.5 1189.5,-0.5 1135.5,-0.5"/>
<text text-anchor="middle" x="1162.5" y="-7.5" font-family="Helvetica,sans-Serif" font-size="10.00">iostream</text>
</g>
<!-- Node1&#45;&gt;Node11 -->
<g id="edge50" class="edge"><title>Node1&#45;&gt;Node11</title>
<path fill="none" stroke="midnightblue" d="M1316.65,-168.487C1311.55,-146.911 1295.39,-89.4307 1261.5,-56 1244.41,-39.1364 1219.86,-27.9217 1199.49,-20.9055"/>
<polygon fill="midnightblue" stroke="midnightblue" points="1200.46,-17.5429 1189.87,-17.792 1198.31,-24.2025 1200.46,-17.5429"/>
</g>
<!-- Node13 -->
<g id="node13" class="node"><title>Node13</title>
<polygon fill="white" stroke="#bfbfbf" points="1232,-0.5 1232,-19.5 1281,-19.5 1281,-0.5 1232,-0.5"/>
<text text-anchor="middle" x="1256.5" y="-7.5" font-family="Helvetica,sans-Serif" font-size="10.00">string.h</text>
</g>
<!-- Node1&#45;&gt;Node13 -->
<g id="edge49" class="edge"><title>Node1&#45;&gt;Node13</title>
<path fill="none" stroke="midnightblue" d="M1322.79,-168.384C1332.5,-147.527 1353.76,-93.2947 1332.5,-56 1323.44,-40.1141 1306.33,-29.2637 1290.64,-22.2045"/>
<polygon fill="midnightblue" stroke="midnightblue" points="1291.71,-18.8616 1281.13,-18.288 1289.05,-25.3337 1291.71,-18.8616"/>
</g>
<!-- Node3 -->
<g id="node3" class="node"><title>Node3</title>
<polygon fill="white" stroke="#bfbfbf" points="1112.5,-56.5 1112.5,-75.5 1156.5,-75.5 1156.5,-56.5 1112.5,-56.5"/>
<text text-anchor="middle" x="1134.5" y="-63.5" font-family="Helvetica,sans-Serif" font-size="10.00">vector</text>
</g>
<!-- Node2&#45;&gt;Node3 -->
<g id="edge2" class="edge"><title>Node2&#45;&gt;Node3</title>
<path fill="none" stroke="midnightblue" d="M624.572,-120.048C700.07,-117.074 919.175,-106.28 1098.5,-76 1099.75,-75.7888 1101.02,-75.5569 1102.3,-75.3087"/>
<polygon fill="midnightblue" stroke="midnightblue" points="1103.12,-78.7125 1112.15,-73.1601 1101.63,-71.8735 1103.12,-78.7125"/>
</g>
<!-- Node4 -->
<g id="node4" class="node"><title>Node4</title>
<polygon fill="white" stroke="#bfbfbf" points="1004,-0.5 1004,-19.5 1047,-19.5 1047,-0.5 1004,-0.5"/>
<text text-anchor="middle" x="1025.5" y="-7.5" font-family="Helvetica,sans-Serif" font-size="10.00">queue</text>
</g>
<!-- Node2&#45;&gt;Node4 -->
<g id="edge3" class="edge"><title>Node2&#45;&gt;Node4</title>
<path fill="none" stroke="midnightblue" d="M624.611,-116.031C659.677,-109.162 722.329,-95.3829 773.5,-76 791.717,-69.0998 794.1,-62.3963 812.5,-56 887.342,-29.9824 912.429,-38.7436 993.689,-19.967"/>
<polygon fill="midnightblue" stroke="midnightblue" points="994.969,-23.2601 1003.88,-17.5365 993.345,-16.451 994.969,-23.2601"/>
</g>
<!-- Node5 -->
<g id="node5" class="node"><title>Node5</title>
<polygon fill="white" stroke="#bfbfbf" points="0,-56.5 0,-75.5 47,-75.5 47,-56.5 0,-56.5"/>
<text text-anchor="middle" x="23.5" y="-63.5" font-family="Helvetica,sans-Serif" font-size="10.00">iterator</text>
</g>
<!-- Node2&#45;&gt;Node5 -->
<g id="edge4" class="edge"><title>Node2&#45;&gt;Node5</title>
<path fill="none" stroke="midnightblue" d="M570.277,-120.145C491.213,-117.356 254.926,-106.85 61.5,-76 60.0354,-75.7664 58.5437,-75.507 57.0402,-75.228"/>
<polygon fill="midnightblue" stroke="midnightblue" points="57.611,-71.7719 47.1082,-73.1655 56.1876,-78.6257 57.611,-71.7719"/>
</g>
<!-- Node6 -->
<g id="node6" class="node"><title>Node6</title>
<polygon fill="white" stroke="#bfbfbf" points="80,-0.5 80,-19.5 115,-19.5 115,-0.5 80,-0.5"/>
<text text-anchor="middle" x="97.5" y="-7.5" font-family="Helvetica,sans-Serif" font-size="10.00">map</text>
</g>
<!-- Node2&#45;&gt;Node6 -->
<g id="edge5" class="edge"><title>Node2&#45;&gt;Node6</title>
<path fill="none" stroke="midnightblue" d="M570.363,-120.661C470.399,-119.136 126.821,-111.342 94.5,-76 83.3216,-63.7769 85.9323,-44.2324 90.2036,-29.763"/>
<polygon fill="midnightblue" stroke="midnightblue" points="93.6554,-30.4873 93.5927,-19.8927 87.0348,-28.214 93.6554,-30.4873"/>
</g>
<!-- Node7 -->
<g id="node7" class="node"><title>Node7</title>
<polygon fill="white" stroke="#bfbfbf" points="103.5,-56.5 103.5,-75.5 147.5,-75.5 147.5,-56.5 103.5,-56.5"/>
<text text-anchor="middle" x="125.5" y="-63.5" font-family="Helvetica,sans-Serif" font-size="10.00">thread</text>
</g>
<!-- Node2&#45;&gt;Node7 -->
<g id="edge6" class="edge"><title>Node2&#45;&gt;Node7</title>
<path fill="none" stroke="midnightblue" d="M570.273,-119.539C501.39,-115.55 314.77,-102.928 161.5,-76 160.251,-75.7805 158.981,-75.5416 157.701,-75.2875"/>
<polygon fill="midnightblue" stroke="midnightblue" points="158.383,-71.8538 147.863,-73.1135 156.872,-78.6889 158.383,-71.8538"/>
</g>
<!-- Node8 -->
<g id="node8" class="node"><title>Node8</title>
<polygon fill="white" stroke="#bfbfbf" points="160.5,-0.5 160.5,-19.5 200.5,-19.5 200.5,-0.5 160.5,-0.5"/>
<text text-anchor="middle" x="180.5" y="-7.5" font-family="Helvetica,sans-Serif" font-size="10.00">utility</text>
</g>
<!-- Node2&#45;&gt;Node8 -->
<g id="edge7" class="edge"><title>Node2&#45;&gt;Node8</title>
<path fill="none" stroke="midnightblue" d="M570.463,-120.642C494.64,-119.192 281.723,-111.942 223.5,-76 206.1,-65.259 194.259,-44.5475 187.476,-29.3805"/>
<polygon fill="midnightblue" stroke="midnightblue" points="190.636,-27.8628 183.583,-19.9568 184.167,-30.5355 190.636,-27.8628"/>
</g>
<!-- Node9 -->
<g id="node9" class="node"><title>Node9</title>
<polygon fill="white" stroke="#bfbfbf" points="228.5,-0.5 228.5,-19.5 274.5,-19.5 274.5,-0.5 228.5,-0.5"/>
<text text-anchor="middle" x="251.5" y="-7.5" font-family="Helvetica,sans-Serif" font-size="10.00">stdio.h</text>
</g>
<!-- Node2&#45;&gt;Node9 -->
<g id="edge8" class="edge"><title>Node2&#45;&gt;Node9</title>
<path fill="none" stroke="midnightblue" d="M570.275,-119.686C489.409,-115.507 254.863,-101.29 232.5,-76 220.745,-62.7064 229.456,-42.4928 238.586,-28.1405"/>
<polygon fill="midnightblue" stroke="midnightblue" points="241.624,-29.9018 244.436,-19.687 235.868,-25.9187 241.624,-29.9018"/>
</g>
<!-- Node10 -->
<g id="node10" class="node"><title>Node10</title>
<polygon fill="white" stroke="#bfbfbf" points="242,-56.5 242,-75.5 291,-75.5 291,-56.5 242,-56.5"/>
<text text-anchor="middle" x="266.5" y="-63.5" font-family="Helvetica,sans-Serif" font-size="10.00">netdb.h</text>
</g>
<!-- Node2&#45;&gt;Node10 -->
<g id="edge9" class="edge"><title>Node2&#45;&gt;Node10</title>
<path fill="none" stroke="midnightblue" d="M570.413,-117.507C518.71,-110.688 402.465,-94.6334 305.5,-76 304.05,-75.7213 302.572,-75.4269 301.08,-75.1213"/>
<polygon fill="midnightblue" stroke="midnightblue" points="301.712,-71.6772 291.199,-72.9896 300.236,-78.5198 301.712,-71.6772"/>
</g>
<!-- Node2&#45;&gt;Node11 -->
<g id="edge10" class="edge"><title>Node2&#45;&gt;Node11</title>
<path fill="none" stroke="midnightblue" d="M624.758,-120.105C711.846,-116.978 982.456,-105.101 1064.5,-76 1080.96,-70.16 1119.21,-43.0799 1142.76,-25.7677"/>
<polygon fill="midnightblue" stroke="midnightblue" points="1145.03,-28.4386 1150.99,-19.6755 1140.87,-22.8125 1145.03,-28.4386"/>
</g>
<!-- Node12 -->
<g id="node12" class="node"><title>Node12</title>
<polygon fill="white" stroke="#bfbfbf" points="347.5,-56.5 347.5,-75.5 399.5,-75.5 399.5,-56.5 347.5,-56.5"/>
<text text-anchor="middle" x="373.5" y="-63.5" font-family="Helvetica,sans-Serif" font-size="10.00">sstream</text>
</g>
<!-- Node2&#45;&gt;Node12 -->
<g id="edge11" class="edge"><title>Node2&#45;&gt;Node12</title>
<path fill="none" stroke="midnightblue" d="M570.48,-114.486C530.214,-104.779 454.397,-86.5019 409.478,-75.6732"/>
<polygon fill="midnightblue" stroke="midnightblue" points="410.117,-72.227 399.575,-73.2859 408.476,-79.0321 410.117,-72.227"/>
</g>
<!-- Node2&#45;&gt;Node13 -->
<g id="edge12" class="edge"><title>Node2&#45;&gt;Node13</title>
<path fill="none" stroke="midnightblue" d="M624.757,-121.289C744.2,-122.276 1217.42,-123.168 1261.5,-76 1272.94,-63.7564 1269.48,-43.9322 1264.52,-29.3918"/>
<polygon fill="midnightblue" stroke="midnightblue" points="1267.72,-27.9746 1260.84,-19.922 1261.2,-30.5107 1267.72,-27.9746"/>
</g>
<!-- Node14 -->
<g id="node14" class="node"><title>Node14</title>
<polygon fill="white" stroke="#bfbfbf" points="455.5,-56.5 455.5,-75.5 505.5,-75.5 505.5,-56.5 455.5,-56.5"/>
<text text-anchor="middle" x="480.5" y="-63.5" font-family="Helvetica,sans-Serif" font-size="10.00">fstream</text>
</g>
<!-- Node2&#45;&gt;Node14 -->
<g id="edge13" class="edge"><title>Node2&#45;&gt;Node14</title>
<path fill="none" stroke="midnightblue" d="M578.961,-112.444C559.877,-103.636 529.925,-89.8116 508.064,-79.722"/>
<polygon fill="midnightblue" stroke="midnightblue" points="509.499,-76.5292 498.952,-75.5164 506.565,-82.8849 509.499,-76.5292"/>
</g>
<!-- Node15 -->
<g id="node15" class="node"><title>Node15</title>
<polygon fill="white" stroke="#bfbfbf" points="523.5,-56.5 523.5,-75.5 569.5,-75.5 569.5,-56.5 523.5,-56.5"/>
<text text-anchor="middle" x="546.5" y="-63.5" font-family="Helvetica,sans-Serif" font-size="10.00">chrono</text>
</g>
<!-- Node2&#45;&gt;Node15 -->
<g id="edge14" class="edge"><title>Node2&#45;&gt;Node15</title>
<path fill="none" stroke="midnightblue" d="M589.078,-112.083C581.652,-104.22 570.648,-92.5688 561.688,-83.0813"/>
<polygon fill="midnightblue" stroke="midnightblue" points="564.176,-80.618 554.765,-75.7511 559.087,-85.4244 564.176,-80.618"/>
</g>
<!-- Node16 -->
<g id="node16" class="node"><title>Node16</title>
<polygon fill="white" stroke="#bfbfbf" points="473,-0.5 473,-19.5 524,-19.5 524,-0.5 473,-0.5"/>
<text text-anchor="middle" x="498.5" y="-7.5" font-family="Helvetica,sans-Serif" font-size="10.00">unistd.h</text>
</g>
<!-- Node2&#45;&gt;Node16 -->
<g id="edge15" class="edge"><title>Node2&#45;&gt;Node16</title>
<path fill="none" stroke="midnightblue" d="M597.03,-112.487C595.885,-99.1064 591.957,-72.9375 578.5,-56 567.007,-41.5349 549.516,-30.9421 533.817,-23.6812"/>
<polygon fill="midnightblue" stroke="midnightblue" points="534.911,-20.3412 524.343,-19.5859 532.133,-26.7665 534.911,-20.3412"/>
</g>
<!-- Node17 -->
<g id="node17" class="node"><title>Node17</title>
<polygon fill="white" stroke="#bfbfbf" points="297.5,-0.5 297.5,-19.5 341.5,-19.5 341.5,-0.5 297.5,-0.5"/>
<text text-anchor="middle" x="319.5" y="-7.5" font-family="Helvetica,sans-Serif" font-size="10.00">mutex</text>
</g>
<!-- Node2&#45;&gt;Node17 -->
<g id="edge16" class="edge"><title>Node2&#45;&gt;Node17</title>
<path fill="none" stroke="midnightblue" d="M570.182,-119.824C510.776,-116.718 372.448,-106.333 338.5,-76 325.506,-64.3893 321.189,-44.4342 319.858,-29.6892"/>
<polygon fill="midnightblue" stroke="midnightblue" points="323.35,-29.4551 319.327,-19.6538 316.36,-29.8247 323.35,-29.4551"/>
</g>
<!-- Node18 -->
<g id="node18" class="node"><title>Node18</title>
<polygon fill="white" stroke="#bfbfbf" points="360,-0.5 360,-19.5 455,-19.5 455,-0.5 360,-0.5"/>
<text text-anchor="middle" x="407.5" y="-7.5" font-family="Helvetica,sans-Serif" font-size="10.00">condition_variable</text>
</g>
<!-- Node2&#45;&gt;Node18 -->
<g id="edge17" class="edge"><title>Node2&#45;&gt;Node18</title>
<path fill="none" stroke="midnightblue" d="M570.264,-118.83C537.77,-115 483.237,-104.512 446.5,-76 430.94,-63.9233 420.243,-43.7496 414.042,-29.0749"/>
<polygon fill="midnightblue" stroke="midnightblue" points="417.22,-27.5919 410.316,-19.5557 410.702,-30.1435 417.22,-27.5919"/>
</g>
<!-- Node19 -->
<g id="node19" class="node"><title>Node19</title>
<g id="a_node19"><a xlink:href="orange__udp_8h.html" target="_top" xlink:title="orange_udp.h">
<polygon fill="white" stroke="black" points="690,-56.5 690,-75.5 765,-75.5 765,-56.5 690,-56.5"/>
<text text-anchor="middle" x="727.5" y="-63.5" font-family="Helvetica,sans-Serif" font-size="10.00">orange_udp.h</text>
</a>
</g>
</g>
<!-- Node2&#45;&gt;Node19 -->
<g id="edge18" class="edge"><title>Node2&#45;&gt;Node19</title>
<path fill="none" stroke="midnightblue" d="M618.099,-112.444C639.493,-103.557 673.181,-89.5632 697.524,-79.4514"/>
<polygon fill="midnightblue" stroke="midnightblue" points="699.105,-82.5848 706.997,-75.5164 696.42,-76.1203 699.105,-82.5848"/>
</g>
<!-- Node26 -->
<g id="node26" class="node"><title>Node26</title>
<g id="a_node26"><a xlink:href="bitmap_8h.html" target="_top" xlink:title="bitmap.h">
<polygon fill="white" stroke="black" points="821.5,-56.5 821.5,-75.5 875.5,-75.5 875.5,-56.5 821.5,-56.5"/>
<text text-anchor="middle" x="848.5" y="-63.5" font-family="Helvetica,sans-Serif" font-size="10.00">bitmap.h</text>
</a>
</g>
</g>
<!-- Node2&#45;&gt;Node26 -->
<g id="edge28" class="edge"><title>Node2&#45;&gt;Node26</title>
<path fill="none" stroke="midnightblue" d="M624.693,-115.218C664.735,-106.694 741.91,-90.2262 807.5,-76 808.742,-75.7306 810.005,-75.4562 811.28,-75.1787"/>
<polygon fill="midnightblue" stroke="midnightblue" points="812.134,-78.5748 821.157,-73.022 810.641,-71.7359 812.134,-78.5748"/>
</g>
<!-- Node28 -->
<g id="node28" class="node"><title>Node28</title>
<g id="a_node28"><a xlink:href="sudp_8h.html" target="_top" xlink:title="sudp.h">
<polygon fill="white" stroke="black" points="625.5,-56.5 625.5,-75.5 671.5,-75.5 671.5,-56.5 625.5,-56.5"/>
<text text-anchor="middle" x="648.5" y="-63.5" font-family="Helvetica,sans-Serif" font-size="10.00">sudp.h</text>
</a>
</g>
</g>
<!-- Node2&#45;&gt;Node28 -->
<g id="edge31" class="edge"><title>Node2&#45;&gt;Node28</title>
<path fill="none" stroke="midnightblue" d="M605.922,-112.083C613.348,-104.22 624.352,-92.5688 633.312,-83.0813"/>
<polygon fill="midnightblue" stroke="midnightblue" points="635.913,-85.4244 640.235,-75.7511 630.824,-80.618 635.913,-85.4244"/>
</g>
<!-- Node29 -->
<g id="node29" class="node"><title>Node29</title>
<g id="a_node29"><a xlink:href="frames_8h.html" target="_top" xlink:title="frames.h">
<polygon fill="white" stroke="black" points="894,-56.5 894,-75.5 949,-75.5 949,-56.5 894,-56.5"/>
<text text-anchor="middle" x="921.5" y="-63.5" font-family="Helvetica,sans-Serif" font-size="10.00">frames.h</text>
</a>
</g>
</g>
<!-- Node2&#45;&gt;Node29 -->
<g id="edge44" class="edge"><title>Node2&#45;&gt;Node29</title>
<path fill="none" stroke="midnightblue" d="M624.539,-117.524C673.937,-111.009 782.259,-95.971 883.579,-76.0381"/>
<polygon fill="midnightblue" stroke="midnightblue" points="884.549,-79.4137 893.675,-74.0307 883.184,-72.5481 884.549,-79.4137"/>
</g>
<!-- Node30 -->
<g id="node30" class="node"><title>Node30</title>
<g id="a_node30"><a xlink:href="orange__frames_8h.html" target="_top" xlink:title="orange_frames.h">
<polygon fill="white" stroke="black" points="967,-56.5 967,-75.5 1056,-75.5 1056,-56.5 967,-56.5"/>
<text text-anchor="middle" x="1011.5" y="-63.5" font-family="Helvetica,sans-Serif" font-size="10.00">orange_frames.h</text>
</a>
</g>
</g>
<!-- Node2&#45;&gt;Node30 -->
<g id="edge45" class="edge"><title>Node2&#45;&gt;Node30</title>
<path fill="none" stroke="midnightblue" d="M624.647,-117.99C683.207,-111.415 825.972,-94.9452 956.554,-76.0844"/>
<polygon fill="midnightblue" stroke="midnightblue" points="957.34,-79.507 966.733,-74.6056 956.334,-72.5797 957.34,-79.507"/>
</g>
<!-- Node31 -->
<g id="node31" class="node"><title>Node31</title>
<g id="a_node31"><a xlink:href="ip__converter_8h.html" target="_top" xlink:title="ip_converter.h">
<polygon fill="white" stroke="black" points="1174.5,-56.5 1174.5,-75.5 1252.5,-75.5 1252.5,-56.5 1174.5,-56.5"/>
<text text-anchor="middle" x="1213.5" y="-63.5" font-family="Helvetica,sans-Serif" font-size="10.00">ip_converter.h</text>
</a>
</g>
</g>
<!-- Node2&#45;&gt;Node31 -->
<g id="edge46" class="edge"><title>Node2&#45;&gt;Node31</title>
<path fill="none" stroke="midnightblue" d="M624.512,-119.881C705.024,-116.329 950.52,-103.942 1164.12,-76.0486"/>
<polygon fill="midnightblue" stroke="midnightblue" points="1164.81,-79.4879 1174.26,-74.7086 1163.89,-72.5481 1164.81,-79.4879"/>
</g>
<!-- Node19&#45;&gt;Node11 -->
<g id="edge19" class="edge"><title>Node19&#45;&gt;Node11</title>
<path fill="none" stroke="midnightblue" d="M765.195,-60.8857C853.735,-51.2049 1071.07,-27.337 1125.35,-19.7337"/>
<polygon fill="midnightblue" stroke="midnightblue" points="1126.11,-23.1577 1135.46,-18.1696 1125.04,-16.24 1126.11,-23.1577"/>
</g>
<!-- Node19&#45;&gt;Node13 -->
<g id="edge27" class="edge"><title>Node19&#45;&gt;Node13</title>
<path fill="none" stroke="midnightblue" d="M765.149,-60.9115C779.91,-59.3353 796.995,-57.5438 812.5,-56 983.952,-38.9286 1027.51,-41.2199 1198.5,-20 1206.08,-19.0596 1214.19,-17.8985 1221.87,-16.7266"/>
<polygon fill="midnightblue" stroke="midnightblue" points="1222.66,-20.1467 1231.99,-15.1415 1221.57,-13.231 1222.66,-20.1467"/>
</g>
<!-- Node19&#45;&gt;Node16 -->
<g id="edge25" class="edge"><title>Node19&#45;&gt;Node16</title>
<path fill="none" stroke="midnightblue" d="M689.668,-56.6458C652.393,-48.3312 593.581,-34.9905 534.044,-20.3297"/>
<polygon fill="midnightblue" stroke="midnightblue" points="534.645,-16.873 524.097,-17.8695 532.964,-23.6682 534.645,-16.873"/>
</g>
<!-- Node20 -->
<g id="node20" class="node"><title>Node20</title>
<polygon fill="white" stroke="#bfbfbf" points="945,-0.5 945,-19.5 986,-19.5 986,-0.5 945,-0.5"/>
<text text-anchor="middle" x="965.5" y="-7.5" font-family="Helvetica,sans-Serif" font-size="10.00">string</text>
</g>
<!-- Node19&#45;&gt;Node20 -->
<g id="edge20" class="edge"><title>Node19&#45;&gt;Node20</title>
<path fill="none" stroke="midnightblue" d="M765.285,-57.752C805.081,-49.9137 869.761,-36.5972 934.875,-19.9935"/>
<polygon fill="midnightblue" stroke="midnightblue" points="936.092,-23.2944 944.903,-17.4107 934.346,-16.5156 936.092,-23.2944"/>
</g>
<!-- Node21 -->
<g id="node21" class="node"><title>Node21</title>
<polygon fill="white" stroke="#bfbfbf" points="603.5,-0.5 603.5,-19.5 671.5,-19.5 671.5,-0.5 603.5,-0.5"/>
<text text-anchor="middle" x="637.5" y="-7.5" font-family="Helvetica,sans-Serif" font-size="10.00">sys/types.h</text>
</g>
<!-- Node19&#45;&gt;Node21 -->
<g id="edge21" class="edge"><title>Node19&#45;&gt;Node21</title>
<path fill="none" stroke="midnightblue" d="M713.04,-56.324C699,-47.9002 677.452,-34.9709 660.957,-25.0741"/>
<polygon fill="midnightblue" stroke="midnightblue" points="662.3,-21.7983 651.924,-19.6545 658.698,-27.8007 662.3,-21.7983"/>
</g>
<!-- Node22 -->
<g id="node22" class="node"><title>Node22</title>
<polygon fill="white" stroke="#bfbfbf" points="690,-0.5 690,-19.5 763,-19.5 763,-0.5 690,-0.5"/>
<text text-anchor="middle" x="726.5" y="-7.5" font-family="Helvetica,sans-Serif" font-size="10.00">sys/socket.h</text>
</g>
<!-- Node19&#45;&gt;Node22 -->
<g id="edge22" class="edge"><title>Node19&#45;&gt;Node22</title>
<path fill="none" stroke="midnightblue" d="M727.335,-56.083C727.204,-49.0059 727.016,-38.8611 726.852,-29.9865"/>
<polygon fill="midnightblue" stroke="midnightblue" points="730.347,-29.6845 726.662,-19.7511 723.348,-29.8142 730.347,-29.6845"/>
</g>
<!-- Node23 -->
<g id="node23" class="node"><title>Node23</title>
<polygon fill="white" stroke="#bfbfbf" points="781.5,-0.5 781.5,-19.5 843.5,-19.5 843.5,-0.5 781.5,-0.5"/>
<text text-anchor="middle" x="812.5" y="-7.5" font-family="Helvetica,sans-Serif" font-size="10.00">arpa/inet.h</text>
</g>
<!-- Node19&#45;&gt;Node23 -->
<g id="edge23" class="edge"><title>Node19&#45;&gt;Node23</title>
<path fill="none" stroke="midnightblue" d="M741.157,-56.324C754.416,-47.9002 774.768,-34.9709 790.346,-25.0741"/>
<polygon fill="midnightblue" stroke="midnightblue" points="792.313,-27.9711 798.877,-19.6545 788.56,-22.0626 792.313,-27.9711"/>
</g>
<!-- Node24 -->
<g id="node24" class="node"><title>Node24</title>
<polygon fill="white" stroke="#bfbfbf" points="862,-0.5 862,-19.5 927,-19.5 927,-0.5 862,-0.5"/>
<text text-anchor="middle" x="894.5" y="-7.5" font-family="Helvetica,sans-Serif" font-size="10.00">netinet/in.h</text>
</g>
<!-- Node19&#45;&gt;Node24 -->
<g id="edge24" class="edge"><title>Node19&#45;&gt;Node24</title>
<path fill="none" stroke="midnightblue" d="M753.962,-56.4435C782.178,-47.3196 827.04,-32.8133 858.468,-22.6509"/>
<polygon fill="midnightblue" stroke="midnightblue" points="859.724,-25.9234 868.162,-19.5164 857.57,-19.263 859.724,-25.9234"/>
</g>
<!-- Node25 -->
<g id="node25" class="node"><title>Node25</title>
<polygon fill="white" stroke="#bfbfbf" points="542,-0.5 542,-19.5 585,-19.5 585,-0.5 542,-0.5"/>
<text text-anchor="middle" x="563.5" y="-7.5" font-family="Helvetica,sans-Serif" font-size="10.00">cstdio</text>
</g>
<!-- Node19&#45;&gt;Node25 -->
<g id="edge26" class="edge"><title>Node19&#45;&gt;Node25</title>
<path fill="none" stroke="midnightblue" d="M701.514,-56.4435C672.626,-46.9316 625.971,-31.5697 595.021,-21.3787"/>
<polygon fill="midnightblue" stroke="midnightblue" points="595.768,-17.94 585.175,-18.1368 593.579,-24.5888 595.768,-17.94"/>
</g>
<!-- Node26&#45;&gt;Node11 -->
<g id="edge30" class="edge"><title>Node26&#45;&gt;Node11</title>
<path fill="none" stroke="midnightblue" d="M875.563,-57.9343C878.569,-57.239 881.593,-56.5781 884.5,-56 988.026,-35.4098 1018.1,-40.859 1125.5,-20.0253"/>
<polygon fill="midnightblue" stroke="midnightblue" points="1126.3,-23.434 1135.44,-18.0657 1124.95,-16.5662 1126.3,-23.434"/>
</g>
<!-- Node27 -->
<g id="node27" class="node"><title>Node27</title>
<polygon fill="white" stroke="#bfbfbf" points="1065.5,-0.5 1065.5,-19.5 1117.5,-19.5 1117.5,-0.5 1065.5,-0.5"/>
<text text-anchor="middle" x="1091.5" y="-7.5" font-family="Helvetica,sans-Serif" font-size="10.00">assert.h</text>
</g>
<!-- Node26&#45;&gt;Node27 -->
<g id="edge29" class="edge"><title>Node26&#45;&gt;Node27</title>
<path fill="none" stroke="midnightblue" d="M875.601,-58.1093C878.6,-57.3812 881.612,-56.6647 884.5,-56 957.082,-39.2931 978.109,-37.5437 1055,-20.0359"/>
<polygon fill="midnightblue" stroke="midnightblue" points="1056.22,-23.3478 1065.18,-17.7005 1054.65,-16.525 1056.22,-23.3478"/>
</g>
<!-- Node28&#45;&gt;Node4 -->
<g id="edge43" class="edge"><title>Node28&#45;&gt;Node4</title>
<path fill="none" stroke="midnightblue" d="M671.815,-57.9774C674.723,-57.2393 677.669,-56.5567 680.5,-56 815.1,-29.5327 854.927,-46.825 993.765,-19.7885"/>
<polygon fill="midnightblue" stroke="midnightblue" points="994.811,-23.1491 1003.93,-17.7641 993.444,-16.2838 994.811,-23.1491"/>
</g>
<!-- Node28&#45;&gt;Node6 -->
<g id="edge42" class="edge"><title>Node28&#45;&gt;Node6</title>
<path fill="none" stroke="midnightblue" d="M625.197,-61.7444C611.596,-59.9092 594.096,-57.6592 578.5,-56 389.118,-35.8519 340.474,-43.6744 151.5,-20 143.012,-18.9367 133.819,-17.5087 125.464,-16.1038"/>
<polygon fill="midnightblue" stroke="midnightblue" points="125.898,-12.6268 115.447,-14.3658 124.701,-19.5238 125.898,-12.6268"/>
</g>
<!-- Node28&#45;&gt;Node8 -->
<g id="edge40" class="edge"><title>Node28&#45;&gt;Node8</title>
<path fill="none" stroke="midnightblue" d="M625.186,-61.837C611.582,-60.0326 594.082,-57.7826 578.5,-56 419.183,-37.7738 377.721,-46.0812 219.5,-20 216.608,-19.5232 213.609,-18.9591 210.619,-18.3495"/>
<polygon fill="midnightblue" stroke="midnightblue" points="211.162,-14.8857 200.645,-16.162 209.663,-21.7231 211.162,-14.8857"/>
</g>
<!-- Node28&#45;&gt;Node9 -->
<g id="edge38" class="edge"><title>Node28&#45;&gt;Node9</title>
<path fill="none" stroke="midnightblue" d="M625.488,-62.0157C611.833,-60.2512 594.181,-57.9814 578.5,-56 449.646,-39.7188 416.255,-43.3872 288.5,-20 287.22,-19.7656 285.918,-19.5141 284.604,-19.2494"/>
<polygon fill="midnightblue" stroke="midnightblue" points="285.023,-15.7579 274.505,-17.0296 283.52,-22.5947 285.023,-15.7579"/>
</g>
<!-- Node28&#45;&gt;Node16 -->
<g id="edge36" class="edge"><title>Node28&#45;&gt;Node16</title>
<path fill="none" stroke="midnightblue" d="M625.391,-56.6808C600.397,-47.6829 560.322,-33.2558 531.902,-23.0247"/>
<polygon fill="midnightblue" stroke="midnightblue" points="532.974,-19.6907 522.379,-19.5966 530.603,-26.2769 532.974,-19.6907"/>
</g>
<!-- Node28&#45;&gt;Node17 -->
<g id="edge39" class="edge"><title>Node28&#45;&gt;Node17</title>
<path fill="none" stroke="midnightblue" d="M625.302,-61.9032C567.877,-54.1755 419.411,-33.8055 351.878,-20.0019"/>
<polygon fill="midnightblue" stroke="midnightblue" points="352.27,-16.507 341.76,-17.8458 350.811,-23.3533 352.27,-16.507"/>
</g>
<!-- Node28&#45;&gt;Node18 -->
<g id="edge41" class="edge"><title>Node28&#45;&gt;Node18</title>
<path fill="none" stroke="midnightblue" d="M625.392,-59.8223C586.403,-51.0862 506.784,-33.2463 455.348,-21.7211"/>
<polygon fill="midnightblue" stroke="midnightblue" points="455.98,-18.276 445.457,-19.5048 454.449,-25.1066 455.98,-18.276"/>
</g>
<!-- Node28&#45;&gt;Node21 -->
<g id="edge32" class="edge"><title>Node28&#45;&gt;Node21</title>
<path fill="none" stroke="midnightblue" d="M646.684,-56.083C645.226,-48.9272 643.129,-38.6353 641.307,-29.6911"/>
<polygon fill="midnightblue" stroke="midnightblue" points="644.708,-28.8512 639.283,-19.7511 637.849,-30.2485 644.708,-28.8512"/>
</g>
<!-- Node28&#45;&gt;Node22 -->
<g id="edge33" class="edge"><title>Node28&#45;&gt;Node22</title>
<path fill="none" stroke="midnightblue" d="M661.032,-56.324C673.086,-47.979 691.527,-35.2122 705.769,-25.3524"/>
<polygon fill="midnightblue" stroke="midnightblue" points="707.769,-28.2243 713.999,-19.6545 703.785,-22.469 707.769,-28.2243"/>
</g>
<!-- Node28&#45;&gt;Node23 -->
<g id="edge34" class="edge"><title>Node28&#45;&gt;Node23</title>
<path fill="none" stroke="midnightblue" d="M671.649,-57.3776C698.977,-48.3796 744.735,-33.3129 776.655,-22.8025"/>
<polygon fill="midnightblue" stroke="midnightblue" points="778.088,-26.0157 786.492,-19.5637 775.899,-19.3668 778.088,-26.0157"/>
</g>
<!-- Node28&#45;&gt;Node24 -->
<g id="edge35" class="edge"><title>Node28&#45;&gt;Node24</title>
<path fill="none" stroke="midnightblue" d="M671.523,-58.3235C674.534,-57.5094 677.585,-56.7141 680.5,-56 753.246,-38.1788 774.381,-36.3127 851.706,-20.1473"/>
<polygon fill="midnightblue" stroke="midnightblue" points="852.879,-23.4771 861.944,-17.9923 851.437,-16.6271 852.879,-23.4771"/>
</g>
<!-- Node28&#45;&gt;Node25 -->
<g id="edge37" class="edge"><title>Node28&#45;&gt;Node25</title>
<path fill="none" stroke="midnightblue" d="M634.843,-56.324C621.584,-47.9002 601.232,-34.9709 585.654,-25.0741"/>
<polygon fill="midnightblue" stroke="midnightblue" points="587.44,-22.0626 577.123,-19.6545 583.687,-27.9711 587.44,-22.0626"/>
</g>
<!-- Node31&#45;&gt;Node11 -->
<g id="edge48" class="edge"><title>Node31&#45;&gt;Node11</title>
<path fill="none" stroke="midnightblue" d="M1205.08,-56.083C1197.65,-48.2195 1186.65,-36.5688 1177.69,-27.0813"/>
<polygon fill="midnightblue" stroke="midnightblue" points="1180.18,-24.618 1170.76,-19.7511 1175.09,-29.4244 1180.18,-24.618"/>
</g>
<!-- Node31&#45;&gt;Node13 -->
<g id="edge47" class="edge"><title>Node31&#45;&gt;Node13</title>
<path fill="none" stroke="midnightblue" d="M1220.6,-56.083C1226.74,-48.3768 1235.77,-37.0333 1243.24,-27.6531"/>
<polygon fill="midnightblue" stroke="midnightblue" points="1246.04,-29.7542 1249.53,-19.7511 1240.56,-25.3936 1246.04,-29.7542"/>
</g>
</g>
</svg>
        <g id="navigator" transform="translate(0 0)" fill="#404254">
                <rect fill="#f2f5e9" fill-opacity="0.5" stroke="#606060" stroke-width=".5" x="0" y="0" width="60" height="60"/>
                <use id="zoomplus" xlink:href="#zoomPlus" x="17" y="9" onmousedown="handleZoom(evt,'in')"/>
                <use id="zoomminus" xlink:href="#zoomMin" x="42" y="9" onmousedown="handleZoom(evt,'out')"/>
                <use id="reset" xlink:href="#resetDef" x="30" y="36" onmousedown="handleReset()"/>
                <g id="arrowUp" xlink:href="#dirArrow" transform="translate(30 24)" onmousedown="handlePan(0,-1)">
                  <use xlink:href="#rim" fill="#404040">
                        <set attributeName="fill" to="#808080" begin="arrowUp.mouseover" end="arrowUp.mouseout"/>
                  </use>
                  <path fill="none" stroke="white" stroke-width="1.5" d="M0,-3.0v7 M-2.5,-0.5L0,-3.0L2.5,-0.5"/>
                </g>
                <g id="arrowRight" xlink:href="#dirArrow" transform="rotate(90) translate(36 -43)" onmousedown="handlePan(1,0)">
                  <use xlink:href="#rim" fill="#404040">
                        <set attributeName="fill" to="#808080" begin="arrowRight.mouseover" end="arrowRight.mouseout"/>
                  </use>
                  <path fill="none" stroke="white" stroke-width="1.5" d="M0,-3.0v7 M-2.5,-0.5L0,-3.0L2.5,-0.5"/>
                </g>
                <g id="arrowDown" xlink:href="#dirArrow" transform="rotate(180) translate(-30 -48)" onmousedown="handlePan(0,1)">
                  <use xlink:href="#rim" fill="#404040">
                        <set attributeName="fill" to="#808080" begin="arrowDown.mouseover" end="arrowDown.mouseout"/>
                  </use>
                  <path fill="none" stroke="white" stroke-width="1.5" d="M0,-3.0v7 M-2.5,-0.5L0,-3.0L2.5,-0.5"/>
                </g>
                <g id="arrowLeft" xlink:href="#dirArrow" transform="rotate(270) translate(-36 17)" onmousedown="handlePan(-1,0)">
                  <use xlink:href="#rim" fill="#404040">
                        <set attributeName="fill" to="#808080" begin="arrowLeft.mouseover" end="arrowLeft.mouseout"/>
                  </use>
                  <path fill="none" stroke="white" stroke-width="1.5" d="M0,-3.0v7 M-2.5,-0.5L0,-3.0L2.5,-0.5"/>
                </g>
        </g>
        <svg viewBox="0 0 15 15" width="100%" height="30px" preserveAspectRatio="xMaxYMin meet">
         <g id="arrow_out" transform="scale(0.3 0.3)">
          <a xlink:href="orange__instantiator_8cpp__incl_org.svg" target="_base">
           <rect id="button" ry="5" rx="5" y="6" x="6" height="38" width="38"
                fill="#f2f5e9" fill-opacity="0.5" stroke="#606060" stroke-width="1.0"/>
           <path id="arrow"
             d="M 11.500037,31.436501 C 11.940474,20.09759 22.043105,11.32322 32.158766,21.979434 L 37.068811,17.246167 C 37.068811,17.246167 37.088388,32 37.088388,32 L 22.160133,31.978069 C 22.160133,31.978069 26.997745,27.140456 26.997745,27.140456 C 18.528582,18.264221 13.291696,25.230495 11.500037,31.436501 z"
             style="fill:#404040;"/>
          </a>
         </g>
        </svg>
</svg>
