<?xml version="1.0" encoding="UTF-8" standalone="no"?>
<!DOCTYPE svg PUBLIC "-//W3C//DTD SVG 1.1//EN"
 "http://www.w3.org/Graphics/SVG/1.1/DTD/svg11.dtd">
<!-- Generated by graphviz version 2.38.0 (20140413.2041)
 -->
<!-- Title: orange.h Pages: 1 -->
<!--zoomable 140 -->
<svg id="main" version="1.1" xmlns="http://www.w3.org/2000/svg" xmlns:xlink="http://www.w3.org/1999/xlink" xml:space="preserve" onload="init(evt)">
<style type="text/css"><![CDATA[
.edge:hover path { stroke: red; }
.edge:hover polygon { stroke: red; fill: red; }
]]></style>
<script type="text/javascript"><![CDATA[
var edges = document.getElementsByTagName('g');
if (edges && edges.length) {
  for (var i=0;i<edges.length;i++) {
    if (edges[i].id.substr(0,4)=='edge') {
      edges[i].setAttribute('class','edge');
    }
  }
}
]]></script>
        <defs>
                <circle id="rim" cx="0" cy="0" r="7"/>
                <circle id="rim2" cx="0" cy="0" r="3.5"/>
                <g id="zoomPlus">
                        <use xlink:href="#rim" fill="#404040">
                                <set attributeName="fill" to="#808080" begin="zoomplus.mouseover" end="zoomplus.mouseout"/>
                        </use>
                        <path d="M-4,0h8M0,-4v8" fill="none" stroke="white" stroke-width="1.5" pointer-events="none"/>
                </g>
                <g id="zoomMin">
                        <use xlink:href="#rim" fill="#404040">
                                <set attributeName="fill" to="#808080" begin="zoomminus.mouseover" end="zoomminus.mouseout"/>
                        </use>
                        <path d="M-4,0h8" fill="none" stroke="white" stroke-width="1.5" pointer-events="none"/>
                </g>
                <g id="dirArrow">
                        <path fill="none" stroke="white" stroke-width="1.5" d="M0,-3.0v7 M-2.5,-0.5L0,-3.0L2.5,-0.5"/>
                </g>
               <g id="resetDef">
                       <use xlink:href="#rim2" fill="#404040">
                               <set attributeName="fill" to="#808080" begin="reset.mouseover" end="reset.mouseout"/>
                       </use>
               </g>
        </defs>

<script type="text/javascript">
var viewWidth = 1299;
var viewHeight = 140;
var sectionId = 'dynsection-0';
</script>
<script xlink:href="svgpan.js"/>
<svg id="graph" class="graph">
<g id="viewport">
<title>orange.h</title>
<polygon fill="white" stroke="none" points="-4,4 -4,-136 1295,-136 1295,4 -4,4"/>
<!-- Node1 -->
<g id="node1" class="node"><title>Node1</title>
<polygon fill="#bfbfbf" stroke="black" points="527,-112.5 527,-131.5 581,-131.5 581,-112.5 527,-112.5"/>
<text text-anchor="middle" x="554" y="-119.5" font-family="Helvetica,sans-Serif" font-size="10.00">orange.h</text>
</g>
<!-- Node2 -->
<g id="node2" class="node"><title>Node2</title>
<polygon fill="white" stroke="#bfbfbf" points="0,-56.5 0,-75.5 44,-75.5 44,-56.5 0,-56.5"/>
<text text-anchor="middle" x="22" y="-63.5" font-family="Helvetica,sans-Serif" font-size="10.00">vector</text>
</g>
<!-- Node1&#45;&gt;Node2 -->
<g id="edge1" class="edge"><title>Node1&#45;&gt;Node2</title>
<path fill="none" stroke="midnightblue" d="M526.929,-120.014C451.934,-116.966 235.323,-106.024 58,-76 56.7495,-75.7883 55.4784,-75.5559 54.1972,-75.3072"/>
<polygon fill="midnightblue" stroke="midnightblue" points="54.8721,-71.8722 44.3554,-73.157 53.3779,-78.7109 54.8721,-71.8722"/>
</g>
<!-- Node3 -->
<g id="node3" class="node"><title>Node3</title>
<polygon fill="white" stroke="#bfbfbf" points="73.5,-0.5 73.5,-19.5 116.5,-19.5 116.5,-0.5 73.5,-0.5"/>
<text text-anchor="middle" x="95" y="-7.5" font-family="Helvetica,sans-Serif" font-size="10.00">queue</text>
</g>
<!-- Node1&#45;&gt;Node3 -->
<g id="edge2" class="edge"><title>Node1&#45;&gt;Node3</title>
<path fill="none" stroke="midnightblue" d="M526.76,-120.436C431.927,-118.196 120.41,-108.407 91,-76 79.7501,-63.6037 82.8514,-43.8034 87.4666,-29.3104"/>
<polygon fill="midnightblue" stroke="midnightblue" points="90.7688,-30.4708 90.9111,-19.8769 84.1935,-28.0698 90.7688,-30.4708"/>
</g>
<!-- Node4 -->
<g id="node4" class="node"><title>Node4</title>
<polygon fill="white" stroke="#bfbfbf" points="100.5,-56.5 100.5,-75.5 147.5,-75.5 147.5,-56.5 100.5,-56.5"/>
<text text-anchor="middle" x="124" y="-63.5" font-family="Helvetica,sans-Serif" font-size="10.00">iterator</text>
</g>
<!-- Node1&#45;&gt;Node4 -->
<g id="edge3" class="edge"><title>Node1&#45;&gt;Node4</title>
<path fill="none" stroke="midnightblue" d="M526.752,-118.988C462.75,-114.021 297.962,-99.8187 162,-76 160.539,-75.7441 159.051,-75.4662 157.55,-75.1719"/>
<polygon fill="midnightblue" stroke="midnightblue" points="158.138,-71.7187 147.627,-73.0523 156.675,-78.5642 158.138,-71.7187"/>
</g>
<!-- Node5 -->
<g id="node5" class="node"><title>Node5</title>
<polygon fill="white" stroke="#bfbfbf" points="180.5,-0.5 180.5,-19.5 215.5,-19.5 215.5,-0.5 180.5,-0.5"/>
<text text-anchor="middle" x="198" y="-7.5" font-family="Helvetica,sans-Serif" font-size="10.00">map</text>
</g>
<!-- Node1&#45;&gt;Node5 -->
<g id="edge4" class="edge"><title>Node1&#45;&gt;Node5</title>
<path fill="none" stroke="midnightblue" d="M526.938,-119.636C447.134,-115.339 216.95,-100.873 195,-76 184.04,-63.5806 186.619,-44.0646 190.823,-29.6555"/>
<polygon fill="midnightblue" stroke="midnightblue" points="194.257,-30.4286 194.158,-19.8342 187.629,-28.1781 194.257,-30.4286"/>
</g>
<!-- Node6 -->
<g id="node6" class="node"><title>Node6</title>
<polygon fill="white" stroke="#bfbfbf" points="204,-56.5 204,-75.5 248,-75.5 248,-56.5 204,-56.5"/>
<text text-anchor="middle" x="226" y="-63.5" font-family="Helvetica,sans-Serif" font-size="10.00">thread</text>
</g>
<!-- Node1&#45;&gt;Node6 -->
<g id="edge5" class="edge"><title>Node1&#45;&gt;Node6</title>
<path fill="none" stroke="midnightblue" d="M526.881,-117.669C475.124,-111.125 358.791,-95.514 262,-76 260.721,-75.7422 259.419,-75.4688 258.106,-75.184"/>
<polygon fill="midnightblue" stroke="midnightblue" points="258.544,-71.6927 248.012,-72.844 256.963,-78.5119 258.544,-71.6927"/>
</g>
<!-- Node7 -->
<g id="node7" class="node"><title>Node7</title>
<polygon fill="white" stroke="#bfbfbf" points="256,-0.5 256,-19.5 296,-19.5 296,-0.5 256,-0.5"/>
<text text-anchor="middle" x="276" y="-7.5" font-family="Helvetica,sans-Serif" font-size="10.00">utility</text>
</g>
<!-- Node1&#45;&gt;Node7 -->
<g id="edge6" class="edge"><title>Node1&#45;&gt;Node7</title>
<path fill="none" stroke="midnightblue" d="M526.898,-118.293C473.227,-112.525 355.694,-97.752 322,-76 304.447,-64.6685 291.588,-44.0637 283.997,-29.0832"/>
<polygon fill="midnightblue" stroke="midnightblue" points="287.039,-27.329 279.591,-19.7937 280.715,-30.3289 287.039,-27.329"/>
</g>
<!-- Node8 -->
<g id="node8" class="node"><title>Node8</title>
<polygon fill="white" stroke="#bfbfbf" points="314,-0.5 314,-19.5 360,-19.5 360,-0.5 314,-0.5"/>
<text text-anchor="middle" x="337" y="-7.5" font-family="Helvetica,sans-Serif" font-size="10.00">stdio.h</text>
</g>
<!-- Node1&#45;&gt;Node8 -->
<g id="edge7" class="edge"><title>Node1&#45;&gt;Node8</title>
<path fill="none" stroke="midnightblue" d="M526.862,-119.615C473.331,-116.254 357.214,-105.641 333,-76 322.512,-63.1616 325.351,-43.7067 329.69,-29.426"/>
<polygon fill="midnightblue" stroke="midnightblue" points="333.091,-30.3043 333.106,-19.7095 326.487,-27.983 333.091,-30.3043"/>
</g>
<!-- Node9 -->
<g id="node9" class="node"><title>Node9</title>
<polygon fill="white" stroke="#bfbfbf" points="342.5,-56.5 342.5,-75.5 391.5,-75.5 391.5,-56.5 342.5,-56.5"/>
<text text-anchor="middle" x="367" y="-63.5" font-family="Helvetica,sans-Serif" font-size="10.00">netdb.h</text>
</g>
<!-- Node1&#45;&gt;Node9 -->
<g id="edge8" class="edge"><title>Node1&#45;&gt;Node9</title>
<path fill="none" stroke="midnightblue" d="M526.809,-113.148C493.568,-103.549 437.291,-87.2981 401.161,-76.8647"/>
<polygon fill="midnightblue" stroke="midnightblue" points="402.119,-73.4985 391.541,-74.0866 400.177,-80.2237 402.119,-73.4985"/>
</g>
<!-- Node10 -->
<g id="node10" class="node"><title>Node10</title>
<polygon fill="white" stroke="#bfbfbf" points="1152,-0.5 1152,-19.5 1206,-19.5 1206,-0.5 1152,-0.5"/>
<text text-anchor="middle" x="1179" y="-7.5" font-family="Helvetica,sans-Serif" font-size="10.00">iostream</text>
</g>
<!-- Node1&#45;&gt;Node10 -->
<g id="edge9" class="edge"><title>Node1&#45;&gt;Node10</title>
<path fill="none" stroke="midnightblue" d="M581.045,-119.69C666.2,-115.35 927.934,-100.326 1009,-76 1027.28,-70.5146 1029.47,-63.5465 1047,-56 1078.45,-42.4599 1115.44,-30.1458 1142.25,-21.8358"/>
<polygon fill="midnightblue" stroke="midnightblue" points="1143.45,-25.127 1151.99,-18.8527 1141.41,-18.4337 1143.45,-25.127"/>
</g>
<!-- Node11 -->
<g id="node11" class="node"><title>Node11</title>
<polygon fill="white" stroke="#bfbfbf" points="448,-56.5 448,-75.5 500,-75.5 500,-56.5 448,-56.5"/>
<text text-anchor="middle" x="474" y="-63.5" font-family="Helvetica,sans-Serif" font-size="10.00">sstream</text>
</g>
<!-- Node1&#45;&gt;Node11 -->
<g id="edge10" class="edge"><title>Node1&#45;&gt;Node11</title>
<path fill="none" stroke="midnightblue" d="M541.147,-112.324C528.784,-103.979 509.87,-91.2122 495.263,-81.3524"/>
<polygon fill="midnightblue" stroke="midnightblue" points="497.068,-78.3483 486.821,-75.6545 493.152,-84.1503 497.068,-78.3483"/>
</g>
<!-- Node12 -->
<g id="node12" class="node"><title>Node12</title>
<polygon fill="white" stroke="#bfbfbf" points="1084.5,-0.5 1084.5,-19.5 1133.5,-19.5 1133.5,-0.5 1084.5,-0.5"/>
<text text-anchor="middle" x="1109" y="-7.5" font-family="Helvetica,sans-Serif" font-size="10.00">string.h</text>
</g>
<!-- Node1&#45;&gt;Node12 -->
<g id="edge11" class="edge"><title>Node1&#45;&gt;Node12</title>
<path fill="none" stroke="midnightblue" d="M581.22,-120.215C637.285,-117.944 769.174,-109.207 874,-76 892.57,-70.1173 894.676,-62.611 913,-56 979.398,-32.044 1001.44,-36.9423 1074.05,-20.1056"/>
<polygon fill="midnightblue" stroke="midnightblue" points="1075.23,-23.4232 1084.15,-17.7018 1073.61,-16.6137 1075.23,-23.4232"/>
</g>
<!-- Node13 -->
<g id="node13" class="node"><title>Node13</title>
<polygon fill="white" stroke="#bfbfbf" points="556,-56.5 556,-75.5 606,-75.5 606,-56.5 556,-56.5"/>
<text text-anchor="middle" x="581" y="-63.5" font-family="Helvetica,sans-Serif" font-size="10.00">fstream</text>
</g>
<!-- Node1&#45;&gt;Node13 -->
<g id="edge12" class="edge"><title>Node1&#45;&gt;Node13</title>
<path fill="none" stroke="midnightblue" d="M558.459,-112.083C562.154,-104.691 567.523,-93.9533 572.094,-84.8111"/>
<polygon fill="midnightblue" stroke="midnightblue" points="575.283,-86.2606 576.624,-75.7511 569.022,-83.1301 575.283,-86.2606"/>
</g>
<!-- Node14 -->
<g id="node14" class="node"><title>Node14</title>
<polygon fill="white" stroke="#bfbfbf" points="624,-56.5 624,-75.5 670,-75.5 670,-56.5 624,-56.5"/>
<text text-anchor="middle" x="647" y="-63.5" font-family="Helvetica,sans-Serif" font-size="10.00">chrono</text>
</g>
<!-- Node1&#45;&gt;Node14 -->
<g id="edge13" class="edge"><title>Node1&#45;&gt;Node14</title>
<path fill="none" stroke="midnightblue" d="M568.942,-112.324C583.585,-103.822 606.134,-90.7288 623.238,-80.7975"/>
<polygon fill="midnightblue" stroke="midnightblue" points="625.205,-83.7027 632.095,-75.6545 621.69,-77.6491 625.205,-83.7027"/>
</g>
<!-- Node15 -->
<g id="node15" class="node"><title>Node15</title>
<polygon fill="white" stroke="#bfbfbf" points="440.5,-0.5 440.5,-19.5 491.5,-19.5 491.5,-0.5 440.5,-0.5"/>
<text text-anchor="middle" x="466" y="-7.5" font-family="Helvetica,sans-Serif" font-size="10.00">unistd.h</text>
</g>
<!-- Node1&#45;&gt;Node15 -->
<g id="edge14" class="edge"><title>Node1&#45;&gt;Node15</title>
<path fill="none" stroke="midnightblue" d="M548.585,-112.277C540.518,-99.503 524.613,-75.1462 509,-56 500.72,-45.8462 490.637,-35.2159 482.317,-26.8384"/>
<polygon fill="midnightblue" stroke="midnightblue" points="484.563,-24.1372 474.996,-19.5856 479.637,-29.11 484.563,-24.1372"/>
</g>
<!-- Node16 -->
<g id="node16" class="node"><title>Node16</title>
<polygon fill="white" stroke="#bfbfbf" points="378,-0.5 378,-19.5 422,-19.5 422,-0.5 378,-0.5"/>
<text text-anchor="middle" x="400" y="-7.5" font-family="Helvetica,sans-Serif" font-size="10.00">mutex</text>
</g>
<!-- Node1&#45;&gt;Node16 -->
<g id="edge15" class="edge"><title>Node1&#45;&gt;Node16</title>
<path fill="none" stroke="midnightblue" d="M526.759,-115.648C501.66,-109.577 464.544,-97.5892 439,-76 424.118,-63.4222 413.405,-43.6504 407.016,-29.2136"/>
<polygon fill="midnightblue" stroke="midnightblue" points="410.188,-27.7256 403.131,-19.8234 403.72,-30.4019 410.188,-27.7256"/>
</g>
<!-- Node17 -->
<g id="node17" class="node"><title>Node17</title>
<polygon fill="white" stroke="#bfbfbf" points="509.5,-0.5 509.5,-19.5 604.5,-19.5 604.5,-0.5 509.5,-0.5"/>
<text text-anchor="middle" x="557" y="-7.5" font-family="Helvetica,sans-Serif" font-size="10.00">condition_variable</text>
</g>
<!-- Node1&#45;&gt;Node17 -->
<g id="edge16" class="edge"><title>Node1&#45;&gt;Node17</title>
<path fill="none" stroke="midnightblue" d="M581.249,-118.583C628.65,-113.754 723.139,-101.145 743,-76 748.51,-69.0246 748.497,-62.9854 743,-56 734.91,-45.7196 666.371,-31.0558 614.826,-21.2935"/>
<polygon fill="midnightblue" stroke="midnightblue" points="615.24,-17.8103 604.766,-19.4092 613.951,-24.6906 615.24,-17.8103"/>
</g>
<!-- Node18 -->
<g id="node18" class="node"><title>Node18</title>
<g id="a_node18"><a xlink:href="orange__udp_8h.html" target="_top" xlink:title="orange_udp.h">
<polygon fill="white" stroke="black" points="790.5,-56.5 790.5,-75.5 865.5,-75.5 865.5,-56.5 790.5,-56.5"/>
<text text-anchor="middle" x="828" y="-63.5" font-family="Helvetica,sans-Serif" font-size="10.00">orange_udp.h</text>
</a>
</g>
</g>
<!-- Node1&#45;&gt;Node18 -->
<g id="edge17" class="edge"><title>Node1&#45;&gt;Node18</title>
<path fill="none" stroke="midnightblue" d="M581.274,-115.625C627.755,-106.464 722.866,-87.7199 780.471,-76.3671"/>
<polygon fill="midnightblue" stroke="midnightblue" points="781.288,-79.7735 790.422,-74.4058 779.934,-72.9056 781.288,-79.7735"/>
</g>
<!-- Node25 -->
<g id="node25" class="node"><title>Node25</title>
<g id="a_node25"><a xlink:href="bitmap_8h.html" target="_top" xlink:title="bitmap.h">
<polygon fill="white" stroke="black" points="1237,-56.5 1237,-75.5 1291,-75.5 1291,-56.5 1237,-56.5"/>
<text text-anchor="middle" x="1264" y="-63.5" font-family="Helvetica,sans-Serif" font-size="10.00">bitmap.h</text>
</a>
</g>
</g>
<!-- Node1&#45;&gt;Node25 -->
<g id="edge27" class="edge"><title>Node1&#45;&gt;Node25</title>
<path fill="none" stroke="midnightblue" d="M581.11,-120.854C671.396,-120.017 970.142,-114.442 1226.38,-75.7809"/>
<polygon fill="midnightblue" stroke="midnightblue" points="1227.27,-79.1855 1236.63,-74.2136 1226.21,-72.2659 1227.27,-79.1855"/>
</g>
<!-- Node27 -->
<g id="node27" class="node"><title>Node27</title>
<g id="a_node27"><a xlink:href="sudp_8h.html" target="_top" xlink:title="sudp.h">
<polygon fill="white" stroke="black" points="688,-56.5 688,-75.5 734,-75.5 734,-56.5 688,-56.5"/>
<text text-anchor="middle" x="711" y="-63.5" font-family="Helvetica,sans-Serif" font-size="10.00">sudp.h</text>
</a>
</g>
</g>
<!-- Node1&#45;&gt;Node27 -->
<g id="edge30" class="edge"><title>Node1&#45;&gt;Node27</title>
<path fill="none" stroke="midnightblue" d="M578.877,-112.444C605.755,-103.199 648.7,-88.4281 678.293,-78.2495"/>
<polygon fill="midnightblue" stroke="midnightblue" points="679.457,-81.5506 687.775,-74.9883 677.18,-74.9312 679.457,-81.5506"/>
</g>
<!-- Node28 -->
<g id="node28" class="node"><title>Node28</title>
<g id="a_node28"><a xlink:href="frames_8h.html" target="_top" xlink:title="frames.h">
<polygon fill="white" stroke="black" points="1056.5,-56.5 1056.5,-75.5 1111.5,-75.5 1111.5,-56.5 1056.5,-56.5"/>
<text text-anchor="middle" x="1084" y="-63.5" font-family="Helvetica,sans-Serif" font-size="10.00">frames.h</text>
</a>
</g>
</g>
<!-- Node1&#45;&gt;Node28 -->
<g id="edge43" class="edge"><title>Node1&#45;&gt;Node28</title>
<path fill="none" stroke="midnightblue" d="M581.118,-119.636C655.263,-115.662 867.478,-102.648 1042,-76 1043.29,-75.8037 1044.59,-75.5924 1045.91,-75.3691"/>
<polygon fill="midnightblue" stroke="midnightblue" points="1046.88,-78.7471 1056.07,-73.4697 1045.6,-71.8662 1046.88,-78.7471"/>
</g>
<!-- Node29 -->
<g id="node29" class="node"><title>Node29</title>
<g id="a_node29"><a xlink:href="orange__frames_8h.html" target="_top" xlink:title="orange_frames.h">
<polygon fill="white" stroke="black" points="1129.5,-56.5 1129.5,-75.5 1218.5,-75.5 1218.5,-56.5 1129.5,-56.5"/>
<text text-anchor="middle" x="1174" y="-63.5" font-family="Helvetica,sans-Serif" font-size="10.00">orange_frames.h</text>
</a>
</g>
</g>
<!-- Node1&#45;&gt;Node29 -->
<g id="edge44" class="edge"><title>Node1&#45;&gt;Node29</title>
<path fill="none" stroke="midnightblue" d="M581.182,-119.668C661.642,-115.552 905.77,-101.801 1119.12,-75.9992"/>
<polygon fill="midnightblue" stroke="midnightblue" points="1119.75,-79.448 1129.25,-74.7615 1118.9,-72.4996 1119.75,-79.448"/>
</g>
<!-- Node30 -->
<g id="node30" class="node"><title>Node30</title>
<g id="a_node30"><a xlink:href="ip__converter_8h.html" target="_top" xlink:title="ip_converter.h">
<polygon fill="white" stroke="black" points="922,-56.5 922,-75.5 1000,-75.5 1000,-56.5 922,-56.5"/>
<text text-anchor="middle" x="961" y="-63.5" font-family="Helvetica,sans-Serif" font-size="10.00">ip_converter.h</text>
</a>
</g>
</g>
<!-- Node1&#45;&gt;Node30 -->
<g id="edge45" class="edge"><title>Node1&#45;&gt;Node30</title>
<path fill="none" stroke="midnightblue" d="M581.144,-117.941C640.519,-111.165 786.356,-94.0519 908,-76 909.272,-75.8112 910.561,-75.6166 911.861,-75.4175"/>
<polygon fill="midnightblue" stroke="midnightblue" points="912.625,-78.8403 921.955,-73.8203 911.531,-71.9263 912.625,-78.8403"/>
</g>
<!-- Node18&#45;&gt;Node10 -->
<g id="edge18" class="edge"><title>Node18&#45;&gt;Node10</title>
<path fill="none" stroke="midnightblue" d="M865.897,-60.7639C925.109,-53.8768 1043.04,-39.0803 1142,-20 1142.1,-19.9804 1142.2,-19.9608 1142.3,-19.941"/>
<polygon fill="midnightblue" stroke="midnightblue" points="1142.93,-23.3861 1151.99,-17.8885 1141.48,-16.5383 1142.93,-23.3861"/>
</g>
<!-- Node18&#45;&gt;Node12 -->
<g id="edge26" class="edge"><title>Node18&#45;&gt;Node12</title>
<path fill="none" stroke="midnightblue" d="M865.516,-58.3331C923.893,-47.936 1033.31,-28.3501 1074.33,-19.9206"/>
<polygon fill="midnightblue" stroke="midnightblue" points="1075.13,-23.3289 1084.17,-17.8128 1073.66,-16.4841 1075.13,-23.3289"/>
</g>
<!-- Node18&#45;&gt;Node15 -->
<g id="edge24" class="edge"><title>Node18&#45;&gt;Node15</title>
<path fill="none" stroke="midnightblue" d="M790.366,-60.4262C720.105,-51.7947 570.518,-32.9601 501.51,-20.0577"/>
<polygon fill="midnightblue" stroke="midnightblue" points="502.025,-16.5924 491.541,-18.1197 500.69,-23.4638 502.025,-16.5924"/>
</g>
<!-- Node19 -->
<g id="node19" class="node"><title>Node19</title>
<polygon fill="white" stroke="#bfbfbf" points="1025.5,-0.5 1025.5,-19.5 1066.5,-19.5 1066.5,-0.5 1025.5,-0.5"/>
<text text-anchor="middle" x="1046" y="-7.5" font-family="Helvetica,sans-Serif" font-size="10.00">string</text>
</g>
<!-- Node18&#45;&gt;Node19 -->
<g id="edge19" class="edge"><title>Node18&#45;&gt;Node19</title>
<path fill="none" stroke="midnightblue" d="M865.611,-56.6555C901.669,-48.5095 957.836,-35.4408 1015.71,-19.9586"/>
<polygon fill="midnightblue" stroke="midnightblue" points="1016.64,-23.3321 1025.39,-17.3509 1014.82,-16.5731 1016.64,-23.3321"/>
</g>
<!-- Node20 -->
<g id="node20" class="node"><title>Node20</title>
<polygon fill="white" stroke="#bfbfbf" points="684,-0.5 684,-19.5 752,-19.5 752,-0.5 684,-0.5"/>
<text text-anchor="middle" x="718" y="-7.5" font-family="Helvetica,sans-Serif" font-size="10.00">sys/types.h</text>
</g>
<!-- Node18&#45;&gt;Node20 -->
<g id="edge20" class="edge"><title>Node18&#45;&gt;Node20</title>
<path fill="none" stroke="midnightblue" d="M810.327,-56.324C792.606,-47.6247 765.097,-34.1202 744.712,-24.113"/>
<polygon fill="midnightblue" stroke="midnightblue" points="746.149,-20.9195 735.63,-19.6545 743.064,-27.2031 746.149,-20.9195"/>
</g>
<!-- Node21 -->
<g id="node21" class="node"><title>Node21</title>
<polygon fill="white" stroke="#bfbfbf" points="770.5,-0.5 770.5,-19.5 843.5,-19.5 843.5,-0.5 770.5,-0.5"/>
<text text-anchor="middle" x="807" y="-7.5" font-family="Helvetica,sans-Serif" font-size="10.00">sys/socket.h</text>
</g>
<!-- Node18&#45;&gt;Node21 -->
<g id="edge21" class="edge"><title>Node18&#45;&gt;Node21</title>
<path fill="none" stroke="midnightblue" d="M824.532,-56.083C821.688,-48.77 817.571,-38.1814 814.04,-29.1034"/>
<polygon fill="midnightblue" stroke="midnightblue" points="817.29,-27.8025 810.403,-19.7511 810.766,-30.3397 817.29,-27.8025"/>
</g>
<!-- Node22 -->
<g id="node22" class="node"><title>Node22</title>
<polygon fill="white" stroke="#bfbfbf" points="862,-0.5 862,-19.5 924,-19.5 924,-0.5 862,-0.5"/>
<text text-anchor="middle" x="893" y="-7.5" font-family="Helvetica,sans-Serif" font-size="10.00">arpa/inet.h</text>
</g>
<!-- Node18&#45;&gt;Node22 -->
<g id="edge22" class="edge"><title>Node18&#45;&gt;Node22</title>
<path fill="none" stroke="midnightblue" d="M838.443,-56.324C848.146,-48.2631 862.815,-36.0765 874.5,-26.3695"/>
<polygon fill="midnightblue" stroke="midnightblue" points="876.911,-28.9163 882.367,-19.8339 872.438,-23.532 876.911,-28.9163"/>
</g>
<!-- Node23 -->
<g id="node23" class="node"><title>Node23</title>
<polygon fill="white" stroke="#bfbfbf" points="942.5,-0.5 942.5,-19.5 1007.5,-19.5 1007.5,-0.5 942.5,-0.5"/>
<text text-anchor="middle" x="975" y="-7.5" font-family="Helvetica,sans-Serif" font-size="10.00">netinet/in.h</text>
</g>
<!-- Node18&#45;&gt;Node23 -->
<g id="edge23" class="edge"><title>Node18&#45;&gt;Node23</title>
<path fill="none" stroke="midnightblue" d="M851.293,-56.4435C875.807,-47.4381 914.596,-33.1891 942.2,-23.049"/>
<polygon fill="midnightblue" stroke="midnightblue" points="943.637,-26.25 951.816,-19.5164 941.223,-19.6793 943.637,-26.25"/>
</g>
<!-- Node24 -->
<g id="node24" class="node"><title>Node24</title>
<polygon fill="white" stroke="#bfbfbf" points="622.5,-0.5 622.5,-19.5 665.5,-19.5 665.5,-0.5 622.5,-0.5"/>
<text text-anchor="middle" x="644" y="-7.5" font-family="Helvetica,sans-Serif" font-size="10.00">cstdio</text>
</g>
<!-- Node18&#45;&gt;Node24 -->
<g id="edge25" class="edge"><title>Node18&#45;&gt;Node24</title>
<path fill="none" stroke="midnightblue" d="M798.845,-56.4435C765.233,-46.5794 710.186,-30.424 675.581,-20.2685"/>
<polygon fill="midnightblue" stroke="midnightblue" points="676.126,-16.7807 665.545,-17.323 674.155,-23.4974 676.126,-16.7807"/>
</g>
<!-- Node25&#45;&gt;Node10 -->
<g id="edge29" class="edge"><title>Node25&#45;&gt;Node10</title>
<path fill="none" stroke="midnightblue" d="M1250.34,-56.324C1237.08,-47.9002 1216.73,-34.9709 1201.15,-25.0741"/>
<polygon fill="midnightblue" stroke="midnightblue" points="1202.94,-22.0626 1192.62,-19.6545 1199.19,-27.9711 1202.94,-22.0626"/>
</g>
<!-- Node26 -->
<g id="node26" class="node"><title>Node26</title>
<polygon fill="white" stroke="#bfbfbf" points="1238,-0.5 1238,-19.5 1290,-19.5 1290,-0.5 1238,-0.5"/>
<text text-anchor="middle" x="1264" y="-7.5" font-family="Helvetica,sans-Serif" font-size="10.00">assert.h</text>
</g>
<!-- Node25&#45;&gt;Node26 -->
<g id="edge28" class="edge"><title>Node25&#45;&gt;Node26</title>
<path fill="none" stroke="midnightblue" d="M1264,-56.083C1264,-49.0059 1264,-38.8611 1264,-29.9865"/>
<polygon fill="midnightblue" stroke="midnightblue" points="1267.5,-29.751 1264,-19.7511 1260.5,-29.7511 1267.5,-29.751"/>
</g>
<!-- Node27&#45;&gt;Node3 -->
<g id="edge42" class="edge"><title>Node27&#45;&gt;Node3</title>
<path fill="none" stroke="midnightblue" d="M687.707,-57.8578C684.796,-57.1402 681.843,-56.4952 679,-56 456.014,-17.1584 396.338,-41.3149 171,-20 156.492,-18.6277 140.465,-16.7792 126.884,-15.1146"/>
<polygon fill="midnightblue" stroke="midnightblue" points="126.948,-11.5956 116.592,-13.8315 126.082,-18.5418 126.948,-11.5956"/>
</g>
<!-- Node27&#45;&gt;Node5 -->
<g id="edge41" class="edge"><title>Node27&#45;&gt;Node5</title>
<path fill="none" stroke="midnightblue" d="M687.701,-57.892C684.791,-57.1686 681.84,-56.5128 679,-56 489.401,-21.7623 437.979,-45.4335 247,-20 240.136,-19.0859 232.772,-17.8632 225.894,-16.6145"/>
<polygon fill="midnightblue" stroke="midnightblue" points="226.1,-13.0916 215.624,-14.6712 224.799,-19.9695 226.1,-13.0916"/>
</g>
<!-- Node27&#45;&gt;Node7 -->
<g id="edge39" class="edge"><title>Node27&#45;&gt;Node7</title>
<path fill="none" stroke="midnightblue" d="M687.695,-57.9273C684.785,-57.1979 681.836,-56.531 679,-56 518.067,-25.8723 470.561,-51.8629 306.113,-19.8159"/>
<polygon fill="midnightblue" stroke="midnightblue" points="306.636,-16.3513 296.145,-17.8308 305.268,-23.2165 306.636,-16.3513"/>
</g>
<!-- Node27&#45;&gt;Node8 -->
<g id="edge37" class="edge"><title>Node27&#45;&gt;Node8</title>
<path fill="none" stroke="midnightblue" d="M687.685,-57.9814C684.777,-57.2427 681.831,-56.5588 679,-56 546.111,-29.7685 506.906,-46.0548 370.321,-19.971"/>
<polygon fill="midnightblue" stroke="midnightblue" points="370.801,-16.4988 360.315,-18.0186 369.46,-23.3692 370.801,-16.4988"/>
</g>
<!-- Node27&#45;&gt;Node15 -->
<g id="edge35" class="edge"><title>Node27&#45;&gt;Node15</title>
<path fill="none" stroke="midnightblue" d="M687.983,-58.3016C684.97,-57.4911 681.918,-56.7026 679,-56 603.189,-37.7432 580.771,-38.3135 501.531,-20.2459"/>
<polygon fill="midnightblue" stroke="midnightblue" points="502.11,-16.7874 491.578,-17.9476 500.535,-23.608 502.11,-16.7874"/>
</g>
<!-- Node27&#45;&gt;Node16 -->
<g id="edge38" class="edge"><title>Node27&#45;&gt;Node16</title>
<path fill="none" stroke="midnightblue" d="M687.668,-58.0598C684.763,-57.3076 681.823,-56.5992 679,-56 573.135,-33.5286 541.626,-43.0036 432.041,-19.9606"/>
<polygon fill="midnightblue" stroke="midnightblue" points="432.768,-16.5371 422.257,-17.8614 431.3,-23.3813 432.768,-16.5371"/>
</g>
<!-- Node27&#45;&gt;Node17 -->
<g id="edge40" class="edge"><title>Node27&#45;&gt;Node17</title>
<path fill="none" stroke="midnightblue" d="M687.945,-56.9157C662.238,-47.9016 620.411,-33.235 590.96,-22.9079"/>
<polygon fill="midnightblue" stroke="midnightblue" points="592.082,-19.5927 581.488,-19.5865 589.766,-26.1984 592.082,-19.5927"/>
</g>
<!-- Node27&#45;&gt;Node20 -->
<g id="edge31" class="edge"><title>Node27&#45;&gt;Node20</title>
<path fill="none" stroke="midnightblue" d="M712.156,-56.083C713.084,-48.9272 714.418,-38.6353 715.577,-29.6911"/>
<polygon fill="midnightblue" stroke="midnightblue" points="719.051,-30.1181 716.866,-19.7511 712.109,-29.2181 719.051,-30.1181"/>
</g>
<!-- Node27&#45;&gt;Node21 -->
<g id="edge32" class="edge"><title>Node27&#45;&gt;Node21</title>
<path fill="none" stroke="midnightblue" d="M726.424,-56.324C741.54,-47.8215 764.815,-34.7288 782.471,-24.7975"/>
<polygon fill="midnightblue" stroke="midnightblue" points="784.614,-27.6077 791.614,-19.6545 781.183,-21.5066 784.614,-27.6077"/>
</g>
<!-- Node27&#45;&gt;Node22 -->
<g id="edge33" class="edge"><title>Node27&#45;&gt;Node22</title>
<path fill="none" stroke="midnightblue" d="M734.05,-58.1609C764.302,-49.1852 817.829,-33.3034 854.334,-22.4722"/>
<polygon fill="midnightblue" stroke="midnightblue" points="855.555,-25.7611 864.146,-19.5611 853.563,-19.0502 855.555,-25.7611"/>
</g>
<!-- Node27&#45;&gt;Node23 -->
<g id="edge34" class="edge"><title>Node27&#45;&gt;Node23</title>
<path fill="none" stroke="midnightblue" d="M734.028,-60.4198C772.713,-52.7064 853.449,-36.5289 932.339,-20.1188"/>
<polygon fill="midnightblue" stroke="midnightblue" points="933.372,-23.4789 942.448,-18.0127 931.945,-16.626 933.372,-23.4789"/>
</g>
<!-- Node27&#45;&gt;Node24 -->
<g id="edge36" class="edge"><title>Node27&#45;&gt;Node24</title>
<path fill="none" stroke="midnightblue" d="M700.235,-56.324C690.234,-48.2631 675.113,-36.0765 663.07,-26.3695"/>
<polygon fill="midnightblue" stroke="midnightblue" points="664.943,-23.3841 654.961,-19.8339 660.55,-28.8343 664.943,-23.3841"/>
</g>
<!-- Node30&#45;&gt;Node10 -->
<g id="edge47" class="edge"><title>Node30&#45;&gt;Node10</title>
<path fill="none" stroke="midnightblue" d="M995.543,-56.4435C1035.5,-46.5464 1101.02,-30.3159 1141.99,-20.1668"/>
<polygon fill="midnightblue" stroke="midnightblue" points="1142.99,-23.5269 1151.85,-17.7251 1141.3,-16.7322 1142.99,-23.5269"/>
</g>
<!-- Node30&#45;&gt;Node12 -->
<g id="edge46" class="edge"><title>Node30&#45;&gt;Node12</title>
<path fill="none" stroke="midnightblue" d="M984.451,-56.4435C1009.13,-47.4381 1048.19,-33.1891 1075.98,-23.049"/>
<polygon fill="midnightblue" stroke="midnightblue" points="1077.46,-26.2321 1085.66,-19.5164 1075.06,-19.6561 1077.46,-26.2321"/>
</g>
</g>
</svg>
        <g id="navigator" transform="translate(0 0)" fill="#404254">
                <rect fill="#f2f5e9" fill-opacity="0.5" stroke="#606060" stroke-width=".5" x="0" y="0" width="60" height="60"/>
                <use id="zoomplus" xlink:href="#zoomPlus" x="17" y="9" onmousedown="handleZoom(evt,'in')"/>
                <use id="zoomminus" xlink:href="#zoomMin" x="42" y="9" onmousedown="handleZoom(evt,'out')"/>
                <use id="reset" xlink:href="#resetDef" x="30" y="36" onmousedown="handleReset()"/>
                <g id="arrowUp" xlink:href="#dirArrow" transform="translate(30 24)" onmousedown="handlePan(0,-1)">
                  <use xlink:href="#rim" fill="#404040">
                        <set attributeName="fill" to="#808080" begin="arrowUp.mouseover" end="arrowUp.mouseout"/>
                  </use>
                  <path fill="none" stroke="white" stroke-width="1.5" d="M0,-3.0v7 M-2.5,-0.5L0,-3.0L2.5,-0.5"/>
                </g>
                <g id="arrowRight" xlink:href="#dirArrow" transform="rotate(90) translate(36 -43)" onmousedown="handlePan(1,0)">
                  <use xlink:href="#rim" fill="#404040">
                        <set attributeName="fill" to="#808080" begin="arrowRight.mouseover" end="arrowRight.mouseout"/>
                  </use>
                  <path fill="none" stroke="white" stroke-width="1.5" d="M0,-3.0v7 M-2.5,-0.5L0,-3.0L2.5,-0.5"/>
                </g>
                <g id="arrowDown" xlink:href="#dirArrow" transform="rotate(180) translate(-30 -48)" onmousedown="handlePan(0,1)">
                  <use xlink:href="#rim" fill="#404040">
                        <set attributeName="fill" to="#808080" begin="arrowDown.mouseover" end="arrowDown.mouseout"/>
                  </use>
                  <path fill="none" stroke="white" stroke-width="1.5" d="M0,-3.0v7 M-2.5,-0.5L0,-3.0L2.5,-0.5"/>
                </g>
                <g id="arrowLeft" xlink:href="#dirArrow" transform="rotate(270) translate(-36 17)" onmousedown="handlePan(-1,0)">
                  <use xlink:href="#rim" fill="#404040">
                        <set attributeName="fill" to="#808080" begin="arrowLeft.mouseover" end="arrowLeft.mouseout"/>
                  </use>
                  <path fill="none" stroke="white" stroke-width="1.5" d="M0,-3.0v7 M-2.5,-0.5L0,-3.0L2.5,-0.5"/>
                </g>
        </g>
        <svg viewBox="0 0 15 15" width="100%" height="30px" preserveAspectRatio="xMaxYMin meet">
         <g id="arrow_out" transform="scale(0.3 0.3)">
          <a xlink:href="orange_8h__incl_org.svg" target="_base">
           <rect id="button" ry="5" rx="5" y="6" x="6" height="38" width="38"
                fill="#f2f5e9" fill-opacity="0.5" stroke="#606060" stroke-width="1.0"/>
           <path id="arrow"
             d="M 11.500037,31.436501 C 11.940474,20.09759 22.043105,11.32322 32.158766,21.979434 L 37.068811,17.246167 C 37.068811,17.246167 37.088388,32 37.088388,32 L 22.160133,31.978069 C 22.160133,31.978069 26.997745,27.140456 26.997745,27.140456 C 18.528582,18.264221 13.291696,25.230495 11.500037,31.436501 z"
             style="fill:#404040;"/>
          </a>
         </g>
        </svg>
</svg>
