<?xml version="1.0" encoding="UTF-8" standalone="no"?>
<!DOCTYPE svg PUBLIC "-//W3C//DTD SVG 1.1//EN"
 "http://www.w3.org/Graphics/SVG/1.1/DTD/svg11.dtd">
<!-- Generated by graphviz version 2.38.0 (20140413.2041)
 -->
<!-- Title: smap_value Pages: 1 -->
<svg width="160pt" height="193pt"
 viewBox="0.00 0.00 159.50 193.00" xmlns="http://www.w3.org/2000/svg" xmlns:xlink="http://www.w3.org/1999/xlink">
<g id="graph0" class="graph" transform="scale(1 1) rotate(0) translate(4 189)">
<title>smap_value</title>
<polygon fill="white" stroke="none" points="-4,4 -4,-189 155.5,-189 155.5,4 -4,4"/>
<!-- Node1 -->
<g id="node1" class="node"><title>Node1</title>
<polygon fill="#bfbfbf" stroke="black" points="40,-0.5 40,-57.5 109,-57.5 109,-0.5 40,-0.5"/>
<text text-anchor="middle" x="74.5" y="-45.5" font-family="Helvetica,sans-Serif" font-size="10.00">smap_value</text>
<polyline fill="none" stroke="black" points="40,-38.5 109,-38.5 "/>
<text text-anchor="start" x="48" y="-26.5" font-family="Helvetica,sans-Serif" font-size="10.00">+ msg_size</text>
<polyline fill="none" stroke="black" points="40,-19.5 109,-19.5 "/>
<text text-anchor="middle" x="74.5" y="-7.5" font-family="Helvetica,sans-Serif" font-size="10.00"> </text>
</g>
<!-- Node2 -->
<g id="node2" class="node"><title>Node2</title>
<g id="a_node2"><a xlink:href="sudp_8h.html#structsudp__rdata" target="_top" xlink:title="{sudp_rdata\n|+ addr\l+ port\l|}">
<polygon fill="white" stroke="black" points="0,-111 0,-179 65,-179 65,-111 0,-111"/>
<text text-anchor="middle" x="32.5" y="-167" font-family="Helvetica,sans-Serif" font-size="10.00">sudp_rdata</text>
<polyline fill="none" stroke="black" points="0,-160 65,-160 "/>
<text text-anchor="start" x="8" y="-148" font-family="Helvetica,sans-Serif" font-size="10.00">+ addr</text>
<text text-anchor="start" x="8" y="-137" font-family="Helvetica,sans-Serif" font-size="10.00">+ port</text>
<polyline fill="none" stroke="black" points="0,-130 65,-130 "/>
<text text-anchor="middle" x="32.5" y="-118" font-family="Helvetica,sans-Serif" font-size="10.00"> </text>
</a>
</g>
</g>
<!-- Node2&#45;&gt;Node1 -->
<g id="edge1" class="edge"><title>Node2&#45;&gt;Node1</title>
<path fill="none" stroke="#404040" d="M44.761,-110.72C49.5551,-97.7075 55.0888,-82.6875 60.0731,-69.1588"/>
<polygon fill="none" stroke="#404040" points="60.1308,-69.0019 58.4517,-61.989 64.2794,-57.7418 65.9585,-64.7547 60.1308,-69.0019"/>
<text text-anchor="middle" x="73" y="-79" font-family="Helvetica,sans-Serif" font-size="10.00"> +rdata</text>
</g>
<!-- Node3 -->
<g id="node3" class="node"><title>Node3</title>
<g id="a_node3"><a xlink:href="sudp_8h.html#structsudp__frame" target="_top" xlink:title="Struct for the Secure Udp frame encapsulation. Types: 0 —&gt; sender/receiver 1 —&gt; ack...">
<polygon fill="white" stroke="black" points="83.5,-105.5 83.5,-184.5 151.5,-184.5 151.5,-105.5 83.5,-105.5"/>
<text text-anchor="middle" x="117.5" y="-172.5" font-family="Helvetica,sans-Serif" font-size="10.00">sudp_frame</text>
<polyline fill="none" stroke="black" points="83.5,-165.5 151.5,-165.5 "/>
<text text-anchor="start" x="91.5" y="-153.5" font-family="Helvetica,sans-Serif" font-size="10.00">+ type</text>
<text text-anchor="start" x="91.5" y="-142.5" font-family="Helvetica,sans-Serif" font-size="10.00">+ sn</text>
<text text-anchor="start" x="91.5" y="-131.5" font-family="Helvetica,sans-Serif" font-size="10.00">+ payload</text>
<polyline fill="none" stroke="black" points="83.5,-124.5 151.5,-124.5 "/>
<text text-anchor="middle" x="117.5" y="-112.5" font-family="Helvetica,sans-Serif" font-size="10.00"> </text>
</a>
</g>
</g>
<!-- Node3&#45;&gt;Node1 -->
<g id="edge2" class="edge"><title>Node3&#45;&gt;Node1</title>
<path fill="none" stroke="#404040" d="M103.492,-105.469C99.9443,-95.831 96.1143,-85.5256 92.5,-76 91.6206,-73.6823 90.7103,-71.3015 89.7873,-68.9014"/>
<polygon fill="none" stroke="#404040" points="89.7804,-68.8836 83.8824,-64.7346 85.4438,-57.6945 91.3418,-61.8435 89.7804,-68.8836"/>
<text text-anchor="middle" x="113.5" y="-79" font-family="Helvetica,sans-Serif" font-size="10.00"> +frame</text>
</g>
</g>
</svg>
