<?xml version="1.0" encoding="UTF-8" standalone="no"?>
<!DOCTYPE svg PUBLIC "-//W3C//DTD SVG 1.1//EN"
 "http://www.w3.org/Graphics/SVG/1.1/DTD/svg11.dtd">
<!-- Generated by graphviz version 2.38.0 (20140413.2041)
 -->
<!-- Title: sudp.cpp Pages: 1 -->
<svg width="880pt" height="140pt"
 viewBox="0.00 0.00 879.50 140.00" xmlns="http://www.w3.org/2000/svg" xmlns:xlink="http://www.w3.org/1999/xlink">
<g id="graph0" class="graph" transform="scale(1 1) rotate(0) translate(4 136)">
<title>sudp.cpp</title>
<polygon fill="white" stroke="none" points="-4,4 -4,-136 875.5,-136 875.5,4 -4,4"/>
<!-- Node1 -->
<g id="node1" class="node"><title>Node1</title>
<polygon fill="#bfbfbf" stroke="black" points="626,-112.5 626,-131.5 682,-131.5 682,-112.5 626,-112.5"/>
<text text-anchor="middle" x="654" y="-119.5" font-family="Helvetica,sans-Serif" font-size="10.00">sudp.cpp</text>
</g>
<!-- Node2 -->
<g id="node2" class="node"><title>Node2</title>
<g id="a_node2"><a xlink:href="sudp_8h.html" target="_top" xlink:title="sudp.h">
<polygon fill="white" stroke="black" points="440,-56.5 440,-75.5 486,-75.5 486,-56.5 440,-56.5"/>
<text text-anchor="middle" x="463" y="-63.5" font-family="Helvetica,sans-Serif" font-size="10.00">sudp.h</text>
</a>
</g>
</g>
<!-- Node1&#45;&gt;Node2 -->
<g id="edge1" class="edge"><title>Node1&#45;&gt;Node2</title>
<path fill="none" stroke="midnightblue" d="M625.817,-113.032C591.196,-103.244 532.56,-86.6663 495.907,-76.3037"/>
<polygon fill="midnightblue" stroke="midnightblue" points="496.766,-72.9092 486.191,-73.5565 494.861,-79.6452 496.766,-72.9092"/>
</g>
<!-- Node15 -->
<g id="node15" class="node"><title>Node15</title>
<polygon fill="white" stroke="#bfbfbf" points="504,-56.5 504,-75.5 550,-75.5 550,-56.5 504,-56.5"/>
<text text-anchor="middle" x="527" y="-63.5" font-family="Helvetica,sans-Serif" font-size="10.00">cstdint</text>
</g>
<!-- Node1&#45;&gt;Node15 -->
<g id="edge14" class="edge"><title>Node1&#45;&gt;Node15</title>
<path fill="none" stroke="midnightblue" d="M633.876,-112.444C612.976,-103.557 580.065,-89.5632 556.284,-79.4514"/>
<polygon fill="midnightblue" stroke="midnightblue" points="557.602,-76.2085 547.029,-75.5164 554.862,-82.6504 557.602,-76.2085"/>
</g>
<!-- Node16 -->
<g id="node16" class="node"><title>Node16</title>
<polygon fill="white" stroke="#bfbfbf" points="568,-56.5 568,-75.5 614,-75.5 614,-56.5 568,-56.5"/>
<text text-anchor="middle" x="591" y="-63.5" font-family="Helvetica,sans-Serif" font-size="10.00">cstring</text>
</g>
<!-- Node1&#45;&gt;Node16 -->
<g id="edge15" class="edge"><title>Node1&#45;&gt;Node16</title>
<path fill="none" stroke="midnightblue" d="M643.878,-112.324C634.474,-104.263 620.256,-92.0765 608.931,-82.3695"/>
<polygon fill="midnightblue" stroke="midnightblue" points="611.177,-79.6844 601.306,-75.8339 606.621,-84.9993 611.177,-79.6844"/>
</g>
<!-- Node17 -->
<g id="node17" class="node"><title>Node17</title>
<polygon fill="white" stroke="#bfbfbf" points="632,-56.5 632,-75.5 676,-75.5 676,-56.5 632,-56.5"/>
<text text-anchor="middle" x="654" y="-63.5" font-family="Helvetica,sans-Serif" font-size="10.00">thread</text>
</g>
<!-- Node1&#45;&gt;Node17 -->
<g id="edge16" class="edge"><title>Node1&#45;&gt;Node17</title>
<path fill="none" stroke="midnightblue" d="M654,-112.083C654,-105.006 654,-94.8611 654,-85.9865"/>
<polygon fill="midnightblue" stroke="midnightblue" points="657.5,-85.751 654,-75.7511 650.5,-85.7511 657.5,-85.751"/>
</g>
<!-- Node18 -->
<g id="node18" class="node"><title>Node18</title>
<polygon fill="white" stroke="#bfbfbf" points="694,-56.5 694,-75.5 740,-75.5 740,-56.5 694,-56.5"/>
<text text-anchor="middle" x="717" y="-63.5" font-family="Helvetica,sans-Serif" font-size="10.00">chrono</text>
</g>
<!-- Node1&#45;&gt;Node18 -->
<g id="edge17" class="edge"><title>Node1&#45;&gt;Node18</title>
<path fill="none" stroke="midnightblue" d="M664.122,-112.324C673.526,-104.263 687.744,-92.0765 699.069,-82.3695"/>
<polygon fill="midnightblue" stroke="midnightblue" points="701.379,-84.9993 706.694,-75.8339 696.823,-79.6844 701.379,-84.9993"/>
</g>
<!-- Node19 -->
<g id="node19" class="node"><title>Node19</title>
<polygon fill="white" stroke="#bfbfbf" points="758,-56.5 758,-75.5 812,-75.5 812,-56.5 758,-56.5"/>
<text text-anchor="middle" x="785" y="-63.5" font-family="Helvetica,sans-Serif" font-size="10.00">iostream</text>
</g>
<!-- Node1&#45;&gt;Node19 -->
<g id="edge18" class="edge"><title>Node1&#45;&gt;Node19</title>
<path fill="none" stroke="midnightblue" d="M674.757,-112.444C696.316,-103.557 730.263,-89.5632 754.794,-79.4514"/>
<polygon fill="midnightblue" stroke="midnightblue" points="756.428,-82.5634 764.34,-75.5164 753.761,-76.0917 756.428,-82.5634"/>
</g>
<!-- Node20 -->
<g id="node20" class="node"><title>Node20</title>
<polygon fill="white" stroke="#bfbfbf" points="830.5,-56.5 830.5,-75.5 871.5,-75.5 871.5,-56.5 830.5,-56.5"/>
<text text-anchor="middle" x="851" y="-63.5" font-family="Helvetica,sans-Serif" font-size="10.00">string</text>
</g>
<!-- Node1&#45;&gt;Node20 -->
<g id="edge19" class="edge"><title>Node1&#45;&gt;Node20</title>
<path fill="none" stroke="midnightblue" d="M682.138,-113.677C713.502,-105.459 765.962,-91.5441 820.52,-76.0759"/>
<polygon fill="midnightblue" stroke="midnightblue" points="821.706,-79.3775 830.366,-73.2738 819.789,-72.6448 821.706,-79.3775"/>
</g>
<!-- Node3 -->
<g id="node3" class="node"><title>Node3</title>
<polygon fill="white" stroke="#bfbfbf" points="0,-0.5 0,-19.5 68,-19.5 68,-0.5 0,-0.5"/>
<text text-anchor="middle" x="34" y="-7.5" font-family="Helvetica,sans-Serif" font-size="10.00">sys/types.h</text>
</g>
<!-- Node2&#45;&gt;Node3 -->
<g id="edge2" class="edge"><title>Node2&#45;&gt;Node3</title>
<path fill="none" stroke="midnightblue" d="M439.84,-63.0352C381.132,-57.8995 221.566,-42.9738 78.4871,-20.1118"/>
<polygon fill="midnightblue" stroke="midnightblue" points="78.6458,-16.5921 68.2155,-18.452 77.5291,-23.5025 78.6458,-16.5921"/>
</g>
<!-- Node4 -->
<g id="node4" class="node"><title>Node4</title>
<polygon fill="white" stroke="#bfbfbf" points="86.5,-0.5 86.5,-19.5 159.5,-19.5 159.5,-0.5 86.5,-0.5"/>
<text text-anchor="middle" x="123" y="-7.5" font-family="Helvetica,sans-Serif" font-size="10.00">sys/socket.h</text>
</g>
<!-- Node2&#45;&gt;Node4 -->
<g id="edge3" class="edge"><title>Node2&#45;&gt;Node4</title>
<path fill="none" stroke="midnightblue" d="M439.698,-61.7673C391.409,-54.9972 276.694,-38.546 169.635,-20.0472"/>
<polygon fill="midnightblue" stroke="midnightblue" points="170.085,-16.573 159.633,-18.309 168.886,-23.4696 170.085,-16.573"/>
</g>
<!-- Node5 -->
<g id="node5" class="node"><title>Node5</title>
<polygon fill="white" stroke="#bfbfbf" points="178,-0.5 178,-19.5 240,-19.5 240,-0.5 178,-0.5"/>
<text text-anchor="middle" x="209" y="-7.5" font-family="Helvetica,sans-Serif" font-size="10.00">arpa/inet.h</text>
</g>
<!-- Node2&#45;&gt;Node5 -->
<g id="edge4" class="edge"><title>Node2&#45;&gt;Node5</title>
<path fill="none" stroke="midnightblue" d="M439.86,-60.2452C402.27,-52.4975 325.357,-36.5461 250.5,-20.305"/>
<polygon fill="midnightblue" stroke="midnightblue" points="250.949,-16.8209 240.434,-18.1164 249.462,-23.6611 250.949,-16.8209"/>
</g>
<!-- Node6 -->
<g id="node6" class="node"><title>Node6</title>
<polygon fill="white" stroke="#bfbfbf" points="258.5,-0.5 258.5,-19.5 323.5,-19.5 323.5,-0.5 258.5,-0.5"/>
<text text-anchor="middle" x="291" y="-7.5" font-family="Helvetica,sans-Serif" font-size="10.00">netinet/in.h</text>
</g>
<!-- Node2&#45;&gt;Node6 -->
<g id="edge5" class="edge"><title>Node2&#45;&gt;Node6</title>
<path fill="none" stroke="midnightblue" d="M439.803,-57.7173C411.094,-48.7038 361.852,-33.2443 327.926,-22.5929"/>
<polygon fill="midnightblue" stroke="midnightblue" points="328.95,-19.2462 318.361,-19.59 326.853,-25.9248 328.95,-19.2462"/>
</g>
<!-- Node7 -->
<g id="node7" class="node"><title>Node7</title>
<polygon fill="white" stroke="#bfbfbf" points="341.5,-0.5 341.5,-19.5 392.5,-19.5 392.5,-0.5 341.5,-0.5"/>
<text text-anchor="middle" x="367" y="-7.5" font-family="Helvetica,sans-Serif" font-size="10.00">unistd.h</text>
</g>
<!-- Node2&#45;&gt;Node7 -->
<g id="edge6" class="edge"><title>Node2&#45;&gt;Node7</title>
<path fill="none" stroke="midnightblue" d="M447.576,-56.324C432.46,-47.8215 409.185,-34.7288 391.529,-24.7975"/>
<polygon fill="midnightblue" stroke="midnightblue" points="392.817,-21.5066 382.386,-19.6545 389.386,-27.6077 392.817,-21.5066"/>
</g>
<!-- Node8 -->
<g id="node8" class="node"><title>Node8</title>
<polygon fill="white" stroke="#bfbfbf" points="410.5,-0.5 410.5,-19.5 453.5,-19.5 453.5,-0.5 410.5,-0.5"/>
<text text-anchor="middle" x="432" y="-7.5" font-family="Helvetica,sans-Serif" font-size="10.00">cstdio</text>
</g>
<!-- Node2&#45;&gt;Node8 -->
<g id="edge7" class="edge"><title>Node2&#45;&gt;Node8</title>
<path fill="none" stroke="midnightblue" d="M457.881,-56.083C453.592,-48.6127 447.342,-37.7244 442.058,-28.5199"/>
<polygon fill="midnightblue" stroke="midnightblue" points="445.038,-26.6811 437.024,-19.7511 438.967,-30.1662 445.038,-26.6811"/>
</g>
<!-- Node9 -->
<g id="node9" class="node"><title>Node9</title>
<polygon fill="white" stroke="#bfbfbf" points="472,-0.5 472,-19.5 518,-19.5 518,-0.5 472,-0.5"/>
<text text-anchor="middle" x="495" y="-7.5" font-family="Helvetica,sans-Serif" font-size="10.00">stdio.h</text>
</g>
<!-- Node2&#45;&gt;Node9 -->
<g id="edge8" class="edge"><title>Node2&#45;&gt;Node9</title>
<path fill="none" stroke="midnightblue" d="M468.284,-56.083C472.711,-48.6127 479.163,-37.7244 484.618,-28.5199"/>
<polygon fill="midnightblue" stroke="midnightblue" points="487.727,-30.1383 489.814,-19.7511 481.705,-26.5697 487.727,-30.1383"/>
</g>
<!-- Node10 -->
<g id="node10" class="node"><title>Node10</title>
<polygon fill="white" stroke="#bfbfbf" points="536,-0.5 536,-19.5 580,-19.5 580,-0.5 536,-0.5"/>
<text text-anchor="middle" x="558" y="-7.5" font-family="Helvetica,sans-Serif" font-size="10.00">mutex</text>
</g>
<!-- Node2&#45;&gt;Node10 -->
<g id="edge9" class="edge"><title>Node2&#45;&gt;Node10</title>
<path fill="none" stroke="midnightblue" d="M478.263,-56.324C493.221,-47.8215 516.255,-34.7288 533.727,-24.7975"/>
<polygon fill="midnightblue" stroke="midnightblue" points="535.81,-27.639 542.774,-19.6545 532.351,-21.5534 535.81,-27.639"/>
</g>
<!-- Node11 -->
<g id="node11" class="node"><title>Node11</title>
<polygon fill="white" stroke="#bfbfbf" points="598,-0.5 598,-19.5 638,-19.5 638,-0.5 598,-0.5"/>
<text text-anchor="middle" x="618" y="-7.5" font-family="Helvetica,sans-Serif" font-size="10.00">utility</text>
</g>
<!-- Node2&#45;&gt;Node11 -->
<g id="edge10" class="edge"><title>Node2&#45;&gt;Node11</title>
<path fill="none" stroke="midnightblue" d="M486.205,-56.9157C513.369,-47.4523 558.415,-31.7586 588.157,-21.397"/>
<polygon fill="midnightblue" stroke="midnightblue" points="589.316,-24.6994 597.608,-18.1042 587.013,-18.0891 589.316,-24.6994"/>
</g>
<!-- Node12 -->
<g id="node12" class="node"><title>Node12</title>
<polygon fill="white" stroke="#bfbfbf" points="656.5,-0.5 656.5,-19.5 751.5,-19.5 751.5,-0.5 656.5,-0.5"/>
<text text-anchor="middle" x="704" y="-7.5" font-family="Helvetica,sans-Serif" font-size="10.00">condition_variable</text>
</g>
<!-- Node2&#45;&gt;Node12 -->
<g id="edge11" class="edge"><title>Node2&#45;&gt;Node12</title>
<path fill="none" stroke="midnightblue" d="M486.027,-58.3394C489.038,-57.5227 492.087,-56.7224 495,-56 547.695,-42.9303 608.405,-30.1048 650.768,-21.5113"/>
<polygon fill="midnightblue" stroke="midnightblue" points="651.48,-24.9383 660.589,-19.5281 650.094,-18.0768 651.48,-24.9383"/>
</g>
<!-- Node13 -->
<g id="node13" class="node"><title>Node13</title>
<polygon fill="white" stroke="#bfbfbf" points="769.5,-0.5 769.5,-19.5 804.5,-19.5 804.5,-0.5 769.5,-0.5"/>
<text text-anchor="middle" x="787" y="-7.5" font-family="Helvetica,sans-Serif" font-size="10.00">map</text>
</g>
<!-- Node2&#45;&gt;Node13 -->
<g id="edge12" class="edge"><title>Node2&#45;&gt;Node13</title>
<path fill="none" stroke="midnightblue" d="M486.326,-58.0333C489.232,-57.2857 492.174,-56.5856 495,-56 608.624,-32.453 643.074,-46.8113 759.241,-20.0292"/>
<polygon fill="midnightblue" stroke="midnightblue" points="760.307,-23.3739 769.236,-17.6711 758.699,-16.561 760.307,-23.3739"/>
</g>
<!-- Node14 -->
<g id="node14" class="node"><title>Node14</title>
<polygon fill="white" stroke="#bfbfbf" points="822.5,-0.5 822.5,-19.5 865.5,-19.5 865.5,-0.5 822.5,-0.5"/>
<text text-anchor="middle" x="844" y="-7.5" font-family="Helvetica,sans-Serif" font-size="10.00">queue</text>
</g>
<!-- Node2&#45;&gt;Node14 -->
<g id="edge13" class="edge"><title>Node2&#45;&gt;Node14</title>
<path fill="none" stroke="midnightblue" d="M486.314,-57.9725C489.222,-57.2353 492.168,-56.5542 495,-56 631.876,-29.2112 672.409,-47.7384 812.66,-19.9467"/>
<polygon fill="midnightblue" stroke="midnightblue" points="813.381,-23.3718 822.488,-17.9566 811.992,-16.511 813.381,-23.3718"/>
</g>
</g>
</svg>
