<?xml version="1.0" encoding="UTF-8" standalone="no"?>
<!DOCTYPE svg PUBLIC "-//W3C//DTD SVG 1.1//EN"
 "http://www.w3.org/Graphics/SVG/1.1/DTD/svg11.dtd">
<!-- Generated by graphviz version 2.38.0 (20140413.2041)
 -->
<!-- Title: sudp.h Pages: 1 -->
<svg width="406pt" height="140pt"
 viewBox="0.00 0.00 405.50 140.00" xmlns="http://www.w3.org/2000/svg" xmlns:xlink="http://www.w3.org/1999/xlink">
<g id="graph0" class="graph" transform="scale(1 1) rotate(0) translate(4 136)">
<title>sudp.h</title>
<polygon fill="white" stroke="none" points="-4,4 -4,-136 401.5,-136 401.5,4 -4,4"/>
<!-- Node1 -->
<g id="node1" class="node"><title>Node1</title>
<polygon fill="#bfbfbf" stroke="black" points="205.5,-112.5 205.5,-131.5 251.5,-131.5 251.5,-112.5 205.5,-112.5"/>
<text text-anchor="middle" x="228.5" y="-119.5" font-family="Helvetica,sans-Serif" font-size="10.00">sudp.h</text>
</g>
<!-- Node2 -->
<g id="node2" class="node"><title>Node2</title>
<g id="a_node2"><a xlink:href="azul_8h.html" target="_top" xlink:title="azul.h">
<polygon fill="white" stroke="black" points="103,-56.5 103,-75.5 146,-75.5 146,-56.5 103,-56.5"/>
<text text-anchor="middle" x="124.5" y="-63.5" font-family="Helvetica,sans-Serif" font-size="10.00">azul.h</text>
</a>
</g>
</g>
<!-- Node1&#45;&gt;Node2 -->
<g id="edge1" class="edge"><title>Node1&#45;&gt;Node2</title>
<path fill="none" stroke="midnightblue" d="M202.672,-107.59C183.443,-97.6052 157.755,-84.2672 141.168,-75.6545"/>
<polygon fill="midnightblue" stroke="midnightblue" points="201.303,-110.822 211.791,-112.324 204.529,-104.61 201.303,-110.822"/>
</g>
<!-- Node5 -->
<g id="node5" class="node"><title>Node5</title>
<g id="a_node5"><a xlink:href="orange_8h.html" target="_top" xlink:title="orange.h">
<polygon fill="white" stroke="black" points="201.5,-56.5 201.5,-75.5 255.5,-75.5 255.5,-56.5 201.5,-56.5"/>
<text text-anchor="middle" x="228.5" y="-63.5" font-family="Helvetica,sans-Serif" font-size="10.00">orange.h</text>
</a>
</g>
</g>
<!-- Node1&#45;&gt;Node5 -->
<g id="edge4" class="edge"><title>Node1&#45;&gt;Node5</title>
<path fill="none" stroke="midnightblue" d="M228.5,-101.805C228.5,-92.9102 228.5,-82.7798 228.5,-75.7511"/>
<polygon fill="midnightblue" stroke="midnightblue" points="225,-102.083 228.5,-112.083 232,-102.083 225,-102.083"/>
</g>
<!-- Node8 -->
<g id="node8" class="node"><title>Node8</title>
<g id="a_node8"><a xlink:href="sudp_8cpp.html" target="_top" xlink:title="sudp.cpp">
<polygon fill="white" stroke="black" points="273.5,-56.5 273.5,-75.5 329.5,-75.5 329.5,-56.5 273.5,-56.5"/>
<text text-anchor="middle" x="301.5" y="-63.5" font-family="Helvetica,sans-Serif" font-size="10.00">sudp.cpp</text>
</a>
</g>
</g>
<!-- Node1&#45;&gt;Node8 -->
<g id="edge7" class="edge"><title>Node1&#45;&gt;Node8</title>
<path fill="none" stroke="midnightblue" d="M248.642,-106.101C261.779,-96.3824 278.482,-84.0269 289.558,-75.8339"/>
<polygon fill="midnightblue" stroke="midnightblue" points="246.187,-103.563 240.229,-112.324 250.35,-109.191 246.187,-103.563"/>
</g>
<!-- Node3 -->
<g id="node3" class="node"><title>Node3</title>
<g id="a_node3"><a xlink:href="azul_8cpp.html" target="_top" xlink:title="azul.cpp">
<polygon fill="white" stroke="black" points="0,-0.5 0,-19.5 53,-19.5 53,-0.5 0,-0.5"/>
<text text-anchor="middle" x="26.5" y="-7.5" font-family="Helvetica,sans-Serif" font-size="10.00">azul.cpp</text>
</a>
</g>
</g>
<!-- Node2&#45;&gt;Node3 -->
<g id="edge2" class="edge"><title>Node2&#45;&gt;Node3</title>
<path fill="none" stroke="midnightblue" d="M99.9139,-51.4526C81.8219,-41.4835 57.7654,-28.2279 42.2063,-19.6545"/>
<polygon fill="midnightblue" stroke="midnightblue" points="98.3071,-54.5633 108.755,-56.324 101.685,-48.4324 98.3071,-54.5633"/>
</g>
<!-- Node4 -->
<g id="node4" class="node"><title>Node4</title>
<g id="a_node4"><a xlink:href="azul__instantiator_8cpp.html" target="_top" xlink:title="azul_instantiator.cpp">
<polygon fill="white" stroke="black" points="71,-0.5 71,-19.5 178,-19.5 178,-0.5 71,-0.5"/>
<text text-anchor="middle" x="124.5" y="-7.5" font-family="Helvetica,sans-Serif" font-size="10.00">azul_instantiator.cpp</text>
</a>
</g>
</g>
<!-- Node2&#45;&gt;Node4 -->
<g id="edge3" class="edge"><title>Node2&#45;&gt;Node4</title>
<path fill="none" stroke="midnightblue" d="M124.5,-45.8045C124.5,-36.9102 124.5,-26.7798 124.5,-19.7511"/>
<polygon fill="midnightblue" stroke="midnightblue" points="121,-46.083 124.5,-56.083 128,-46.083 121,-46.083"/>
</g>
<!-- Node6 -->
<g id="node6" class="node"><title>Node6</title>
<g id="a_node6"><a xlink:href="orange_8cpp.html" target="_top" xlink:title="orange.cpp">
<polygon fill="white" stroke="black" points="196,-0.5 196,-19.5 261,-19.5 261,-0.5 196,-0.5"/>
<text text-anchor="middle" x="228.5" y="-7.5" font-family="Helvetica,sans-Serif" font-size="10.00">orange.cpp</text>
</a>
</g>
</g>
<!-- Node5&#45;&gt;Node6 -->
<g id="edge5" class="edge"><title>Node5&#45;&gt;Node6</title>
<path fill="none" stroke="midnightblue" d="M228.5,-45.8045C228.5,-36.9102 228.5,-26.7798 228.5,-19.7511"/>
<polygon fill="midnightblue" stroke="midnightblue" points="225,-46.083 228.5,-56.083 232,-46.083 225,-46.083"/>
</g>
<!-- Node7 -->
<g id="node7" class="node"><title>Node7</title>
<g id="a_node7"><a xlink:href="orange__instantiator_8cpp.html" target="_top" xlink:title="orange_instantiator.cpp">
<polygon fill="white" stroke="black" points="279.5,-0.5 279.5,-19.5 397.5,-19.5 397.5,-0.5 279.5,-0.5"/>
<text text-anchor="middle" x="338.5" y="-7.5" font-family="Helvetica,sans-Serif" font-size="10.00">orange_instantiator.cpp</text>
</a>
</g>
</g>
<!-- Node5&#45;&gt;Node7 -->
<g id="edge6" class="edge"><title>Node5&#45;&gt;Node7</title>
<path fill="none" stroke="midnightblue" d="M255.262,-51.8622C275.659,-41.8492 303.166,-28.3458 320.87,-19.6545"/>
<polygon fill="midnightblue" stroke="midnightblue" points="253.608,-48.7753 246.173,-56.324 256.692,-55.059 253.608,-48.7753"/>
</g>
</g>
</svg>
