<?xml version="1.0" encoding="UTF-8" standalone="no"?>
<!DOCTYPE svg PUBLIC "-//W3C//DTD SVG 1.1//EN"
 "http://www.w3.org/Graphics/SVG/1.1/DTD/svg11.dtd">
<!-- Generated by graphviz version 2.38.0 (20140413.2041)
 -->
<!-- Title: sudp.h Pages: 1 -->
<svg width="874pt" height="84pt"
 viewBox="0.00 0.00 873.50 84.00" xmlns="http://www.w3.org/2000/svg" xmlns:xlink="http://www.w3.org/1999/xlink">
<g id="graph0" class="graph" transform="scale(1 1) rotate(0) translate(4 80)">
<title>sudp.h</title>
<polygon fill="white" stroke="none" points="-4,4 -4,-80 869.5,-80 869.5,4 -4,4"/>
<!-- Node1 -->
<g id="node1" class="node"><title>Node1</title>
<polygon fill="#bfbfbf" stroke="black" points="440,-56.5 440,-75.5 486,-75.5 486,-56.5 440,-56.5"/>
<text text-anchor="middle" x="463" y="-63.5" font-family="Helvetica,sans-Serif" font-size="10.00">sudp.h</text>
</g>
<!-- Node2 -->
<g id="node2" class="node"><title>Node2</title>
<polygon fill="white" stroke="#bfbfbf" points="0,-0.5 0,-19.5 68,-19.5 68,-0.5 0,-0.5"/>
<text text-anchor="middle" x="34" y="-7.5" font-family="Helvetica,sans-Serif" font-size="10.00">sys/types.h</text>
</g>
<!-- Node1&#45;&gt;Node2 -->
<g id="edge1" class="edge"><title>Node1&#45;&gt;Node2</title>
<path fill="none" stroke="midnightblue" d="M439.84,-63.0352C381.132,-57.8995 221.566,-42.9738 78.4871,-20.1118"/>
<polygon fill="midnightblue" stroke="midnightblue" points="78.6458,-16.5921 68.2155,-18.452 77.5291,-23.5025 78.6458,-16.5921"/>
</g>
<!-- Node3 -->
<g id="node3" class="node"><title>Node3</title>
<polygon fill="white" stroke="#bfbfbf" points="86.5,-0.5 86.5,-19.5 159.5,-19.5 159.5,-0.5 86.5,-0.5"/>
<text text-anchor="middle" x="123" y="-7.5" font-family="Helvetica,sans-Serif" font-size="10.00">sys/socket.h</text>
</g>
<!-- Node1&#45;&gt;Node3 -->
<g id="edge2" class="edge"><title>Node1&#45;&gt;Node3</title>
<path fill="none" stroke="midnightblue" d="M439.698,-61.7673C391.409,-54.9972 276.694,-38.546 169.635,-20.0472"/>
<polygon fill="midnightblue" stroke="midnightblue" points="170.085,-16.573 159.633,-18.309 168.886,-23.4696 170.085,-16.573"/>
</g>
<!-- Node4 -->
<g id="node4" class="node"><title>Node4</title>
<polygon fill="white" stroke="#bfbfbf" points="178,-0.5 178,-19.5 240,-19.5 240,-0.5 178,-0.5"/>
<text text-anchor="middle" x="209" y="-7.5" font-family="Helvetica,sans-Serif" font-size="10.00">arpa/inet.h</text>
</g>
<!-- Node1&#45;&gt;Node4 -->
<g id="edge3" class="edge"><title>Node1&#45;&gt;Node4</title>
<path fill="none" stroke="midnightblue" d="M439.86,-60.2452C402.27,-52.4975 325.357,-36.5461 250.5,-20.305"/>
<polygon fill="midnightblue" stroke="midnightblue" points="250.949,-16.8209 240.434,-18.1164 249.462,-23.6611 250.949,-16.8209"/>
</g>
<!-- Node5 -->
<g id="node5" class="node"><title>Node5</title>
<polygon fill="white" stroke="#bfbfbf" points="258.5,-0.5 258.5,-19.5 323.5,-19.5 323.5,-0.5 258.5,-0.5"/>
<text text-anchor="middle" x="291" y="-7.5" font-family="Helvetica,sans-Serif" font-size="10.00">netinet/in.h</text>
</g>
<!-- Node1&#45;&gt;Node5 -->
<g id="edge4" class="edge"><title>Node1&#45;&gt;Node5</title>
<path fill="none" stroke="midnightblue" d="M439.803,-57.7173C411.094,-48.7038 361.852,-33.2443 327.926,-22.5929"/>
<polygon fill="midnightblue" stroke="midnightblue" points="328.95,-19.2462 318.361,-19.59 326.853,-25.9248 328.95,-19.2462"/>
</g>
<!-- Node6 -->
<g id="node6" class="node"><title>Node6</title>
<polygon fill="white" stroke="#bfbfbf" points="341.5,-0.5 341.5,-19.5 392.5,-19.5 392.5,-0.5 341.5,-0.5"/>
<text text-anchor="middle" x="367" y="-7.5" font-family="Helvetica,sans-Serif" font-size="10.00">unistd.h</text>
</g>
<!-- Node1&#45;&gt;Node6 -->
<g id="edge5" class="edge"><title>Node1&#45;&gt;Node6</title>
<path fill="none" stroke="midnightblue" d="M447.576,-56.324C432.46,-47.8215 409.185,-34.7288 391.529,-24.7975"/>
<polygon fill="midnightblue" stroke="midnightblue" points="392.817,-21.5066 382.386,-19.6545 389.386,-27.6077 392.817,-21.5066"/>
</g>
<!-- Node7 -->
<g id="node7" class="node"><title>Node7</title>
<polygon fill="white" stroke="#bfbfbf" points="410.5,-0.5 410.5,-19.5 453.5,-19.5 453.5,-0.5 410.5,-0.5"/>
<text text-anchor="middle" x="432" y="-7.5" font-family="Helvetica,sans-Serif" font-size="10.00">cstdio</text>
</g>
<!-- Node1&#45;&gt;Node7 -->
<g id="edge6" class="edge"><title>Node1&#45;&gt;Node7</title>
<path fill="none" stroke="midnightblue" d="M457.881,-56.083C453.592,-48.6127 447.342,-37.7244 442.058,-28.5199"/>
<polygon fill="midnightblue" stroke="midnightblue" points="445.038,-26.6811 437.024,-19.7511 438.967,-30.1662 445.038,-26.6811"/>
</g>
<!-- Node8 -->
<g id="node8" class="node"><title>Node8</title>
<polygon fill="white" stroke="#bfbfbf" points="472,-0.5 472,-19.5 518,-19.5 518,-0.5 472,-0.5"/>
<text text-anchor="middle" x="495" y="-7.5" font-family="Helvetica,sans-Serif" font-size="10.00">stdio.h</text>
</g>
<!-- Node1&#45;&gt;Node8 -->
<g id="edge7" class="edge"><title>Node1&#45;&gt;Node8</title>
<path fill="none" stroke="midnightblue" d="M468.284,-56.083C472.711,-48.6127 479.163,-37.7244 484.618,-28.5199"/>
<polygon fill="midnightblue" stroke="midnightblue" points="487.727,-30.1383 489.814,-19.7511 481.705,-26.5697 487.727,-30.1383"/>
</g>
<!-- Node9 -->
<g id="node9" class="node"><title>Node9</title>
<polygon fill="white" stroke="#bfbfbf" points="536,-0.5 536,-19.5 580,-19.5 580,-0.5 536,-0.5"/>
<text text-anchor="middle" x="558" y="-7.5" font-family="Helvetica,sans-Serif" font-size="10.00">mutex</text>
</g>
<!-- Node1&#45;&gt;Node9 -->
<g id="edge8" class="edge"><title>Node1&#45;&gt;Node9</title>
<path fill="none" stroke="midnightblue" d="M478.263,-56.324C493.221,-47.8215 516.255,-34.7288 533.727,-24.7975"/>
<polygon fill="midnightblue" stroke="midnightblue" points="535.81,-27.639 542.774,-19.6545 532.351,-21.5534 535.81,-27.639"/>
</g>
<!-- Node10 -->
<g id="node10" class="node"><title>Node10</title>
<polygon fill="white" stroke="#bfbfbf" points="598,-0.5 598,-19.5 638,-19.5 638,-0.5 598,-0.5"/>
<text text-anchor="middle" x="618" y="-7.5" font-family="Helvetica,sans-Serif" font-size="10.00">utility</text>
</g>
<!-- Node1&#45;&gt;Node10 -->
<g id="edge9" class="edge"><title>Node1&#45;&gt;Node10</title>
<path fill="none" stroke="midnightblue" d="M486.205,-56.9157C513.369,-47.4523 558.415,-31.7586 588.157,-21.397"/>
<polygon fill="midnightblue" stroke="midnightblue" points="589.316,-24.6994 597.608,-18.1042 587.013,-18.0891 589.316,-24.6994"/>
</g>
<!-- Node11 -->
<g id="node11" class="node"><title>Node11</title>
<polygon fill="white" stroke="#bfbfbf" points="656.5,-0.5 656.5,-19.5 751.5,-19.5 751.5,-0.5 656.5,-0.5"/>
<text text-anchor="middle" x="704" y="-7.5" font-family="Helvetica,sans-Serif" font-size="10.00">condition_variable</text>
</g>
<!-- Node1&#45;&gt;Node11 -->
<g id="edge10" class="edge"><title>Node1&#45;&gt;Node11</title>
<path fill="none" stroke="midnightblue" d="M486.108,-59.8223C525.097,-51.0862 604.716,-33.2463 656.152,-21.7211"/>
<polygon fill="midnightblue" stroke="midnightblue" points="657.051,-25.1066 666.043,-19.5048 655.52,-18.276 657.051,-25.1066"/>
</g>
<!-- Node12 -->
<g id="node12" class="node"><title>Node12</title>
<polygon fill="white" stroke="#bfbfbf" points="769.5,-0.5 769.5,-19.5 804.5,-19.5 804.5,-0.5 769.5,-0.5"/>
<text text-anchor="middle" x="787" y="-7.5" font-family="Helvetica,sans-Serif" font-size="10.00">map</text>
</g>
<!-- Node1&#45;&gt;Node12 -->
<g id="edge11" class="edge"><title>Node1&#45;&gt;Node12</title>
<path fill="none" stroke="midnightblue" d="M486.086,-62.9694C535.005,-58.3602 652.737,-45.6469 759.283,-20.0675"/>
<polygon fill="midnightblue" stroke="midnightblue" points="760.345,-23.4109 769.227,-17.634 758.681,-16.6115 760.345,-23.4109"/>
</g>
<!-- Node13 -->
<g id="node13" class="node"><title>Node13</title>
<polygon fill="white" stroke="#bfbfbf" points="822.5,-0.5 822.5,-19.5 865.5,-19.5 865.5,-0.5 822.5,-0.5"/>
<text text-anchor="middle" x="844" y="-7.5" font-family="Helvetica,sans-Serif" font-size="10.00">queue</text>
</g>
<!-- Node1&#45;&gt;Node13 -->
<g id="edge12" class="edge"><title>Node1&#45;&gt;Node13</title>
<path fill="none" stroke="midnightblue" d="M486.218,-63.3472C541.344,-59.1442 684.492,-46.5947 812.507,-20.0221"/>
<polygon fill="midnightblue" stroke="midnightblue" points="813.418,-23.407 822.479,-17.9167 811.972,-16.558 813.418,-23.407"/>
</g>
</g>
</svg>
